<?xml version="1.0" encoding="UTF-8"?>
<svg width="263px" height="152px" viewBox="0 0 263 152" version="1.1" xmlns="http://www.w3.org/2000/svg" xmlns:xlink="http://www.w3.org/1999/xlink">
    <!-- Generator: Sketch 64 (93537) - https://sketch.com -->
    <title>opinion 3</title>
    <desc>Created with Sketch.</desc>
    <defs>
        <rect id="path-1" x="0" y="0" width="219" height="142"></rect>
        <filter x="-1.4%" y="-2.1%" width="104.6%" height="108.5%" filterUnits="objectBoundingBox" id="filter-2">
            <feMorphology radius="2" operator="erode" in="SourceAlpha" result="shadowSpreadOuter1"></feMorphology>
            <feOffset dx="2" dy="4" in="shadowSpreadOuter1" result="shadowOffsetOuter1"></feOffset>
            <feGaussianBlur stdDeviation="3" in="shadowOffsetOuter1" result="shadowBlurOuter1"></feGaussianBlur>
            <feColorMatrix values="0 0 0 0 0.235294118   0 0 0 0 0.235294118   0 0 0 0 0.235294118  0 0 0 0.5 0" type="matrix" in="shadowBlurOuter1"></feColorMatrix>
        </filter>
        <ellipse id="path-3" cx="30.4545455" cy="30" rx="30.4545455" ry="30"></ellipse>
        <path d="M67,-1.02140518e-14 L67,40 L63.954,39.999 C63.9545455,56.4028571 50.5909168,69.7310571 34.0036216,69.9959809 L33.5,70 C16.680419,70 3.04545455,56.5685425 3.04545455,40 C3.04545455,39.9996666 3.04545455,39.9993333 3.04545456,39.9989999 L-8.11472102e-15,40 L-8.11472102e-15,-1.02140518e-14 L67,-1.02140518e-14 Z" id="path-5"></path>
        <path d="M25.3787879,0 C33.2279257,-1.44186322e-15 39.5909091,6.3629834 39.5909091,14.2121212 L39.5908541,15.5420985 C41.0312357,15.7837215 42.1287879,17.0364145 42.1287879,18.5454545 L42.1287879,21.9545455 C42.1287879,23.4979608 40.9806626,24.7732171 39.4918956,24.9728309 C38.9087216,29.9145621 35.7887212,34.0805797 31.4696977,36.1323243 L31.4700066,40.772468 C42.0929031,41.2695127 50.5757894,49.951612 50.7546927,60.6547931 L50.7575758,61 L0,61 C-1.3301058e-15,50.1388619 8.55069526,41.2748457 19.2875692,40.772468 L19.2868822,36.1318511 C14.968375,34.0799393 11.8488093,29.9141822 11.2653807,24.9717751 C9.77707049,24.7733918 8.62878788,23.4980665 8.62878788,21.9545455 L8.62878788,18.5454545 C8.62878788,17.0364564 9.72627912,15.7837911 11.1666016,15.5421186 L11.1666667,14.2121212 C11.1666667,6.3629834 17.5296501,1.44186322e-15 25.3787879,0 Z" id="path-7"></path>
        <path d="M58.8759066,27.1550135 L58.8787879,27.5 L8.12121212,27.5 C8.12121212,16.8855545 16.2931074,8.17975741 26.6886896,7.33081713 C26.6613841,7.5552341 26.6477273,7.78262781 26.6477273,8.01293088 C26.6477273,11.4647106 29.7155943,14.2629309 33.5,14.2629309 C37.2844057,14.2629309 40.3522727,11.4647106 40.3522727,8.01293088 C40.3522727,7.78262781 40.3386159,7.5552341 40.3120006,7.33138674 C50.5941088,8.17060849 58.7011099,16.6975132 58.8759066,27.1550135 Z" id="path-9"></path>
        <path d="M8.91248312,3.78201929 C9.18095723,6.15495063 11.2240195,8 13.7045455,8 C16.192734,8 18.2407519,6.14353399 18.499045,3.76001366 C18.5198325,3.5681865 18.3023552,3.25 18.0297931,3.25 C14.2498731,3.25 11.3539422,3.25 9.41218649,3.25 C9.13804291,3.25 8.88562267,3.54461089 8.91248312,3.78201929 Z" id="path-11"></path>
        <rect id="path-13" x="0" y="0" width="67" height="70"></rect>
        <path d="M20.6653038,37.8358757 C22.025503,41.040754 24.5284384,43.6433142 27.6628781,45.1323243 L27.6637117,47.4023356 C27.0642525,47.6003696 26.4184349,47.7657608 25.701999,47.8924324 C23.4147138,48.296835 16.9907312,47.0103742 14.168659,44.8970468 C13.9533694,44.7357353 14.0625232,44.4176859 14.3388452,44.399082 C17.3190312,44.1982372 18.8337719,41.3250948 20.0507287,39.0477429 C20.1812187,38.8035536 20.3083739,38.5577967 20.4326341,38.310726 Z M44.4278725,41.6708615 C44.609888,42.2509153 44.8750988,42.7960657 45.3151428,43.1714884 C45.7265331,43.5225133 46.4604683,43.4363671 46.9757863,43.450687 C47.400138,43.462658 47.8249611,43.4640218 48.248763,43.4459137 C48.4617244,43.4368217 48.5566183,43.6994275 48.3843482,43.8204261 C48.3513552,43.8436106 48.3183623,43.8656586 48.2852909,43.8859639 C48.0185981,44.0496948 47.7421646,44.2006968 47.4605465,44.339046 C46.8200911,44.6535516 46.1440506,44.9000191 45.4349385,45.0226089 C44.9489956,45.1065566 44.4673255,45.1223896 44.0010819,45.0667732 C44.1234533,45.2469201 44.2656743,45.4106772 44.4310261,45.5519469 C44.8700729,45.9271017 45.6533484,45.8350337 46.2033096,45.8503379 C46.6561892,45.8631319 47.1095719,45.8645894 47.5618646,45.8452365 C47.7891428,45.8355196 47.8904161,46.1161772 47.7065648,46.2454934 C47.6713538,46.2702716 47.6361429,46.2938352 47.6008482,46.3155363 C47.3162265,46.4905222 47.0212092,46.6519044 46.7206588,46.7997638 C46.0371475,47.1358889 45.3156588,47.3992989 44.5588754,47.5303156 C43.1630973,47.7717815 41.8003505,47.4859415 40.7026917,46.6033197 C40.3936066,46.3547896 40.1050772,46.0715586 39.8442197,45.7626851 L39.8456935,45.1318511 C41.5446241,44.3246148 43.0579957,43.1902208 44.3043903,41.8100872 Z M25.7446835,6.39996942 C30.8106141,5.0998931 34.4266927,7.36857754 34.73395,7.56420083 C35.0987184,7.79636913 35.2385561,7.69913625 35.6529552,7.60132461 C37.2635199,7.22115729 39.0176111,7.04901541 40.6537456,7.36956972 C42.2628851,7.68491512 43.8053753,8.50610298 45.1100241,9.46404525 C47.5278412,11.2393721 49.6176937,14.1094782 49.7185479,17.1699161 C49.7630646,18.5467204 49.5619431,19.9767713 49.2816808,21.3238931 C49.029252,22.5370717 48.1866209,23.4928642 47.9246349,24.6822307 C46.9025119,21.2620477 43.000051,20.120967 40.6674946,17.7887008 C41.1741967,18.7369694 41.9488371,19.5256636 42.4572997,20.4582228 C40.1104912,19.041897 37.8366197,16.9884313 36.8658041,14.3844753 C36.6862283,15.7339949 36.1764244,16.9818995 35.315601,18.0508823 C34.5513562,19.0000604 33.3914914,20.0186079 32.195242,20.386125 C32.8113494,19.0093207 33.3379205,17.5817502 33.8214,16.1547586 C33.309584,16.8089308 31.6140101,19.5881705 31.1882932,20.2771514 C30.7679418,20.9574508 30.2966183,21.6065795 29.790587,22.22801 C29.5537516,22.5187992 29.3011551,22.7998319 29.046798,23.0757385 C28.8986606,23.2364704 28.7475889,23.3945565 28.5932477,23.5495007 C28.5386708,23.6042356 28.1256969,24.0517879 28.3617778,23.7509117 C27.7993251,24.4515506 26.9716167,24.9956744 26.2526431,25.5281402 C25.5287231,26.0642439 24.7400821,26.5203124 23.9200867,26.8973378 C22.1032027,27.7329122 20.2371073,28.0370956 18.2556541,27.6880164 C18.5588873,27.76276 19.1998939,27.4765183 19.5134388,27.3925144 C19.9726061,27.2694024 20.3950534,27.113218 20.8110454,26.8865893 C21.6418557,26.433828 22.4225323,25.8940037 23.1398292,25.2819988 C22.4527969,25.5700594 21.8949552,26.1154234 21.1947607,26.4177879 C20.6144511,26.6683941 20.0408483,26.7991955 19.4101534,26.8593045 C18.0241004,26.9915115 16.3659171,26.6792253 15.1665658,25.9623809 C13.772716,25.1293696 12.9986624,23.6997321 12.6314627,22.1782361 C12.2049912,20.4115081 12.4699954,18.4181514 13.4759381,16.9097189 C13.5100592,17.4454092 14.6016818,17.6758412 15.4849732,17.5415673 C17.9359054,17.1688412 19.3939732,8.02961228 25.7446835,6.39996942 Z" id="path-15"></path>
    </defs>
    <g id="Portfolio-High-f-i" stroke="none" stroke-width="1" fill="none" fill-rule="evenodd">
        <g id="Case-studies-price-my-airbnb" transform="translate(-159.000000, -3037.000000)">
            <g id="Unexpected" transform="translate(156.000000, 2831.000000)">
                <g id="opinion-3" transform="translate(0.000000, 200.000000)">
                    <g id="Note-/-Square-/-Yellow-Copy-4" transform="translate(43.000000, 10.000000)">
                        <g id="Rectangle">
                            <use fill="black" fill-opacity="1" filter="url(#filter-2)" xlink:href="#path-1"></use>
                            <use fill="#F1E41B" fill-rule="evenodd" xlink:href="#path-1"></use>
                        </g>
                        <rect id="Rectangle" fill="#EBDE0E" x="0" y="0" width="219" height="39"></rect>
                        <text id="Scott" font-family="Helvetica-Bold, Helvetica" font-size="18" font-weight="bold" fill="#2D2D2D">
                            <tspan x="25" y="30">Scott</tspan>
                        </text>
                        <text id="“If-they-have-a-good" font-family="Helvetica" font-size="16" font-weight="normal" fill="#2D2D2D">
                            <tspan x="25" y="66">“If they have a good </tspan>
                            <tspan x="25" y="85">clean rate space and  </tspan>
                            <tspan x="25" y="104">great location”</tspan>
                        </text>
                    </g>
                    <g id="Avataaar/Circle">
                        <g id="Circle" stroke-width="1" fill-rule="evenodd" transform="translate(3.045455, 10.000000)">
                            <mask id="mask-4" fill="white">
                                <use xlink:href="#path-3"></use>
                            </mask>
                            <use id="Circle-Background" fill="#E6E6E6" xlink:href="#path-3"></use>
                            <g id="Color/Palette/Pastel-Red" mask="url(#mask-4)" fill="#FFAFB9">
                                <rect id="🖍Color" x="0" y="0" width="60.9090909" height="60"></rect>
                            </g>
                        </g>
                        <mask id="mask-6" fill="white">
                            <use xlink:href="#path-5"></use>
                        </mask>
                        <g id="Mask"></g>
                        <g id="Avataaar" stroke-width="1" fill-rule="evenodd" mask="url(#mask-6)">
                            <g id="Body" transform="translate(8.121212, 9.000000)">
                                <mask id="mask-8" fill="white">
                                    <use xlink:href="#path-7"></use>
                                </mask>
                                <use fill="#D0C6AC" xlink:href="#path-7"></use>
                                <g id="Skin/👶🏼-04-Light" mask="url(#mask-8)" fill="#EDB98A">
                                    <g transform="translate(-8.121212, 0.000000)" id="Color">
                                        <rect x="0" y="0" width="67" height="61"></rect>
                                    </g>
                                </g>
                                <path d="M11.1666667,23.2878788 C11.1666667,31.1370166 17.5296501,37.5 25.3787879,37.5 C33.2279257,37.5 39.5909091,31.1370166 39.5909091,23.2878788 L39.5909091,23.2878788 L39.5909091,25.2878788 C39.5909091,33.1370166 33.2279257,39.5 25.3787879,39.5 C17.5296501,39.5 11.1666667,33.1370166 11.1666667,25.2878788 Z" id="Neck-Shadow" fill-opacity="0.100000001" fill="#000000" mask="url(#mask-8)"></path>
                            </g>
                            <g id="Clothing/Blazer-+-Sweater" transform="translate(0.000000, 42.500000)">
                                <mask id="mask-10" fill="white">
                                    <use xlink:href="#path-9"></use>
                                </mask>
                                <use id="Clothes" fill="#E6E6E6" fill-rule="evenodd" xlink:href="#path-9"></use>
                                <g id="Color/Palette/Gray-01" mask="url(#mask-10)" fill="#E6E6E6" fill-rule="evenodd">
                                    <rect id="🖍Color" x="0" y="0" width="67" height="27.5"></rect>
                                </g>
                                <g id="Blazer" stroke-width="1" fill-rule="evenodd" transform="translate(8.121212, 7.000000)">
                                    <path d="M16.2424242,10.125 C16.2424242,13.927397 16.7400928,17.4803995 17.6032989,20.5005113 L0,20.5 C-1.2512656e-15,10.282641 7.57191061,1.83379644 17.4104287,0.458769511 C16.6661874,3.31991461 16.2424242,6.61627804 16.2424242,10.125 Z M50.7546945,20.1550135 L50.7575758,20.5 L33.4080647,20.5005113 C34.2712709,17.4803995 34.7689394,13.927397 34.7689394,10.125 C34.7689394,6.63174214 34.3489034,3.34897506 33.6112841,0.496518722 C43.2104312,1.96860337 50.5880341,10.1842835 50.7546945,20.1550135 Z" id="Saco" fill="#3A4C5A"></path>
                                    <path d="M37.8143939,14.5 L39.891602,12.9653463 C40.4650107,12.5417085 41.2495299,12.5485618 41.8154501,12.9821525 L43.1439394,14 L43.1439394,14 L37.8143939,14.5 Z" id="Pocket-hanky" fill="#E6E6E6"></path>
                                    <path d="M17.5113636,0 C16.4962121,4.83333333 16.9191919,11.6666667 18.780303,20.5 L14.719697,20.5 L11.1666667,11.5 L12.6893939,9.25 L11.1666667,7.75 L15.9886364,0.25 C16.5032316,0.0923096592 17.0108074,0.00897632591 17.5113636,0 Z" id="Wing" fill="#2F4351"></path>
                                    <path d="M38.3219697,0 C37.3068182,4.83333333 37.729798,11.6666667 39.5909091,20.5 L35.530303,20.5 L31.9772727,11.5 L33.5,9.25 L31.9772727,7.75 L36.7992424,0.25 C37.3138377,0.0923096592 37.8214135,0.00897632591 38.3219697,0 Z" id="Wing" fill="#2F4351" transform="translate(35.784091, 10.250000) scale(-1, 1) translate(-35.784091, -10.250000) "></path>
                                </g>
                                <path d="M39.5907894,5.38467149 C41.3095918,6.53391341 42.3825758,8.16403792 42.3825758,9.97197003 C42.3825758,11.8219952 41.2590468,13.4858368 39.4696907,14.6387542 L37.9614242,13.4687523 L36.7992424,13.5519717 L37.0530303,12.7641955 L37.0564242,12.7667523 L37.0335739,12.7487364 C38.5815876,11.9631068 39.5909091,10.6750014 39.5909091,9.21920254 Z M29.966093,12.7485674 L29.9424242,12.7667523 L29.9469697,12.7641955 L30.2007576,13.5519717 L29.0374242,13.4687523 L27.5303093,14.6387542 C25.8056931,13.52755 24.6995956,11.9417237 24.6218148,10.1720282 L24.6174242,9.97197003 C24.6174242,8.16403792 25.6904082,6.53391341 27.4092106,5.38467149 L27.4090909,9.21920254 C27.4090909,10.674897 28.4182677,11.962922 29.966093,12.7485674 Z" id="Collar" fill="#F2F2F2" fill-rule="evenodd"></path>
                            </g>
                            <g id="Face" transform="translate(19.287879, 20.500000)">
                                <g id="Mouth/Smile" transform="translate(0.507576, 13.000000)">
                                    <mask id="mask-12" fill="white">
                                        <use xlink:href="#path-11"></use>
                                    </mask>
                                    <use id="Mouth" fill-opacity="0.699999988" fill="#000000" fill-rule="evenodd" xlink:href="#path-11"></use>
                                    <path d="M11.8977273,0.5 L15.7651515,0.5 C16.869721,0.5 17.7651515,1.3954305 17.7651515,2.5 C17.7651515,3.6045695 16.869721,4.5 15.7651515,4.5 L11.8977273,4.5 C10.7931578,4.5 9.89772727,3.6045695 9.89772727,2.5 C9.89772727,1.3954305 10.7931578,0.5 11.8977273,0.5 Z" id="Teeth" fill="#FFFFFF" fill-rule="evenodd" mask="url(#mask-12)"></path>
                                    <g id="Tongue" stroke-width="1" fill-rule="evenodd" mask="url(#mask-12)" fill="#FF4F6D">
                                        <g transform="translate(9.643939, 6.000000)">
                                            <ellipse cx="2.79166667" cy="2.75" rx="2.79166667" ry="2.75"></ellipse>
                                            <ellipse cx="5.32954545" cy="2.75" rx="2.79166667" ry="2.75"></ellipse>
                                        </g>
                                    </g>
                                </g>
                                <g id="Nose/Default" transform="translate(7.106061, 10.000000)" fill="#000000" fill-opacity="0.16">
                                    <path d="M4.06060606,2 C4.06060606,3.1045695 5.4241025,4 7.10606061,4 L7.10606061,4 C8.78801871,4 10.1515152,3.1045695 10.1515152,2" id="Nose"></path>
                                </g>
                                <g id="Eyes/Side-😒" transform="translate(0.000000, 2.000000)" fill="#000000" fill-opacity="0.599999964">
                                    <path d="M6.85165863,4 C7.74852375,4 8.61540435,4.33404522 9.15428797,4.89962574 C9.33871912,5.06608301 9.48044241,5.27751957 9.56291827,5.5159648 C9.5753867,5.5443264 9.58658314,5.57289739 9.59707791,5.60178106 C9.62191797,5.67014579 9.63127378,5.73528776 9.62833916,5.79235577 C9.63898904,5.85995338 9.64393939,5.92940721 9.64393939,6 C9.64393939,6.82842712 8.96219117,7.5 8.12121212,7.5 C7.28023307,7.5 6.59848485,6.82842712 6.59848485,6 C6.59848485,5.65641691 6.71575269,5.3398144 6.91301206,5.08691244 C6.8934565,5.08609706 6.87257957,5.08594709 6.85165863,5.08594709 C5.902397,5.08594709 5.04371899,5.39468797 4.42543608,5.8929103 C4.19937546,6.07507359 3.96419234,5.88959611 4.10125461,5.61182789 C4.5698761,4.662127 5.62506176,4 6.85165863,4 Z" id="Eye"></path>
                                    <path d="M21.5713556,4 C22.4682207,4 23.3351013,4.33404522 23.8739849,4.89962574 C24.0584161,5.06608301 24.2001394,5.27751957 24.2826152,5.5159648 C24.2950837,5.5443264 24.3062801,5.57289739 24.3167749,5.60178106 C24.3416149,5.67014579 24.3509707,5.73528776 24.3480361,5.79235577 C24.358686,5.85995338 24.3636364,5.92940721 24.3636364,6 C24.3636364,6.82842712 23.6818881,7.5 22.8409091,7.5 C21.99993,7.5 21.3181818,6.82842712 21.3181818,6 C21.3181818,5.65641691 21.4354497,5.3398144 21.632709,5.08691244 C21.6131535,5.08609706 21.5922765,5.08594709 21.5713556,5.08594709 C20.622094,5.08594709 19.763416,5.39468797 19.145133,5.8929103 C18.9190724,6.07507359 18.6838893,5.88959611 18.8209516,5.61182789 C19.2895731,4.662127 20.3447587,4 21.5713556,4 Z" id="Eye"></path>
                                </g>
                                <g id="Eyebrow/Natural/Flat-Natural" fill="#000000" fill-opacity="0.599999964">
                                    <path d="M9.78858289,2.67409746 C8.52415079,2.80879604 7.27270421,2.78330965 6.00402212,2.77576013 C5.03123903,2.77006718 4.04068119,2.67382247 3.12805737,3.12928073 C2.95329014,3.21641415 1.99894544,3.73883052 2.0308704,4.00530284 C2.05633583,4.21841372 3.04820308,4.51798017 3.22677295,4.57292753 C4.16853324,4.86280214 5.0558543,4.73307507 6.01086534,4.64310599 C7.18221922,4.53283445 8.35254006,4.54294843 9.52462142,4.46719191 C10.3139138,4.41626457 11.5271362,4.2418832 11.8846908,3.2845653 C11.9923753,2.99623875 11.8815625,2.43081377 11.7528649,2.12409595 C11.7015497,2.00189463 11.5641364,1.95999479 11.4639472,2.03494198 C11.1052653,2.30337692 10.4018939,2.6088524 9.78858289,2.67409746" id="Fill-10" transform="translate(6.979126, 3.374444) rotate(2.000000) translate(-6.979126, -3.374444) "></path>
                                    <path d="M24.2545734,2.67409746 C22.9901413,2.80879604 21.7386947,2.78330965 20.4700126,2.77576013 C19.4972295,2.77006718 18.5066717,2.67382247 17.5940479,3.12928073 C17.4192807,3.21641415 16.464936,3.73883052 16.4968609,4.00530284 C16.5223263,4.21841372 17.5141936,4.51798017 17.6927635,4.57292753 C18.6345238,4.86280214 19.5218448,4.73307507 20.4768559,4.64310599 C21.6482097,4.53283445 22.8185306,4.54294843 23.9906119,4.46719191 C24.7799043,4.41626457 25.9931267,4.2418832 26.3506813,3.2845653 C26.4583659,2.99623875 26.347553,2.43081377 26.2188554,2.12409595 C26.1675402,2.00189463 26.0301269,1.95999479 25.9299377,2.03494198 C25.5712558,2.30337692 24.8678845,2.6088524 24.2545734,2.67409746" id="Fill-10" transform="translate(21.445116, 3.374444) scale(-1, 1) rotate(2.000000) translate(-21.445116, -3.374444) "></path>
                                </g>
                            </g>
                            <g id="Top">
                                <mask id="mask-14" fill="white">
                                    <use xlink:href="#path-13"></use>
                                </mask>
                                <g id="Mask"></g>
                                <g id="Top/Short-Hair/Shaggy-Mullet" mask="url(#mask-14)">
                                    <g transform="translate(-0.253788, 0.000000)">
                                        <g id="Top/_Resources/Blank" stroke="none" fill="none" transform="translate(15.734848, 21.250000)"></g>
                                        <mask id="mask-16" fill="white">
                                            <use xlink:href="#path-15"></use>
                                        </mask>
                                        <use id="Hair" stroke="none" fill="#1D2633" fill-rule="evenodd" xlink:href="#path-15"></use>
                                        <g id="Color/Hair/Blonde-Golden" stroke="none" fill="none" mask="url(#mask-16)" fill-rule="evenodd">
                                            <g transform="translate(0.253788, 0.000000)" fill="#D6B370" id="Color">
                                                <rect x="0" y="0" width="67" height="70"></rect>
                                            </g>
                                        </g>
                                        <path d="M20.6649619,37.8350702 C22.0249396,41.0399785 24.5276457,43.6426382 27.6618822,45.1318511 L27.6627257,47.4026613 C27.0635443,47.6005509 26.4180421,47.7658303 25.701999,47.8924324 C23.4147138,48.296835 16.9907312,47.0103742 14.168659,44.8970468 C13.9533694,44.7357353 14.0625232,44.4176859 14.3388452,44.399082 C17.3190312,44.1982372 18.8337719,41.3250948 20.0507287,39.0477429 C20.1812187,38.8035536 20.3083739,38.5577967 20.4326341,38.310726 Z M44.4278725,41.6708615 C44.609888,42.2509153 44.8750988,42.7960657 45.3151428,43.1714884 C45.7265331,43.5225133 46.4604683,43.4363671 46.9757863,43.450687 C47.400138,43.462658 47.8249611,43.4640218 48.248763,43.4459137 C48.4617244,43.4368217 48.5566183,43.6994275 48.3843482,43.8204261 C48.3513552,43.8436106 48.3183623,43.8656586 48.2852909,43.8859639 C48.0185981,44.0496948 47.7421646,44.2006968 47.4605465,44.339046 C46.8200911,44.6535516 46.1440506,44.9000191 45.4349385,45.0226089 C44.9489956,45.1065566 44.4673255,45.1223896 44.0010819,45.0667732 C44.1233827,45.2468387 44.2656332,45.4106421 44.4310261,45.5519469 C44.8700729,45.9271017 45.6533484,45.8350337 46.2033096,45.8503379 C46.6561892,45.8631319 47.1095719,45.8645894 47.5618646,45.8452365 C47.7891428,45.8355196 47.8904161,46.1161772 47.7065648,46.2454934 C47.6713538,46.2702716 47.6361429,46.2938352 47.6008482,46.3155363 C47.3162265,46.4905222 47.0212092,46.6519044 46.7206588,46.7997638 C46.0371475,47.1358889 45.3156588,47.3992989 44.5588754,47.5303156 C43.1630973,47.7717815 41.8003505,47.4859415 40.7026917,46.6033197 C40.3932739,46.3545221 40.1044561,46.0709488 39.8433774,45.7616876 L39.8446977,45.1323243 C41.5440327,44.3250581 43.0577522,43.1904905 44.3043903,41.8100872 Z" id="Shadow" stroke="none" fill-opacity="0.16" fill="#000000" fill-rule="evenodd"></path>
                                    </g>
                                </g>
                            </g>
                        </g>
                    </g>
                </g>
            </g>
        </g>
    </g>
</svg>