<?xml version="1.0" encoding="UTF-8"?>
<svg width="263px" height="154px" viewBox="0 0 263 154" version="1.1" xmlns="http://www.w3.org/2000/svg" xmlns:xlink="http://www.w3.org/1999/xlink">
    <!-- Generator: Sketch 64 (93537) - https://sketch.com -->
    <title>opinion 5</title>
    <desc>Created with Sketch.</desc>
    <defs>
        <rect id="path-1" x="0" y="0" width="219" height="142"></rect>
        <filter x="-1.4%" y="-2.1%" width="104.6%" height="108.5%" filterUnits="objectBoundingBox" id="filter-2">
            <feMorphology radius="2" operator="erode" in="SourceAlpha" result="shadowSpreadOuter1"></feMorphology>
            <feOffset dx="2" dy="4" in="shadowSpreadOuter1" result="shadowOffsetOuter1"></feOffset>
            <feGaussianBlur stdDeviation="3" in="shadowOffsetOuter1" result="shadowBlurOuter1"></feGaussianBlur>
            <feColorMatrix values="0 0 0 0 0.235294118   0 0 0 0 0.235294118   0 0 0 0 0.235294118  0 0 0 0.5 0" type="matrix" in="shadowBlurOuter1"></feColorMatrix>
        </filter>
        <ellipse id="path-3" cx="30.4545455" cy="30" rx="30.4545455" ry="30"></ellipse>
        <path d="M67,-1.02140518e-14 L67,40 L63.954,39.999 C63.9545455,56.4028571 50.5909168,69.7310571 34.0036216,69.9959809 L33.5,70 C16.680419,70 3.04545455,56.5685425 3.04545455,40 C3.04545455,39.9996666 3.04545455,39.9993333 3.04545456,39.9989999 L-8.11472102e-15,40 L-8.11472102e-15,-1.02140518e-14 L67,-1.02140518e-14 Z" id="path-5"></path>
        <path d="M25.3787879,0 C33.2279257,-1.44186322e-15 39.5909091,6.3629834 39.5909091,14.2121212 L39.5908541,15.5420985 C41.0312357,15.7837215 42.1287879,17.0364145 42.1287879,18.5454545 L42.1287879,21.9545455 C42.1287879,23.4979608 40.9806626,24.7732171 39.4918956,24.9728309 C38.9087216,29.9145621 35.7887212,34.0805797 31.4696977,36.1323243 L31.4700066,40.772468 C42.0929031,41.2695127 50.5757894,49.951612 50.7546927,60.6547931 L50.7575758,61 L0,61 C-1.3301058e-15,50.1388619 8.55069526,41.2748457 19.2875692,40.772468 L19.2868822,36.1318511 C14.968375,34.0799393 11.8488093,29.9141822 11.2653807,24.9717751 C9.77707049,24.7733918 8.62878788,23.4980665 8.62878788,21.9545455 L8.62878788,18.5454545 C8.62878788,17.0364564 9.72627912,15.7837911 11.1666016,15.5421186 L11.1666667,14.2121212 C11.1666667,6.3629834 17.5296501,1.44186322e-15 25.3787879,0 Z" id="path-7"></path>
        <path d="M49.7428201,10.5696917 L49.7424242,27.5 L17.2575758,27.5 L17.2565794,10.5700867 C19.2406431,9.26487659 21.4678391,8.29906057 23.8555648,7.75524126 L23.8551224,18.4991398 L43.1431224,18.4991398 L43.1438972,7.75511873 C45.5315855,8.29886065 47.7587585,9.26458371 49.7428201,10.5696917 Z" id="path-9"></path>
        <rect id="path-11" x="0" y="0" width="67" height="70"></rect>
        <path d="M27.5579856,0.0494378338 C41.9973032,-0.0187618285 43.2184101,11.7632109 44.0621298,13.8062466 C45.0442889,16.1845739 47.4906578,20.2198424 48.0980163,22.7217074 C48.3735259,23.8565441 48.527787,24.9838304 48.3937594,26.1458306 C48.3630289,26.4123456 48.1205317,27.2027348 48.2728658,27.3603353 C48.4906669,27.5856277 49.2112111,27.8143915 49.5179076,27.9895225 C50.0810466,28.3111456 50.6532121,28.625392 51.1955091,28.9719656 C52.6080474,29.8746539 53.5149016,31.2818201 54.0866614,32.6833887 C54.7760693,34.3732551 54.6654699,36.1321586 53.8161721,37.8001554 C53.2754471,38.8621365 52.4324373,39.9178691 51.3518493,40.6428228 C51.021471,40.8644703 51.0741592,40.7762973 51.035315,41.1112852 C51.0115825,41.3158361 51.0369377,41.5482882 51.0332866,41.752492 C51.0271506,42.0904306 51.0096048,42.4270674 50.9785193,42.7642683 C50.8289236,44.3875277 50.5034136,46.0611655 49.9348992,47.6242833 C49.5759203,48.611326 49.1308351,49.6045738 48.2769226,50.3691447 C47.554705,51.0158623 46.5164095,51.4749085 45.5226378,51.7490171 C45.1784662,51.8438725 45.1834866,51.9446293 45.1635067,52.0429994 C45.1366809,52.1753457 45.170809,52.8079174 45.1994604,52.9791865 C45.3048873,53.6101527 45.5469787,54.2849016 45.7328324,54.9014182 C46.2369952,56.5738844 46.9776714,58.2200549 47.2968426,59.932008 C47.4501402,60.7542037 47.4375133,61.6146714 47.241619,62.4354785 C47.0842646,63.0946497 46.7980044,63.7405428 46.4258407,64.3366651 C46.0005833,65.0177927 44.7537666,66.0947875 43.7134934,65.6309681 C45.1141147,64.9723611 45.1751194,63.5661929 44.696971,63.1727557 C44.2069056,62.7695552 43.535297,62.7462536 42.884429,62.7483798 C42.3439068,62.7501589 41.8096727,62.7910344 41.2737145,62.8573811 C40.1002758,63.0026148 38.7525961,63.3658077 37.5794616,63.0956477 C36.9120113,62.9419525 36.2865999,62.6365581 35.6844138,62.3570688 C35.6316519,62.3325742 35.3291701,62.1908933 34.9086265,61.8996305 C30.4071455,58.4094811 31.369432,52.633546 35.1594238,45.7851828 C34.7785181,45.7618436 34.6482389,45.75 34.2613636,45.75 L34.2613636,45.75 L33.2460008,45.7491429 L33.2470402,41.1319312 C37.9595217,38.8929011 41.2443672,34.1367592 41.3640422,28.6010401 L41.3674242,28.2878788 L41.3674242,19.2121212 C41.3674242,18.7681918 41.3470705,18.3290162 41.3072452,17.8954768 C40.4591005,17.4285791 39.2721227,16.9941539 38.6410687,16.4283215 C38.0479091,15.896504 37.3322839,15.981405 37.0481535,15.3080926 L37.0481535,15.3080926 L36.4018494,15.5345197 C35.9615817,15.4002183 33.7309832,14.6502792 33.362065,14.5024626 L33.362065,14.5024626 L33.2227635,14.2332245 L32.7997373,14.3928534 C32.3478569,14.3753067 30.4849595,14.3106756 30.4849595,14.3106756 C29.8171542,14.3028302 27.0007999,14.3651135 26.3520617,14.417218 C26.3520617,14.417218 26.0418154,14.1882656 25.6062638,13.7474675 L25.6062638,13.7474675 L25.2687353,14.553177 C25.2687353,14.553177 22.2434034,15.0010584 21.695731,15.0425532 L21.695731,15.0425532 L21.4261038,14.553837 L20.7316248,15.2985431 C19.7441919,15.5226946 17.2208422,16.0047345 16.0897974,16.301136 C14.8517536,16.6256438 13.6421076,16.9938335 12.4332223,17.3840551 L13.0880848,17.1749988 C12.9925953,17.8402735 12.9431818,18.5204268 12.9431818,19.2121212 L12.9431818,19.2121212 L12.9431818,28.2878788 C12.9431818,33.9572885 16.2628339,38.8513519 21.0643933,41.1323243 L21.0640008,45.7491429 L20.0492424,45.75 C18.7971868,45.75 17.574543,45.8740477 16.3932856,46.1103475 L15.8896011,46.218457 C15.8827807,46.2285408 15.875912,46.2386548 15.8689954,46.2487986 L15.8577758,46.2505736 C15.8415049,46.278861 15.8251182,46.3071016 15.8086164,46.3352955 C14.8416578,47.724835 13.0233528,49.635019 11.5753627,50.8341516 C11.5919846,50.854054 11.6087299,50.8739008 11.6255984,50.8936919 C11.5190207,51.0006051 11.4299186,51.1091805 11.3754692,51.2155098 C11.1509743,51.653858 11.3181158,52.4148273 11.4240498,52.8897117 C11.4987462,53.2246562 11.6271957,53.5471038 11.7965684,53.8548414 C12.6079349,55.328875 14.6253976,56.018681 16.7500113,55.6869475 C16.1081697,56.2178513 14.834223,56.6427045 13.9701684,56.6728621 C12.7957662,56.7139111 11.3599518,56.2671882 10.3508148,55.77716 C10.5040617,56.6772013 11.0327176,57.1806812 11.5241521,57.9266368 C10.3129341,57.8651934 9.35491321,56.541861 8.94902714,56.01304 C8.68893348,55.674277 8.44760267,55.3011473 8.30556283,54.9133945 C7.74800195,56.0404639 7.43425669,59.0725818 7.71093265,59.9212902 C7.1779156,59.6858006 6.68095364,59.433605 6.17745005,59.1440922 C1.87913485,56.6721678 1.46630145,52.4780932 1.54302629,51.0040162 C1.62360512,49.455565 2.16782917,48.1031598 2.81550244,46.6507789 C3.23355901,45.7133335 3.7156121,44.7670794 3.94893067,43.7820761 C4.06728875,43.282328 3.98310948,43.1830032 3.66921208,42.7775897 C3.14912619,42.1058782 2.55226474,41.4798587 2.01519086,40.8180406 C1.40215279,40.0626255 0.879683508,39.2760982 0.514923577,38.4082539 C-0.129909911,36.8739051 -0.151461833,35.1127019 0.351585368,33.5314027 C1.15341826,31.0109225 4.3395273,28.4895225 5.73628723,26.7589107 C4.29091263,22.2940803 6.43384416,17.478031 8.55670906,14.9434174 C10.5115384,12.6094315 13.118668,0.118232425 27.5579856,0.0494378338 Z" id="path-13"></path>
        <filter x="-7.4%" y="-20.0%" width="116.0%" height="144.0%" filterUnits="objectBoundingBox" id="filter-15">
            <feOffset dx="0" dy="1" in="SourceAlpha" result="shadowOffsetOuter1"></feOffset>
            <feColorMatrix values="0 0 0 0 0   0 0 0 0 0   0 0 0 0 0  0 0 0 0.16 0" type="matrix" in="shadowOffsetOuter1" result="shadowMatrixOuter1"></feColorMatrix>
            <feMerge>
                <feMergeNode in="shadowMatrixOuter1"></feMergeNode>
                <feMergeNode in="SourceGraphic"></feMergeNode>
            </feMerge>
        </filter>
    </defs>
    <g id="Portfolio-High-f-i" stroke="none" stroke-width="1" fill="none" fill-rule="evenodd">
        <g id="Case-studies-price-my-airbnb" transform="translate(-159.000000, -2835.000000)">
            <g id="Unexpected" transform="translate(156.000000, 2831.000000)">
                <g id="opinion-5">
                    <g id="Note-/-Square-/-Yellow-Copy-3" transform="translate(43.000000, 10.000000)">
                        <g id="Rectangle">
                            <use fill="black" fill-opacity="1" filter="url(#filter-2)" xlink:href="#path-1"></use>
                            <use fill="#F1E41B" fill-rule="evenodd" xlink:href="#path-1"></use>
                        </g>
                        <rect id="Rectangle" fill="#EBDE0E" x="0" y="0" width="219" height="39"></rect>
                        <text id="Megan" font-family="Helvetica-Bold, Helvetica" font-size="18" font-weight="bold" fill="#2D2D2D">
                            <tspan x="25" y="31">Megan</tspan>
                        </text>
                        <text id="“I’ll-pay-more-for-a" font-family="Helvetica" font-size="16" font-weight="normal" fill="#2D2D2D">
                            <tspan x="25" y="66">“I’ll pay more for a hot </tspan>
                            <tspan x="25" y="85">tub &amp; cleanliness”</tspan>
                        </text>
                    </g>
                    <g id="Avataaar/Circle">
                        <g id="Circle" stroke-width="1" fill-rule="evenodd" transform="translate(3.045455, 10.000000)">
                            <mask id="mask-4" fill="white">
                                <use xlink:href="#path-3"></use>
                            </mask>
                            <use id="Circle-Background" fill="#E6E6E6" xlink:href="#path-3"></use>
                            <g id="Color/Palette/Pastel-Red" mask="url(#mask-4)" fill="#FFAFB9">
                                <rect id="🖍Color" x="0" y="0" width="60.9090909" height="60"></rect>
                            </g>
                        </g>
                        <mask id="mask-6" fill="white">
                            <use xlink:href="#path-5"></use>
                        </mask>
                        <g id="Mask"></g>
                        <g id="Avataaar" stroke-width="1" fill-rule="evenodd" mask="url(#mask-6)">
                            <g id="Body" transform="translate(8.121212, 9.000000)">
                                <mask id="mask-8" fill="white">
                                    <use xlink:href="#path-7"></use>
                                </mask>
                                <use fill="#D0C6AC" xlink:href="#path-7"></use>
                                <g id="Skin/👶🏼-04-Light" mask="url(#mask-8)" fill="#EDB98A">
                                    <g transform="translate(-8.121212, 0.000000)" id="Color">
                                        <rect x="0" y="0" width="67" height="61"></rect>
                                    </g>
                                </g>
                                <path d="M11.1666667,23.2878788 C11.1666667,31.1370166 17.5296501,37.5 25.3787879,37.5 C33.2279257,37.5 39.5909091,31.1370166 39.5909091,23.2878788 L39.5909091,23.2878788 L39.5909091,25.2878788 C39.5909091,33.1370166 33.2279257,39.5 25.3787879,39.5 C17.5296501,39.5 11.1666667,33.1370166 11.1666667,25.2878788 Z" id="Neck-Shadow" fill-opacity="0.100000001" fill="#000000" mask="url(#mask-8)"></path>
                            </g>
                            <g id="Clothing/Overall" transform="translate(0.000000, 42.500000)">
                                <mask id="mask-10" fill="white">
                                    <use xlink:href="#path-9"></use>
                                </mask>
                                <use id="Overall" fill="#B7C1DB" fill-rule="evenodd" xlink:href="#path-9"></use>
                                <g id="Color/Palette/Gray-01" mask="url(#mask-10)" fill="#E6E6E6" fill-rule="evenodd">
                                    <rect id="🖍Color" x="0" y="0" width="67" height="27.5"></rect>
                                </g>
                                <ellipse id="Button" fill="#F4F4F4" fill-rule="evenodd" cx="20.5568182" cy="20.75" rx="1.26893939" ry="1.25"></ellipse>
                                <ellipse id="Button" fill="#F4F4F4" fill-rule="evenodd" cx="46.4431818" cy="20.75" rx="1.26893939" ry="1.25"></ellipse>
                            </g>
                            <g id="Face" transform="translate(19.287879, 20.500000)" fill="#000000">
                                <g id="Mouth/Default" transform="translate(0.507576, 13.000000)" fill-opacity="0.699999988">
                                    <path d="M10.1515152,3.75 C10.1515152,5.68299662 11.742261,7.25 13.7045455,7.25 L13.7045455,7.25 C15.6668299,7.25 17.2575758,5.68299662 17.2575758,3.75" id="Mouth"></path>
                                </g>
                                <g id="Nose/Default" transform="translate(7.106061, 10.000000)" fill-opacity="0.16">
                                    <path d="M4.06060606,2 C4.06060606,3.1045695 5.4241025,4 7.10606061,4 L7.10606061,4 C8.78801871,4 10.1515152,3.1045695 10.1515152,2" id="Nose"></path>
                                </g>
                                <g id="Eyes/Side-😒" transform="translate(0.000000, 2.000000)" fill-opacity="0.599999964">
                                    <path d="M6.85165863,4 C7.74852375,4 8.61540435,4.33404522 9.15428797,4.89962574 C9.33871912,5.06608301 9.48044241,5.27751957 9.56291827,5.5159648 C9.5753867,5.5443264 9.58658314,5.57289739 9.59707791,5.60178106 C9.62191797,5.67014579 9.63127378,5.73528776 9.62833916,5.79235577 C9.63898904,5.85995338 9.64393939,5.92940721 9.64393939,6 C9.64393939,6.82842712 8.96219117,7.5 8.12121212,7.5 C7.28023307,7.5 6.59848485,6.82842712 6.59848485,6 C6.59848485,5.65641691 6.71575269,5.3398144 6.91301206,5.08691244 C6.8934565,5.08609706 6.87257957,5.08594709 6.85165863,5.08594709 C5.902397,5.08594709 5.04371899,5.39468797 4.42543608,5.8929103 C4.19937546,6.07507359 3.96419234,5.88959611 4.10125461,5.61182789 C4.5698761,4.662127 5.62506176,4 6.85165863,4 Z" id="Eye"></path>
                                    <path d="M21.5713556,4 C22.4682207,4 23.3351013,4.33404522 23.8739849,4.89962574 C24.0584161,5.06608301 24.2001394,5.27751957 24.2826152,5.5159648 C24.2950837,5.5443264 24.3062801,5.57289739 24.3167749,5.60178106 C24.3416149,5.67014579 24.3509707,5.73528776 24.3480361,5.79235577 C24.358686,5.85995338 24.3636364,5.92940721 24.3636364,6 C24.3636364,6.82842712 23.6818881,7.5 22.8409091,7.5 C21.99993,7.5 21.3181818,6.82842712 21.3181818,6 C21.3181818,5.65641691 21.4354497,5.3398144 21.632709,5.08691244 C21.6131535,5.08609706 21.5922765,5.08594709 21.5713556,5.08594709 C20.622094,5.08594709 19.763416,5.39468797 19.145133,5.8929103 C18.9190724,6.07507359 18.6838893,5.88959611 18.8209516,5.61182789 C19.2895731,4.662127 20.3447587,4 21.5713556,4 Z" id="Eye"></path>
                                </g>
                                <g id="Eyebrow/Natural/Default-Natural" fill-opacity="0.599999964">
                                    <path d="M6.61016205,1.55262163 C5.14786498,1.74787336 2.86628324,3.00641915 3.05502812,4.4594801 C3.06123038,4.50703825 3.13423821,4.52176843 3.16580161,4.48200975 C3.79782125,3.68406062 8.67798023,2.50665626 10.4543453,2.74892352 C10.6169208,2.7711482 10.724482,2.60563702 10.6137209,2.50256194 C9.66468675,1.6198536 7.92011482,1.37643526 6.61016205,1.55262163" id="Eyebrow" transform="translate(6.851512, 3.001987) rotate(5.000000) translate(-6.851512, -3.001987) "></path>
                                    <path d="M21.5851676,1.55262163 C20.1228706,1.74787336 17.8412888,3.00641915 18.0300337,4.4594801 C18.036236,4.50703825 18.1092438,4.52176843 18.1408072,4.48200975 C18.7728268,3.68406062 23.6529858,2.50665626 25.4293509,2.74892352 C25.5919264,2.7711482 25.6994876,2.60563702 25.5887265,2.50256194 C24.6396923,1.6198536 22.8951204,1.37643526 21.5851676,1.55262163" id="Eyebrow" transform="translate(21.826518, 3.001987) scale(-1, 1) rotate(5.000000) translate(-21.826518, -3.001987) "></path>
                                </g>
                            </g>
                            <g id="Top">
                                <mask id="mask-12" fill="white">
                                    <use xlink:href="#path-11"></use>
                                </mask>
                                <g id="Mask"></g>
                                <g id="Top/Long-Hair/Curvy" mask="url(#mask-12)">
                                    <g transform="translate(-0.253788, 0.000000)">
                                        <path d="M25.607173,10.6162006 C23.120487,12.1180326 20.9084485,14.0818464 19.4368833,16.34006 C18.7359641,17.4157065 18.1593361,18.5498946 17.6220594,19.6893917 C17.3524829,20.2611834 17.1065374,20.8400059 16.8707848,21.4223403 C16.7219497,21.7898704 16.4933979,22.1862265 16.7083593,22.5719611 C16.8394964,22.4964499 16.8893955,22.5235973 16.8069404,22.6588354 C17.4901109,22.8423314 18.4398153,22.3250754 19.0317072,22.1340551 C20.2405925,21.7438335 21.4502384,21.3756438 22.6882822,21.051136 C23.8193271,20.7547345 26.3426767,20.2726946 27.3301097,20.0485431 L28.0245887,19.303837 L28.2942159,19.7925532 C28.8418882,19.7510584 31.8672202,19.303177 31.8672202,19.303177 L32.2047486,18.4974675 C32.6403003,18.9382656 32.9505465,19.167218 32.9505465,19.167218 C33.5992847,19.1151135 36.4156391,19.0528302 37.0834444,19.0606756 C37.0834444,19.0606756 38.9463418,19.1253067 39.3982222,19.1428534 L39.8212484,18.9832245 L39.9605498,19.2524626 C40.329468,19.4002792 42.5600665,20.1502183 43.0003343,20.2845197 L43.6466383,20.0580926 C43.9307687,20.731405 44.6463939,20.646504 45.2395535,21.1783215 C46.0240942,21.8817772 47.6678719,22.3821295 48.4526154,22.993906 C48.7336017,23.212986 48.9961802,23.4418753 49.26028,23.6753851 C49.553589,23.9346467 49.5102823,23.972606 49.6055671,24.2700535 C49.6341171,24.3590433 49.9240792,24.8197202 50.0476604,24.8574035 C50.4875225,24.9915141 47.4707099,17.2358933 46.6425583,16.2442915 C45.7878344,15.2207577 40.2443913,8.33078119 32.8939691,8.55636586" id="Top-Shadow" fill-opacity="0.16" fill="#000000"></path>
                                        <g id="Hair" stroke-width="1" fill="none" transform="translate(6.598485, 4.000000)">
                                            <mask id="mask-14" fill="white">
                                                <use xlink:href="#path-13"></use>
                                            </mask>
                                            <use id="Hair-Mask" fill="#361A0A" xlink:href="#path-13"></use>
                                            <g id="Color/Hair/Auburn" mask="url(#mask-14)" fill="#A55728">
                                                <g transform="translate(-6.344697, -4.000000)" id="Color">
                                                    <rect x="0" y="0" width="67" height="70"></rect>
                                                </g>
                                            </g>
                                            <path d="M15.9072861,46.115533 C17.7030857,43.6888511 15.7726525,36.9467284 14.2445593,34.4501483 C18.5176281,32.5344269 26.9557176,32.8883667 39.5588278,35.5119677 C38.3420705,37.7250869 37.8457235,39.7008817 38.0697868,41.4393522 C36.9182988,42.8331335 35.9668953,44.2818056 35.2155763,45.7853684 L26.3657475,47.9366972 C20.7732614,48.6000946 17.2871076,47.9930399 15.9072861,46.115533 Z" id="Shadow" fill-opacity="0.24" fill="#000000" mask="url(#mask-14)"></path>
                                        </g>
                                        <path d="M45.6584012,54.4346392 C45.4905497,54.5320981 45.5237651,55.027941 45.5197589,55.1673168 C45.5036837,55.7250803 45.5085012,56.2962954 45.5445056,56.852627 C45.608705,57.8458749 46.1920775,58.7113326 47.0498439,59.372847 C47.9590815,60.0740218 49.1762326,60.3931715 49.8362792,61.3299227 C50.157986,61.7863654 50.3293871,62.3177031 50.3018514,62.8544214 C50.2876525,63.1310034 50.2170636,63.4090173 50.1407444,63.6780491 C50.0905411,63.8550459 49.911787,64.1450361 49.9119391,64.3176937 C49.9198499,63.3460552 49.9331868,62.2148201 49.242866,61.3995238 C48.5498577,60.5810164 47.341378,60.2926751 46.4947172,59.6207033 C45.6627116,58.9603605 45.0315699,58.0972894 44.8894286,57.1245661 C44.774671,56.3386029 44.8312638,54.9679729 45.6584012,54.4346392 Z M44.9219238,60.6682261 C45.0225333,60.7981424 45.5740596,60.9560901 45.7360794,61.0456516 C46.1057582,61.2500289 46.4632666,61.4823075 46.7565248,61.764921 C47.3444105,62.3315365 47.7233187,63.1262216 47.7506516,63.8884058 C47.7506516,63.7082848 47.3328486,63.2741456 47.2155047,63.1202768 C47.0206246,62.8646533 46.8004907,62.6279921 46.5763,62.3910706 C46.0298447,61.8134335 45.4623446,61.2499855 44.9219238,60.6682261 Z M12.8316251,50.6234536 C12.8317772,50.7474686 13.0387264,51.0028752 13.0952685,51.1321406 C13.2276226,51.4344976 13.3354329,51.7518682 13.3891859,52.0724065 C13.4952214,52.7045009 13.3560721,53.3573802 13.118291,53.9625715 C12.6363393,55.1893128 11.8813628,56.2757237 10.9323683,57.2875 C11.271266,56.8505838 11.4062063,56.14034 11.6446467,55.6530454 C11.8894258,55.1527766 12.1521057,54.6602749 12.3679798,54.150156 C12.855104,52.9989605 12.8121016,51.822424 12.8316251,50.6234536 Z M9.81770295,42.2128402 C10.1618745,42.6418157 10.7822148,42.9789732 11.1669039,43.4049546 C11.6487542,43.9384185 12.0165568,44.5499016 12.4110837,45.1320082 C13.1311207,46.1944666 14.0727115,47.152263 14.6884879,48.2640583 C15.4066486,49.5606611 15.7226252,50.9657445 15.7863174,52.3989894 C15.8164901,53.0768192 15.8148674,53.7651499 15.7221181,54.4411138 C15.6724219,54.8029181 15.5927051,55.1625528 15.5016292,55.5189331 C15.4670954,55.6541866 15.2883413,56.0005433 15.2536046,56.2116464 C15.1800746,53.5763938 15.6227764,50.9409241 14.2315872,48.4857058 C13.572859,47.3230547 12.5602737,46.3318029 11.7752767,45.2312028 C11.0693371,44.2415565 10.3798785,43.2709594 9.81770295,42.2128402 Z M11.2099976,53.4234666 C11.10452,53.598207 11.2603531,54.0400266 11.208882,54.2667943 C11.1244999,54.6388825 10.9119219,54.9996454 10.6381364,55.3002233 C10.7398108,55.1632341 10.687072,54.5045402 10.7408757,54.3322297 C10.8403188,54.0139044 11.0123792,53.7067743 11.2099976,53.4234666 Z M50.3784089,52.0423184 C51.0817622,52.0105987 51.861891,52.1146532 52.5126576,52.3355196 C52.2887712,52.2755515 51.7532693,52.4185723 51.5178716,52.4448246 C51.1888118,52.4815344 50.8589914,52.5194592 50.5291202,52.5491394 C50.1247047,52.5855021 49.7166381,52.6056795 49.3107013,52.6048551 C49.0215506,52.6042476 48.4682494,52.4696449 48.2001942,52.5494432 C48.882452,52.308356 49.6369721,52.0760775 50.3784089,52.0423184 Z M49.4182784,49.1182992 C51.5270705,48.7028621 53.5854058,49.5405922 54.5343496,51.1535243 C54.2943372,50.8521653 53.655944,50.5726327 53.2970664,50.3691666 C52.8521841,50.1170144 52.3683561,49.9235719 51.8524285,49.7954347 C50.813068,49.5373378 49.5320725,49.3807353 48.4436752,49.4413108 C48.705493,49.4374489 49.1371906,49.1739714 49.4182784,49.1182992 Z M12.6421609,36.664616 C12.6427187,37.1422775 13.0880067,37.8200639 13.2418114,38.2816703 C13.452361,38.9135044 13.6196546,39.5579222 13.9365946,40.1585572 C14.4759505,41.1807477 15.4488295,41.9692276 16.2625287,42.8303896 C17.1640582,43.7844108 18.0251716,44.771063 18.6615364,45.8746573 C18.9443991,46.3651629 19.1793404,46.8662128 19.327719,47.4001974 C19.4060159,47.6818997 19.4690489,47.9673771 19.5232076,48.2533751 C19.5407027,48.345627 19.5440496,48.6774907 19.5885226,48.8209887 C19.0264992,47.748203 18.5975399,46.6121948 17.9281119,45.5855349 C17.2672539,44.5720229 16.4187674,43.6401317 15.5307776,42.7652578 C14.5931422,41.8414376 13.6501315,40.9697747 13.1471858,39.8035655 C12.7094028,38.7884046 12.5403344,37.7490309 12.6421609,36.664616 Z M14.3271002,42.954296 C14.3858229,43.1024804 14.89886,43.419287 15.0315184,43.5448641 C15.3002329,43.7992293 15.5359855,44.0706476 15.7437967,44.3635884 C15.9715879,44.6847342 16.1387294,45.0225426 16.2881222,45.3760156 C16.4167745,45.6803252 16.4735195,46.2465936 16.6757525,46.5005249 C16.0213348,45.7140844 15.3475457,44.9712096 14.8962231,44.078111 C14.7423677,43.7724563 14.503471,43.3223054 14.3271002,42.954296 Z M50.4263759,45.9239118 C50.7347458,45.8809969 51.0246572,45.9051229 51.3229358,45.9770672 C51.5112742,46.0224555 51.9115821,46.2708759 52.0963709,46.2681856 C51.3529563,46.2859764 50.6822605,46.2045726 49.9667368,46.0396822 C50.0053781,46.0500529 50.4131911,45.9257342 50.4263759,45.9239118 Z M50.7750606,43.7744957 C51.8623423,43.632256 53.1840583,44.559808 53.3300535,45.4547725 C53.2085514,45.1482065 52.562298,44.8946224 52.270054,44.7421421 C51.807423,44.500621 51.3655325,44.2081141 50.8639052,44.0241745 C50.8152232,44.0079892 50.3731299,43.8848421 50.2707963,43.944246 C50.4224204,43.8775088 50.6083755,43.7962352 50.7750606,43.7744957 Z M51.061336,41.4299969 C51.9891843,41.3006881 52.8646487,41.7453281 53.4523823,42.3177583 C53.7664318,42.6236734 54.0455418,42.9751069 54.2301784,43.3510137 C54.3689221,43.6336272 54.3686685,44.0968391 54.5550293,44.3308967 C54.0988892,43.7262696 53.520537,43.2378034 52.9499436,42.7148838 C52.5531854,42.3512137 51.7602775,41.419713 51.061336,41.4299969 Z M13.9009503,26.0502247 C13.8294486,26.2337738 14.0173814,26.6720786 14.0469455,26.8743297 C14.0985687,27.2276725 14.1448673,27.5834019 14.1681434,27.9393049 C14.2152533,28.6599194 14.2148984,29.3764985 14.3160656,30.0938152 C14.5334611,31.6351501 14.9063854,33.1163434 15.4471105,34.594369 C15.9702897,36.0246199 16.5687739,37.4590364 17.4297858,38.7669645 C18.2321765,39.9858085 19.1871548,41.1230751 19.9565838,42.3571931 C19.7543,42.120315 19.3293468,41.832451 19.1662622,41.6627875 C18.8981562,41.3838189 18.647089,41.0963455 18.4090037,40.7983711 C17.9210682,40.1874955 17.4860744,39.5484584 17.0655837,38.9023916 C16.2402212,37.6342107 15.6214021,36.2585907 15.0850889,34.8826669 C14.0319859,32.180677 12.975384,28.9042176 13.9009503,26.0502247 Z M57.384903,37.9645036 C57.5195899,38.1313901 57.9759328,38.2894679 58.1600115,38.4477627 C58.4655924,38.7104158 58.6704118,39.0368988 58.838821,39.3749676 C59.2273134,40.1548559 59.2996264,41.0543331 58.9883153,41.8750969 C59.039837,41.6989245 58.8865395,41.3289625 58.8433849,41.1504035 C58.7489115,40.7596566 58.6012428,40.3905624 58.446931,40.014916 C58.1473847,39.2861003 57.9051918,38.6030201 57.384903,37.9645036 Z M14.1333865,35.7422884 C14.1611758,35.8729424 14.3665022,36.0988857 14.431158,36.2061946 C14.5868896,36.4647254 14.7409985,36.72356 14.8848639,36.9871677 C15.1633655,37.4974168 15.3957713,38.0249359 15.6772647,38.5338833 C16.1943587,39.4688553 16.8522247,40.3738434 17.4746442,41.260303 C17.1298642,40.8273788 16.4895946,40.4860991 16.093445,40.0697941 C15.7342632,39.692412 15.4561673,39.2695549 15.2036802,38.8349384 C14.6313119,37.849805 14.2551929,36.8436263 14.1333865,35.7422884 Z M54.0442842,32.9096276 C53.7537643,33.0782932 53.4690254,33.7129043 53.2826647,33.976729 C53.0027432,34.3732905 52.7036533,34.7735403 52.4670893,35.1894547 C51.9739813,36.0564311 51.8310287,37.0937655 51.6472542,38.031992 C51.64553,38.0448794 51.6421324,38.0705676 51.6368585,38.1096206 C51.6363514,37.7282898 51.4642403,37.309338 51.4438547,36.9172459 C51.4154062,36.3696362 51.4952244,35.8384287 51.7187051,35.3192842 C52.1601392,34.2939261 52.9883922,33.517379 54.0442842,32.9096276 Z M51.3716938,31.9338751 C51.2759019,32.0982014 51.2999893,32.4415207 51.2647456,32.6204702 C51.2045523,32.9266456 51.125292,33.2304345 51.0136784,33.5269769 C50.8932919,33.8467342 50.7362418,34.1576394 50.561088,34.4589983 C50.4519593,34.6467131 50.0588015,35.040671 50.059055,35.2483028 C50.0381624,34.0237744 50.4976493,32.9144958 51.3716938,31.9338751 Z M25.2184017,10.7513704 C25.0606417,10.9849507 24.9206809,11.6934154 24.8340676,11.8797416 C24.6077978,12.366689 24.3379677,12.8333723 24.0166666,13.2808762 C23.2906965,14.2920016 22.5117339,15.2316601 21.5331246,16.0829286 C21.8935741,15.7714593 22.0855637,15.0352669 22.3341461,14.6380546 C22.6196964,14.181742 22.9478434,13.7432637 23.2590532,13.2990142 C23.8762495,12.4179786 24.4586585,11.553085 25.2184017,10.7513704 Z M22.2043478,12.6770562 C22.058961,12.8026767 21.9934432,13.3207797 21.8935437,13.4957805 C21.6918177,13.8488196 21.3979509,14.1532594 21.0825322,14.43865 C21.2509922,14.2931559 21.2782237,13.7379091 21.3972917,13.5304509 C21.5877093,13.1988042 21.8779249,12.9184905 22.2043478,12.6770562 Z M31.1562451,10.4737774 C30.9746005,10.7038863 30.9271862,11.2030269 30.79397,11.4721455 C30.5975179,11.8689673 30.3346352,12.2411423 30.0427461,12.5933136 C29.7293051,12.9714333 29.3729124,13.3258175 28.989491,13.6541231 C28.7297016,13.8765082 28.2321311,14.1264473 28.0342084,14.3816803 C28.9227561,12.9536859 29.9492868,11.7219545 31.1562451,10.4737774 Z M32.5840117,11.9182044 C32.5320843,11.9731824 32.4312213,12.4289742 32.3746285,12.5184924 C32.1913104,12.8086127 31.8671695,13.0452305 31.5395803,13.212898 C31.684257,13.1288907 31.8196538,12.7147987 31.9298982,12.5753362 C32.1154983,12.3405843 32.3421231,12.1138599 32.5840117,11.9182044 Z M45.137793,11.5583094 C45.1379958,11.7184701 45.4380493,11.9989573 45.4653315,12.2012085 C45.507269,12.5119401 45.4042254,12.8622889 45.2207045,13.1367013 C45.2541733,13.059116 45.1055411,12.5410563 45.1007237,12.4462443 C45.0856627,12.1529563 45.1182187,11.8514238 45.137793,11.5583094 Z M43.5270581,10.495825 C43.5271596,10.5787041 43.7597682,10.8189668 43.8122534,10.9093528 C43.9432891,11.1348187 44.0467384,11.3714365 44.0821849,11.6231113 C44.1223983,11.9084152 44.0732092,12.1876441 43.9853788,12.4651373 C43.9331978,12.6300711 43.6849196,12.9487435 43.6851225,13.0973619 C43.6445541,12.2227918 43.4481528,11.3824581 43.5270581,10.495825 Z" id="Lights" fill-opacity="0.6" fill="#FFFFFF"></path>
                                        <g id="Top/_Resources/Kurt" fill="none" transform="translate(15.734848, 21.250000)" stroke-width="1">
                                            <g id="Kurts" filter="url(#filter-15)" transform="translate(1.268939, 0.500000)">
                                                <path d="M16.75,2.77777778 C13.9488312,2.77777778 13.5448024,0.506650276 7.78382353,0.185185185 C2.02662888,-0.0707999879 0.206894275,1.61237138 0.197058824,2.77777778 C0.206389666,3.85106987 -0.0894078369,6.64031654 3.64558824,9.90740741 C7.39455918,13.7855202 11.235295,12.4704575 12.6117647,11.2037037 C13.9926475,10.6182779 15.5674358,5.36490877 16.75,5.37037037 C17.9325642,5.37583198 19.5073525,10.6182779 20.8882353,11.2037037 C22.264705,12.4704575 26.1054408,13.7855202 29.8544118,9.90740741 C33.5894078,6.64031654 33.2936103,3.85106987 33.3029412,2.77777778 C33.2931057,1.61237138 31.4733711,-0.0707999879 25.7161765,0.185185185 C19.9551976,0.506650276 19.5511688,2.77777778 16.75,2.77777778 Z" id="It!" fill="#F4F4F4" fill-rule="nonzero"></path>
                                                <path d="M13.9911765,5.37037037 C14.0878573,3.45583727 10.7138201,1.41060815 7.09411765,1.48148148 C3.47621994,1.5561272 3.00530382,3.84467454 2.95588235,4.72222222 C2.86735346,6.75551582 5.07942811,11.32594 9.16323529,11.2037037 C13.2470353,11.076462 13.9353004,6.63360763 13.9911765,5.37037037 Z" id="Did" fill="#2F383B" fill-rule="nonzero"></path>
                                                <path d="M30.5441176,5.37037037 C30.6407985,3.45583727 27.2667613,1.41060815 23.6470588,1.48148148 C20.0291611,1.5561272 19.558245,3.84467454 19.5088235,4.72222222 C19.4202946,6.75551582 21.6323693,11.32594 25.7161765,11.2037037 C29.7999765,11.076462 30.4882416,6.63360763 30.5441176,5.37037037 Z" id="Courtney" fill="#2F383B" fill-rule="nonzero" transform="translate(25.026471, 6.342593) scale(-1, 1) translate(-25.026471, -6.342593) "></path>
                                            </g>
                                        </g>
                                    </g>
                                </g>
                            </g>
                        </g>
                    </g>
                </g>
            </g>
        </g>
    </g>
</svg>