<?xml version="1.0" encoding="UTF-8"?>
<svg width="259px" height="154px" viewBox="0 0 259 154" version="1.1" xmlns="http://www.w3.org/2000/svg" xmlns:xlink="http://www.w3.org/1999/xlink">
    <!-- Generator: sketchtool 63.1 (101010) - https://sketch.com -->
    <title>FB0B0A0C-0891-4DDE-A63F-9708F93D1151</title>
    <desc>Created with sketchtool.</desc>
    <defs>
        <rect id="path-1" x="0" y="0" width="219" height="142"></rect>
        <filter x="-1.4%" y="-2.1%" width="102.7%" height="108.5%" filterUnits="objectBoundingBox" id="filter-2">
            <feMorphology radius="5.5" operator="erode" in="SourceAlpha" result="shadowSpreadOuter1"></feMorphology>
            <feOffset dx="0" dy="13" in="shadowSpreadOuter1" result="shadowOffsetOuter1"></feOffset>
            <feGaussianBlur stdDeviation="2" in="shadowOffsetOuter1" result="shadowBlurOuter1"></feGaussianBlur>
            <feColorMatrix values="0 0 0 0 0.607892215   0 0 0 0 0.607803345   0 0 0 0 0.607922554  0 0 0 0.5 0" type="matrix" in="shadowBlurOuter1"></feColorMatrix>
        </filter>
        <ellipse id="path-3" cx="30.4545455" cy="30" rx="30.4545455" ry="30"></ellipse>
        <path d="M-8.11472102e-15,40 L-8.11472102e-15,-1.02140518e-14 L67,-1.02140518e-14 L67,40 L63.9545455,40 C63.9545455,56.5685425 50.319581,70 33.5,70 C16.680419,70 3.04545455,56.5685425 3.04545455,40 L3.04545455,40 L-8.11472102e-15,40 Z" id="path-5"></path>
        <path d="M25.3787879,0 C33.2279257,-1.44186322e-15 39.5909091,6.3629834 39.5909091,14.2121212 L39.5908541,15.5420985 C41.0312357,15.7837215 42.1287879,17.0364145 42.1287879,18.5454545 L42.1287879,21.9545455 C42.1287879,23.4979608 40.9806626,24.7732171 39.4918956,24.9728309 C38.9087216,29.9145621 35.7887212,34.0805797 31.4696977,36.1323243 L31.4700066,40.772468 C42.0929031,41.2695127 50.5757894,49.951612 50.7546927,60.6547931 L50.7575758,61 L0,61 C-1.3301058e-15,50.1388619 8.55069526,41.2748457 19.2875692,40.772468 L19.2868822,36.1318511 C14.968375,34.0799393 11.8488093,29.9141822 11.2653807,24.9717751 C9.77707049,24.7733918 8.62878788,23.4980665 8.62878788,21.9545455 L8.62878788,18.5454545 C8.62878788,17.0364564 9.72627912,15.7837911 11.1666016,15.5421186 L11.1666667,14.2121212 C11.1666667,6.3629834 17.5296501,1.44186322e-15 25.3787879,0 Z" id="path-7"></path>
        <path d="M32.7428201,3.56969174 L32.7424242,20.5 L0.257575758,20.5 L0.256579413,3.57008674 C2.2406431,2.26487659 4.46783909,1.29906057 6.85556482,0.755241256 L6.85512244,11.4991398 L26.1431224,11.4991398 L26.1438972,0.755118733 C28.5315855,1.29886065 30.7587585,2.26458371 32.7428201,3.56969174 Z" id="path-9"></path>
        <rect id="path-11" x="0" y="0" width="67" height="70"></rect>
        <path d="M27.5579856,0.0494378338 C41.9973032,-0.0187618285 43.2184101,11.7632109 44.0621298,13.8062466 C45.0442889,16.1845739 47.4906578,20.2198424 48.0980163,22.7217074 C48.3735259,23.8565441 48.527787,24.9838304 48.3937594,26.1458306 C48.3630289,26.4123456 48.1205317,27.2027348 48.2728658,27.3603353 C48.4906669,27.5856277 49.2112111,27.8143915 49.5179076,27.9895225 C50.0810466,28.3111456 50.6532121,28.625392 51.1955091,28.9719656 C52.6080474,29.8746539 53.5149016,31.2818201 54.0866614,32.6833887 C54.7760693,34.3732551 54.6654699,36.1321586 53.8161721,37.8001554 C53.2754471,38.8621365 52.4324373,39.9178691 51.3518493,40.6428228 C51.021471,40.8644703 51.0741592,40.7762973 51.035315,41.1112852 C51.0115825,41.3158361 51.0369377,41.5482882 51.0332866,41.752492 C51.0271506,42.0904306 51.0096048,42.4270674 50.9785193,42.7642683 C50.8289236,44.3875277 50.5034136,46.0611655 49.9348992,47.6242833 C49.5759203,48.611326 49.1308351,49.6045738 48.2769226,50.3691447 C47.554705,51.0158623 46.5164095,51.4749085 45.5226378,51.7490171 C45.1784662,51.8438725 45.1834866,51.9446293 45.1635067,52.0429994 C45.1366809,52.1753457 45.170809,52.8079174 45.1994604,52.9791865 C45.3048873,53.6101527 45.5469787,54.2849016 45.7328324,54.9014182 C46.2369952,56.5738844 46.9776714,58.2200549 47.2968426,59.932008 C47.4501402,60.7542037 47.4375133,61.6146714 47.241619,62.4354785 C47.0842646,63.0946497 46.7980044,63.7405428 46.4258407,64.3366651 C46.0005833,65.0177927 44.7537666,66.0947875 43.7134934,65.6309681 C45.1141147,64.9723611 45.1751194,63.5661929 44.696971,63.1727557 C44.2069056,62.7695552 43.535297,62.7462536 42.884429,62.7483798 C42.3439068,62.7501589 41.8096727,62.7910344 41.2737145,62.8573811 C40.1002758,63.0026148 38.7525961,63.3658077 37.5794616,63.0956477 C36.9120113,62.9419525 36.2865999,62.6365581 35.6844138,62.3570688 C35.6316519,62.3325742 35.3291701,62.1908933 34.9086265,61.8996305 C30.4071455,58.4094811 31.369432,52.633546 35.1594238,45.7851828 C34.7785181,45.7618436 34.6482389,45.75 34.2613636,45.75 L34.2613636,45.75 L33.2460008,45.7491429 L33.2470402,41.1319312 C37.9595217,38.8929011 41.2443672,34.1367592 41.3640422,28.6010401 L41.3674242,28.2878788 L41.3674242,19.2121212 C41.3674242,18.7681918 41.3470705,18.3290162 41.3072452,17.8954768 C40.4591005,17.4285791 39.2721227,16.9941539 38.6410687,16.4283215 C38.0479091,15.896504 37.3322839,15.981405 37.0481535,15.3080926 L37.0481535,15.3080926 L36.4018494,15.5345197 C35.9615817,15.4002183 33.7309832,14.6502792 33.362065,14.5024626 L33.362065,14.5024626 L33.2227635,14.2332245 L32.7997373,14.3928534 C32.3478569,14.3753067 30.4849595,14.3106756 30.4849595,14.3106756 C29.8171542,14.3028302 27.0007999,14.3651135 26.3520617,14.417218 C26.3520617,14.417218 26.0418154,14.1882656 25.6062638,13.7474675 L25.6062638,13.7474675 L25.2687353,14.553177 C25.2687353,14.553177 22.2434034,15.0010584 21.695731,15.0425532 L21.695731,15.0425532 L21.4261038,14.553837 L20.7316248,15.2985431 C19.7441919,15.5226946 17.2208422,16.0047345 16.0897974,16.301136 C14.8517536,16.6256438 13.6421076,16.9938335 12.4332223,17.3840551 L13.0880848,17.1749988 C12.9925953,17.8402735 12.9431818,18.5204268 12.9431818,19.2121212 L12.9431818,19.2121212 L12.9431818,28.2878788 C12.9431818,33.9572885 16.2628339,38.8513519 21.0643933,41.1323243 L21.0640008,45.7491429 L20.0492424,45.75 C18.7971868,45.75 17.574543,45.8740477 16.3932856,46.1103475 L15.8896011,46.218457 C15.8827807,46.2285408 15.875912,46.2386548 15.8689954,46.2487986 L15.8577758,46.2505736 C15.8415049,46.278861 15.8251182,46.3071016 15.8086164,46.3352955 C14.8416578,47.724835 13.0233528,49.635019 11.5753627,50.8341516 C11.5919846,50.854054 11.6087299,50.8739008 11.6255984,50.8936919 C11.5190207,51.0006051 11.4299186,51.1091805 11.3754692,51.2155098 C11.1509743,51.653858 11.3181158,52.4148273 11.4240498,52.8897117 C11.4987462,53.2246562 11.6271957,53.5471038 11.7965684,53.8548414 C12.6079349,55.328875 14.6253976,56.018681 16.7500113,55.6869475 C16.1081697,56.2178513 14.834223,56.6427045 13.9701684,56.6728621 C12.7957662,56.7139111 11.3599518,56.2671882 10.3508148,55.77716 C10.5040617,56.6772013 11.0327176,57.1806812 11.5241521,57.9266368 C10.3129341,57.8651934 9.35491321,56.541861 8.94902714,56.01304 C8.68893348,55.674277 8.44760267,55.3011473 8.30556283,54.9133945 C7.74800195,56.0404639 7.43425669,59.0725818 7.71093265,59.9212902 C7.1779156,59.6858006 6.68095364,59.433605 6.17745005,59.1440922 C1.87913485,56.6721678 1.46630145,52.4780932 1.54302629,51.0040162 C1.62360512,49.455565 2.16782917,48.1031598 2.81550244,46.6507789 C3.23355901,45.7133335 3.7156121,44.7670794 3.94893067,43.7820761 C4.06728875,43.282328 3.98310948,43.1830032 3.66921208,42.7775897 C3.14912619,42.1058782 2.55226474,41.4798587 2.01519086,40.8180406 C1.40215279,40.0626255 0.879683508,39.2760982 0.514923577,38.4082539 C-0.129909911,36.8739051 -0.151461833,35.1127019 0.351585368,33.5314027 C1.15341826,31.0109225 4.3395273,28.4895225 5.73628723,26.7589107 C4.29091263,22.2940803 6.43384416,17.478031 8.55670906,14.9434174 C10.5115384,12.6094315 13.118668,0.118232425 27.5579856,0.0494378338 Z" id="path-13"></path>
        <filter x="-7.4%" y="-20.0%" width="116.0%" height="144.0%" filterUnits="objectBoundingBox" id="filter-15">
            <feOffset dx="0" dy="1" in="SourceAlpha" result="shadowOffsetOuter1"></feOffset>
            <feColorMatrix values="0 0 0 0 0   0 0 0 0 0   0 0 0 0 0  0 0 0 0.16 0" type="matrix" in="shadowOffsetOuter1" result="shadowMatrixOuter1"></feColorMatrix>
            <feMerge>
                <feMergeNode in="shadowMatrixOuter1"></feMergeNode>
                <feMergeNode in="SourceGraphic"></feMergeNode>
            </feMerge>
        </filter>
    </defs>
    <g id="Portfolio-High-f-i" stroke="none" stroke-width="1" fill="none" fill-rule="evenodd">
        <g id="Case-studies-price-my-airbnb-1" transform="translate(-159.000000, -2835.000000)">
            <g id="Unexpected" transform="translate(156.000000, 2831.000000)">
                <g id="opinion-5">
                    <g id="Note-/-Square-/-Yellow-Copy-3" transform="translate(43.000000, 10.000000)">
                        <g id="Rectangle">
                            <use fill="black" fill-opacity="1" filter="url(#filter-2)" xlink:href="#path-1"></use>
                            <use fill="#F1E41B" fill-rule="evenodd" xlink:href="#path-1"></use>
                        </g>
                        <rect id="Rectangle" fill="#EBDE0E" x="0" y="0" width="219" height="39"></rect>
                        <text id="Megan" font-family="Helvetica-Bold, Helvetica" font-size="18" font-weight="bold" fill="#2D2D2D">
                            <tspan x="25" y="31">Megan</tspan>
                        </text>
                        <text id="“I’ll-pay-more-for-a" font-family="Helvetica" font-size="16" font-weight="normal" fill="#2D2D2D">
                            <tspan x="25" y="66">“I’ll pay more for a hot </tspan>
                            <tspan x="25" y="85">tub &amp; cleanliness”</tspan>
                        </text>
                    </g>
                    <g id="Avataaar/Circle-Copy-3">
                        <g id="Circle" transform="translate(3.045455, 10.000000)">
                            <mask id="mask-4" fill="white">
                                <use xlink:href="#path-3"></use>
                            </mask>
                            <use id="Circle-Background" fill="#E6E6E6" xlink:href="#path-3"></use>
                            <g id="🖍-Circle-Color" mask="url(#mask-4)" fill="#FFAFB9">
                                <rect id="🖍Color" x="0" y="0" width="60.9090909" height="60"></rect>
                            </g>
                        </g>
                        <mask id="mask-6" fill="white">
                            <use xlink:href="#path-5"></use>
                        </mask>
                        <g id="Mask"></g>
                        <g id="Avataaar" mask="url(#mask-6)">
                            <g id="Body" transform="translate(8.121212, 9.000000)">
                                <mask id="mask-8" fill="white">
                                    <use xlink:href="#path-7"></use>
                                </mask>
                                <use fill="#D0C6AC" xlink:href="#path-7"></use>
                                <g id="🎨-Skin" mask="url(#mask-8)" fill="#EDB98A">
                                    <g transform="translate(-8.121212, 0.000000)" id="Color">
                                        <rect x="0" y="0" width="67" height="61"></rect>
                                    </g>
                                </g>
                                <path d="M11.1666667,23.2878788 C11.1666667,31.1370166 17.5296501,37.5 25.3787879,37.5 C33.2279257,37.5 39.5909091,31.1370166 39.5909091,23.2878788 L39.5909091,23.2878788 L39.5909091,25.2878788 C39.5909091,33.1370166 33.2279257,39.5 25.3787879,39.5 C17.5296501,39.5 11.1666667,33.1370166 11.1666667,25.2878788 Z" id="Neck-Shadow" fill-opacity="0.100000001" fill="#000000" mask="url(#mask-8)"></path>
                            </g>
                            <g id="👔-Clothes" transform="translate(17.000000, 49.500000)">
                                <mask id="mask-10" fill="white">
                                    <use xlink:href="#path-9"></use>
                                </mask>
                                <use id="Overall" fill="#B7C1DB" xlink:href="#path-9"></use>
                                <g id="↳-Color-Fabric" mask="url(#mask-10)" fill="#E6E6E6">
                                    <g transform="translate(-17.000000, -7.000000)" id="🖍Color">
                                        <rect x="0" y="0" width="67" height="27.5"></rect>
                                    </g>
                                </g>
                                <ellipse id="Button" fill="#F4F4F4" cx="3.55681818" cy="13.75" rx="1.26893939" ry="1.25"></ellipse>
                                <ellipse id="Button" fill="#F4F4F4" cx="29.4431818" cy="13.75" rx="1.26893939" ry="1.25"></ellipse>
                            </g>
                            <g id="Face" transform="translate(21.287879, 21.500000)" fill="#000000">
                                <g id="👄-Mouth" transform="translate(8.507576, 15.000000)" fill-opacity="0.699999988">
                                    <path d="M0.151515152,0.75 C0.151515152,2.68299662 1.742261,4.25 3.70454545,4.25 L3.70454545,4.25 C5.66682991,4.25 7.25757576,2.68299662 7.25757576,0.75" id="Mouth"></path>
                                </g>
                                <g id="👃🏽-Nose" transform="translate(9.106061, 11.000000)" fill-opacity="0.16">
                                    <path d="M0.0606060606,0 C0.0606060606,1.1045695 1.4241025,2 3.10606061,2 L3.10606061,2 C4.78801871,2 6.15151515,1.1045695 6.15151515,0" id="Nose"></path>
                                </g>
                                <g id="👁-Eyes" transform="translate(2.000000, 5.000000)" fill-opacity="0.599999964">
                                    <path d="M2.85165863,0 C3.74852375,0 4.61540435,0.334045225 5.15428797,0.899625736 C5.33871912,1.06608301 5.48044241,1.27751957 5.56291827,1.5159648 C5.5753867,1.5443264 5.58658314,1.57289739 5.59707791,1.60178106 C5.62191797,1.67014579 5.63127378,1.73528776 5.62833916,1.79235577 C5.63898904,1.85995338 5.64393939,1.92940721 5.64393939,2 C5.64393939,2.82842712 4.96219117,3.5 4.12121212,3.5 C3.28023307,3.5 2.59848485,2.82842712 2.59848485,2 C2.59848485,1.65641691 2.71575269,1.3398144 2.91301206,1.08691244 C2.8934565,1.08609706 2.87257957,1.08594709 2.85165863,1.08594709 C1.902397,1.08594709 1.04371899,1.39468797 0.425436075,1.8929103 C0.199375457,2.07507359 -0.0358076552,1.88959611 0.10125461,1.61182789 C0.569876098,0.662126999 1.62506176,0 2.85165863,0 Z" id="Eye"></path>
                                    <path d="M17.5713556,0 C18.4682207,0 19.3351013,0.334045225 19.8739849,0.899625736 C20.0584161,1.06608301 20.2001394,1.27751957 20.2826152,1.5159648 C20.2950837,1.5443264 20.3062801,1.57289739 20.3167749,1.60178106 C20.3416149,1.67014579 20.3509707,1.73528776 20.3480361,1.79235577 C20.358686,1.85995338 20.3636364,1.92940721 20.3636364,2 C20.3636364,2.82842712 19.6818881,3.5 18.8409091,3.5 C17.99993,3.5 17.3181818,2.82842712 17.3181818,2 C17.3181818,1.65641691 17.4354497,1.3398144 17.632709,1.08691244 C17.6131535,1.08609706 17.5922765,1.08594709 17.5713556,1.08594709 C16.622094,1.08594709 15.763416,1.39468797 15.145133,1.8929103 C14.9190724,2.07507359 14.6838893,1.88959611 14.8209516,1.61182789 C15.2895731,0.662126999 16.3447587,0 17.5713556,0 Z" id="Eye"></path>
                                </g>
                                <g id="✏️-Eyebrow" fill-opacity="0.599999964">
                                    <path d="M4.61016205,0.552621629 C3.14786498,0.747873359 0.866283243,2.00641915 1.05502812,3.4594801 C1.06123038,3.50703825 1.13423821,3.52176843 1.16580161,3.48200975 C1.79782125,2.68406062 6.67798023,1.50665626 8.45434529,1.74892352 C8.61692081,1.7711482 8.72448197,1.60563702 8.61372092,1.50256194 C7.66468675,0.619853604 5.92011482,0.376435262 4.61016205,0.552621629" id="Eyebrow" transform="translate(4.851512, 2.001987) rotate(5.000000) translate(-4.851512, -2.001987) "></path>
                                    <path d="M19.5851676,0.552621629 C18.1228706,0.747873359 15.8412888,2.00641915 16.0300337,3.4594801 C16.036236,3.50703825 16.1092438,3.52176843 16.1408072,3.48200975 C16.7728268,2.68406062 21.6529858,1.50665626 23.4293509,1.74892352 C23.5919264,1.7711482 23.6994876,1.60563702 23.5887265,1.50256194 C22.6396923,0.619853604 20.8951204,0.376435262 19.5851676,0.552621629" id="Eyebrow" transform="translate(19.826518, 2.001987) scale(-1, 1) rotate(5.000000) translate(-19.826518, -2.001987) "></path>
                                </g>
                            </g>
                            <g id="Top">
                                <mask id="mask-12" fill="white">
                                    <use xlink:href="#path-11"></use>
                                </mask>
                                <g id="Mask"></g>
                                <g mask="url(#mask-12)">
                                    <g transform="translate(5.746212, 4.000000)">
                                        <path d="M19.607173,6.61620061 C17.120487,8.11803256 14.9084485,10.0818464 13.4368833,12.34006 C12.7359641,13.4157065 12.1593361,14.5498946 11.6220594,15.6893917 C11.3524829,16.2611834 11.1065374,16.8400059 10.8707848,17.4223403 C10.7219497,17.7898704 10.4933979,18.1862265 10.7083593,18.5719611 C10.8394964,18.4964499 10.8893955,18.5235973 10.8069404,18.6588354 C11.4901109,18.8423314 12.4398153,18.3250754 13.0317072,18.1340551 C14.2405925,17.7438335 15.4502384,17.3756438 16.6882822,17.051136 C17.8193271,16.7547345 20.3426767,16.2726946 21.3301097,16.0485431 L22.0245887,15.303837 L22.2942159,15.7925532 C22.8418882,15.7510584 25.8672202,15.303177 25.8672202,15.303177 L26.2047486,14.4974675 C26.6403003,14.9382656 26.9505465,15.167218 26.9505465,15.167218 C27.5992847,15.1151135 30.4156391,15.0528302 31.0834444,15.0606756 C31.0834444,15.0606756 32.9463418,15.1253067 33.3982222,15.1428534 L33.8212484,14.9832245 L33.9605498,15.2524626 C34.329468,15.4002792 36.5600665,16.1502183 37.0003343,16.2845197 L37.6466383,16.0580926 C37.9307687,16.731405 38.6463939,16.646504 39.2395535,17.1783215 C40.0240942,17.8817772 41.6678719,18.3821295 42.4526154,18.993906 C42.7336017,19.212986 42.9961802,19.4418753 43.26028,19.6753851 C43.553589,19.9346467 43.5102823,19.972606 43.6055671,20.2700535 C43.6341171,20.3590433 43.9240792,20.8197202 44.0476604,20.8574035 C44.4875225,20.9915141 41.4707099,13.2358933 40.6425583,12.2442915 C39.7878344,11.2207577 34.2443913,4.33078119 26.8939691,4.55636586" id="Top-Shadow" fill-opacity="0.16" fill="#000000"></path>
                                        <g id="Hair" stroke-width="1" fill="none" transform="translate(0.598485, 0.000000)">
                                            <mask id="mask-14" fill="white">
                                                <use xlink:href="#path-13"></use>
                                            </mask>
                                            <use id="Hair-Mask" fill="#361A0A" xlink:href="#path-13"></use>
                                            <g id="↳-💈Hair-Color" mask="url(#mask-14)" fill="#A55728">
                                                <g transform="translate(-6.344697, -4.000000)" id="Color">
                                                    <rect x="0" y="0" width="67" height="70"></rect>
                                                </g>
                                            </g>
                                            <path d="M15.9072861,46.115533 C17.7030857,43.6888511 15.7726525,36.9467284 14.2445593,34.4501483 C18.5176281,32.5344269 26.9557176,32.8883667 39.5588278,35.5119677 C38.3420705,37.7250869 37.8457235,39.7008817 38.0697868,41.4393522 C36.9182988,42.8331335 35.9668953,44.2818056 35.2155763,45.7853684 L26.3657475,47.9366972 C20.7732614,48.6000946 17.2871076,47.9930399 15.9072861,46.115533 Z" id="Shadow" fill-opacity="0.24" fill="#000000" mask="url(#mask-14)"></path>
                                        </g>
                                        <path d="M39.6584012,50.4346392 C39.4905497,50.5320981 39.5237651,51.027941 39.5197589,51.1673168 C39.5036837,51.7250803 39.5085012,52.2962954 39.5445056,52.852627 C39.608705,53.8458749 40.1920775,54.7113326 41.0498439,55.372847 C41.9590815,56.0740218 43.1762326,56.3931715 43.8362792,57.3299227 C44.157986,57.7863654 44.3293871,58.3177031 44.3018514,58.8544214 C44.2876525,59.1310034 44.2170636,59.4090173 44.1407444,59.6780491 C44.0905411,59.8550459 43.911787,60.1450361 43.9119391,60.3176937 C43.9198499,59.3460552 43.9331868,58.2148201 43.242866,57.3995238 C42.5498577,56.5810164 41.341378,56.2926751 40.4947172,55.6207033 C39.6627116,54.9603605 39.0315699,54.0972894 38.8894286,53.1245661 C38.774671,52.3386029 38.8312638,50.9679729 39.6584012,50.4346392 Z M38.9219238,56.6682261 C39.0225333,56.7981424 39.5740596,56.9560901 39.7360794,57.0456516 C40.1057582,57.2500289 40.4632666,57.4823075 40.7565248,57.764921 C41.3444105,58.3315365 41.7233187,59.1262216 41.7506516,59.8884058 C41.7506516,59.7082848 41.3328486,59.2741456 41.2155047,59.1202768 C41.0206246,58.8646533 40.8004907,58.6279921 40.5763,58.3910706 C40.0298447,57.8134335 39.4623446,57.2499855 38.9219238,56.6682261 Z M6.83162506,46.6234536 C6.83177719,46.7474686 7.03872635,47.0028752 7.09526845,47.1321406 C7.2276226,47.4344976 7.33543292,47.7518682 7.38918595,48.0724065 C7.4952214,48.7045009 7.35607205,49.3573802 7.11829097,49.9625715 C6.6363393,51.1893128 5.88136282,52.2757237 4.93236833,53.2875 C5.27126595,52.8505838 5.40620634,52.14034 5.64464665,51.6530454 C5.88942577,51.1527766 6.15210566,50.6602749 6.36797985,50.150156 C6.85510398,48.9989605 6.81210156,47.822424 6.83162506,46.6234536 Z M3.81770295,38.2128402 C4.16187446,38.6418157 4.78221482,38.9789732 5.16690394,39.4049546 C5.6487542,39.9384185 6.01655675,40.5499016 6.41108369,41.1320082 C7.13112071,42.1944666 8.07271147,43.152263 8.6884879,44.2640583 C9.40664863,45.5606611 9.72262515,46.9657445 9.78631742,48.3989894 C9.81649011,49.0768192 9.81486738,49.7651499 9.72211805,50.4411138 C9.67242186,50.8029181 9.5927051,51.1625528 9.50162922,51.5189331 C9.46709543,51.6541866 9.28834126,52.0005433 9.25360463,52.2116464 C9.18007455,49.5763938 9.62277637,46.9409241 8.23158717,44.4857058 C7.57285903,43.3230547 6.5602737,42.3318029 5.77527665,41.2312028 C5.06933713,40.2415565 4.37987849,39.2709594 3.81770295,38.2128402 Z M5.20999764,49.4234666 C5.10452001,49.598207 5.26035308,50.0400266 5.20888202,50.2667943 C5.1244999,50.6388825 4.91192189,50.9996454 4.63813643,51.3002233 C4.73981079,51.1632341 4.68707197,50.5045402 4.7408757,50.3322297 C4.8403188,50.0139044 5.0123792,49.7067743 5.20999764,49.4234666 Z M44.3784089,48.0423184 C45.0817622,48.0105987 45.861891,48.1146532 46.5126576,48.3355196 C46.2887712,48.2755515 45.7532693,48.4185723 45.5178716,48.4448246 C45.1888118,48.4815344 44.8589914,48.5194592 44.5291202,48.5491394 C44.1247047,48.5855021 43.7166381,48.6056795 43.3107013,48.6048551 C43.0215506,48.6042476 42.4682494,48.4696449 42.2001942,48.5494432 C42.882452,48.308356 43.6369721,48.0760775 44.3784089,48.0423184 Z M43.4182784,45.1182992 C45.5270705,44.7028621 47.5854058,45.5405922 48.5343496,47.1535243 C48.2943372,46.8521653 47.655944,46.5726327 47.2970664,46.3691666 C46.8521841,46.1170144 46.3683561,45.9235719 45.8524285,45.7954347 C44.813068,45.5373378 43.5320725,45.3807353 42.4436752,45.4413108 C42.705493,45.4374489 43.1371906,45.1739714 43.4182784,45.1182992 Z M6.64216085,32.664616 C6.64271867,33.1422775 7.08800672,33.8200639 7.24181137,34.2816703 C7.45236097,34.9135044 7.61965459,35.5579222 7.93659461,36.1585572 C8.47595046,37.1807477 9.44882955,37.9692276 10.2625287,38.8303896 C11.1640582,39.7844108 12.0251716,40.771063 12.6615364,41.8746573 C12.9443991,42.3651629 13.1793404,42.8662128 13.327719,43.4001974 C13.4060159,43.6818997 13.4690489,43.9673771 13.5232076,44.2533751 C13.5407027,44.345627 13.5440496,44.6774907 13.5885226,44.8209887 C13.0264992,43.748203 12.5975399,42.6121948 11.9281119,41.5855349 C11.2672539,40.5720229 10.4187674,39.6401317 9.53077756,38.7652578 C8.5931422,37.8414376 7.65013154,36.9697747 7.14718576,35.8035655 C6.70940285,34.7884046 6.54033436,33.7490309 6.64216085,32.664616 Z M8.32710021,38.954296 C8.38582286,39.1024804 8.89886001,39.419287 9.03151842,39.5448641 C9.30023285,39.7992293 9.53598552,40.0706476 9.74379675,40.3635884 C9.97158788,40.6847342 10.1387294,41.0225426 10.2881222,41.3760156 C10.4167745,41.6803252 10.4735195,42.2465936 10.6757525,42.5005249 C10.0213348,41.7140844 9.34754566,40.9712096 8.89622307,40.078111 C8.7423677,39.7724563 8.50347099,39.3223054 8.32710021,38.954296 Z M44.4263759,41.9239118 C44.7347458,41.8809969 45.0246572,41.9051229 45.3229358,41.9770672 C45.5112742,42.0224555 45.9115821,42.2708759 46.0963709,42.2681856 C45.3529563,42.2859764 44.6822605,42.2045726 43.9667368,42.0396822 C44.0053781,42.0500529 44.4131911,41.9257342 44.4263759,41.9239118 Z M44.7750606,39.7744957 C45.8623423,39.632256 47.1840583,40.559808 47.3300535,41.4547725 C47.2085514,41.1482065 46.562298,40.8946224 46.270054,40.7421421 C45.807423,40.500621 45.3655325,40.2081141 44.8639052,40.0241745 C44.8152232,40.0079892 44.3731299,39.8848421 44.2707963,39.944246 C44.4224204,39.8775088 44.6083755,39.7962352 44.7750606,39.7744957 Z M45.061336,37.4299969 C45.9891843,37.3006881 46.8646487,37.7453281 47.4523823,38.3177583 C47.7664318,38.6236734 48.0455418,38.9751069 48.2301784,39.3510137 C48.3689221,39.6336272 48.3686685,40.0968391 48.5550293,40.3308967 C48.0988892,39.7262696 47.520537,39.2378034 46.9499436,38.7148838 C46.5531854,38.3512137 45.7602775,37.419713 45.061336,37.4299969 Z M7.90095027,22.0502247 C7.8294486,22.2337738 8.01738135,22.6720786 8.04694552,22.8743297 C8.09856871,23.2276725 8.14486731,23.5834019 8.16814338,23.9393049 C8.21525335,24.6599194 8.21489837,25.3764985 8.31606563,26.0938152 C8.53346113,27.6351501 8.90638543,29.1163434 9.44711046,30.594369 C9.97028969,32.0246199 10.5687739,33.4590364 11.4297858,34.7669645 C12.2321765,35.9858085 13.1871548,37.1230751 13.9565838,38.3571931 C13.7543,38.120315 13.3293468,37.832451 13.1662622,37.6627875 C12.8981562,37.3838189 12.647089,37.0963455 12.4090037,36.7983711 C11.9210682,36.1874955 11.4860744,35.5484584 11.0655837,34.9023916 C10.2402212,33.6342107 9.62140212,32.2585907 9.08508889,30.8826669 C8.03198595,28.180677 6.97538399,24.9042176 7.90095027,22.0502247 Z M51.384903,33.9645036 C51.5195899,34.1313901 51.9759328,34.2894679 52.1600115,34.4477627 C52.4655924,34.7104158 52.6704118,35.0368988 52.838821,35.3749676 C53.2273134,36.1548559 53.2996264,37.0543331 52.9883153,37.8750969 C53.039837,37.6989245 52.8865395,37.3289625 52.8433849,37.1504035 C52.7489115,36.7596566 52.6012428,36.3905624 52.446931,36.014916 C52.1473847,35.2861003 51.9051918,34.6030201 51.384903,33.9645036 Z M8.13338647,31.7422884 C8.16117577,31.8729424 8.36650219,32.0988857 8.43115796,32.2061946 C8.58688961,32.4647254 8.74099852,32.72356 8.88486394,32.9871677 C9.16336547,33.4974168 9.39577125,34.0249359 9.6772647,34.5338833 C10.1943587,35.4688553 10.8522247,36.3738434 11.4746442,37.260303 C11.1298642,36.8273788 10.4895946,36.4860991 10.093445,36.0697941 C9.73426319,35.692412 9.45616734,35.2695549 9.20368024,34.8349384 C8.63131192,33.849805 8.25519286,32.8436263 8.13338647,31.7422884 Z M48.0442842,28.9096276 C47.7537643,29.0782932 47.4690254,29.7129043 47.2826647,29.976729 C47.0027432,30.3732905 46.7036533,30.7735403 46.4670893,31.1894547 C45.9739813,32.0564311 45.8310287,33.0937655 45.6472542,34.031992 C45.64553,34.0448794 45.6421324,34.0705676 45.6368585,34.1096206 C45.6363514,33.7282898 45.4642403,33.309338 45.4438547,32.9172459 C45.4154062,32.3696362 45.4952244,31.8384287 45.7187051,31.3192842 C46.1601392,30.2939261 46.9883922,29.517379 48.0442842,28.9096276 Z M45.3716938,27.9338751 C45.2759019,28.0982014 45.2999893,28.4415207 45.2647456,28.6204702 C45.2045523,28.9266456 45.125292,29.2304345 45.0136784,29.5269769 C44.8932919,29.8467342 44.7362418,30.1576394 44.561088,30.4589983 C44.4519593,30.6467131 44.0588015,31.040671 44.059055,31.2483028 C44.0381624,30.0237744 44.4976493,28.9144958 45.3716938,27.9338751 Z M19.2184017,6.75137039 C19.0606417,6.98495069 18.9206809,7.6934154 18.8340676,7.87974158 C18.6077978,8.36668902 18.3379677,8.83337231 18.0166666,9.28087623 C17.2906965,10.2920016 16.5117339,11.2316601 15.5331246,12.0829286 C15.8935741,11.7714593 16.0855637,11.0352669 16.3341461,10.6380546 C16.6196964,10.181742 16.9478434,9.74326369 17.2590532,9.29901418 C17.8762495,8.41797862 18.4586585,7.55308497 19.2184017,6.75137039 Z M16.2043478,8.67705619 C16.058961,8.80267665 15.9934432,9.32077971 15.8935437,9.49578052 C15.6918177,9.84881959 15.3979509,10.1532594 15.0825322,10.43865 C15.2509922,10.2931559 15.2782237,9.73790909 15.3972917,9.5304509 C15.5877093,9.19880419 15.8779249,8.91849048 16.2043478,8.67705619 Z M25.1562451,6.47377737 C24.9746005,6.70388629 24.9271862,7.20302695 24.79397,7.47214547 C24.5975179,7.86896729 24.3346352,8.24114233 24.0427461,8.59331355 C23.7293051,8.97143332 23.3729124,9.32581755 22.989491,9.65412306 C22.7297016,9.87650816 22.2321311,10.1264473 22.0342084,10.3816803 C22.9227561,8.9536859 23.9492868,7.72195446 25.1562451,6.47377737 Z M26.5840117,7.91820444 C26.5320843,7.97318237 26.4312213,8.42897421 26.3746285,8.51849235 C26.1913104,8.80861271 25.8671695,9.04523046 25.5395803,9.21289799 C25.684257,9.12889066 25.8196538,8.71479874 25.9298982,8.57533616 C26.1154983,8.34058427 26.3421231,8.11385994 26.5840117,7.91820444 Z M39.137793,7.5583094 C39.1379958,7.71847007 39.4380493,7.99895735 39.4653315,8.20120847 C39.507269,8.51194013 39.4042254,8.86228888 39.2207045,9.13670125 C39.2541733,9.05911597 39.1055411,8.5410563 39.1007237,8.44624431 C39.0856627,8.15295632 39.1182187,7.85142382 39.137793,7.5583094 Z M37.5270581,6.49582495 C37.5271596,6.57870408 37.7597682,6.81896678 37.8122534,6.90935277 C37.9432891,7.13481872 38.0467384,7.37143648 38.0821849,7.62311133 C38.1223983,7.90841515 38.0732092,8.18764406 37.9853788,8.46513728 C37.9331978,8.6300711 37.6849196,8.94874353 37.6851225,9.09736187 C37.6445541,8.22279176 37.4481528,7.3824581 37.5270581,6.49582495 Z" id="Lights" fill-opacity="0.6" fill="#FFFFFF"></path>
                                        <g id="↳-👓-Accessory" stroke-width="1" fill="none" transform="translate(10.734848, 17.250000)">
                                            <g id="Kurts" filter="url(#filter-15)" transform="translate(0.268939, 0.500000)" fill-rule="nonzero">
                                                <path d="M16.75,2.77777778 C13.9488312,2.77777778 13.5448024,0.506650276 7.78382353,0.185185185 C2.02662888,-0.0707999879 0.206894275,1.61237138 0.197058824,2.77777778 C0.206389666,3.85106987 -0.0894078369,6.64031654 3.64558824,9.90740741 C7.39455918,13.7855202 11.235295,12.4704575 12.6117647,11.2037037 C13.9926475,10.6182779 15.5674358,5.36490877 16.75,5.37037037 C17.9325642,5.37583198 19.5073525,10.6182779 20.8882353,11.2037037 C22.264705,12.4704575 26.1054408,13.7855202 29.8544118,9.90740741 C33.5894078,6.64031654 33.2936103,3.85106987 33.3029412,2.77777778 C33.2931057,1.61237138 31.4733711,-0.0707999879 25.7161765,0.185185185 C19.9551976,0.506650276 19.5511688,2.77777778 16.75,2.77777778 Z" id="It!" fill="#F4F4F4"></path>
                                                <path d="M13.9911765,5.37037037 C14.0878573,3.45583727 10.7138201,1.41060815 7.09411765,1.48148148 C3.47621994,1.5561272 3.00530382,3.84467454 2.95588235,4.72222222 C2.86735346,6.75551582 5.07942811,11.32594 9.16323529,11.2037037 C13.2470353,11.076462 13.9353004,6.63360763 13.9911765,5.37037037 Z" id="Did" fill="#2F383B"></path>
                                                <path d="M30.5441176,5.37037037 C30.6407985,3.45583727 27.2667613,1.41060815 23.6470588,1.48148148 C20.0291611,1.5561272 19.558245,3.84467454 19.5088235,4.72222222 C19.4202946,6.75551582 21.6323693,11.32594 25.7161765,11.2037037 C29.7999765,11.076462 30.4882416,6.63360763 30.5441176,5.37037037 Z" id="Courtney" fill="#2F383B" transform="translate(25.026471, 6.342593) scale(-1, 1) translate(-25.026471, -6.342593) "></path>
                                            </g>
                                        </g>
                                    </g>
                                </g>
                            </g>
                        </g>
                    </g>
                </g>
            </g>
        </g>
    </g>
</svg>