<?xml version="1.0" encoding="UTF-8"?>
<svg width="319px" height="187px" viewBox="0 0 319 187" version="1.1" xmlns="http://www.w3.org/2000/svg" xmlns:xlink="http://www.w3.org/1999/xlink">
    <!-- Generator: sketchtool 63.1 (101010) - https://sketch.com -->
    <title>2A915D99-2B6D-410C-96DF-15E7CA6BD532</title>
    <desc>Created with sketchtool.</desc>
    <defs>
        <ellipse id="path-1" cx="48.1818182" cy="45" rx="48.1818182" ry="45"></ellipse>
        <path d="M-1.28382153e-14,60 L-1.28382153e-14,-1.53210777e-14 L106,-1.53210777e-14 L106,60 L101.181818,60 C101.181818,84.8528137 79.6100834,105 53,105 C26.3899166,105 4.81818182,84.8528137 4.81818182,60 L4.81818182,60 L-1.28382153e-14,60 Z" id="path-3"></path>
        <path d="M40.1515152,0 C52.5695541,-2.28115674e-15 62.6363636,10.0668096 62.6363636,22.4848485 L62.6368703,23.3167032 C64.9153908,23.699217 66.6515152,25.6809526 66.6515152,28.0681818 L66.6515152,32.6818182 C66.6515152,35.1745564 64.7585355,37.2251655 62.3316816,37.4745402 C61.1106078,44.8336214 56.3143906,50.9859693 49.7874698,54.0864093 L49.787,61.125 L51.5030303,61.125 C67.4088311,61.125 80.3030303,74.0191992 80.3030303,89.925 L80.3030303,91.5 L0,91.5 L0,89.925 C-9.05332616e-15,74.0191992 12.8941992,61.125 28.8,61.125 L30.515,61.125 L30.5155605,54.0864093 C23.9886397,50.9859693 19.1924225,44.8336214 17.9710187,37.4734753 C15.5444948,37.2251655 13.6515152,35.1745564 13.6515152,32.6818182 L13.6515152,28.0681818 C13.6515152,25.6809526 15.3876395,23.699217 17.66616,23.3167032 L17.6666667,22.4848485 C17.6666667,10.0668096 27.7334762,2.28115674e-15 40.1515152,0 Z" id="path-5"></path>
        <path d="M52.3515152,2.89439632 C68.2573159,2.89439632 81.1515152,15.7885955 81.1515152,31.6943963 L81.1515152,33.25 L0.848484848,33.25 L0.848484848,31.6943963 C0.848484848,15.7885955 13.7426841,2.89439632 29.6484848,2.89439632 L30.2363449,2.89438404 C30.1853353,3.26323456 30.1590909,3.63866502 30.1590909,4.01939632 C30.1590909,9.19706585 35.0127312,13.3943963 41,13.3943963 C46.9872688,13.3943963 51.8409091,9.19706585 51.8409091,4.01939632 C51.8409091,3.63866502 51.8146647,3.26323456 51.7636551,2.89438404 L52.3515152,2.89439632 Z" id="path-7"></path>
        <rect id="path-9" x="0" y="0" width="106" height="105"></rect>
        <path d="M106,5.5067062e-14 L106,105 L93.1515152,105 L93.1515152,103.425 C93.1515152,87.5191992 80.2573159,74.625 64.3515152,74.625 L64.3515152,74.625 L62.636,74.625 L62.6369531,67.728845 C69.6769708,64.6051155 74.7032614,58.1651788 75.4015327,50.5704964 C77.7206553,50.2247524 79.5,48.2235794 79.5,45.8068182 L79.5,45.8068182 L79.5,41.5681818 C79.5,39.1806052 77.7633703,37.1986402 75.4843602,36.8165363 L75.4848485,34.5 C75.4848485,31.5204967 74.820471,28.6859197 73.6225297,26.1184442 C69.6367447,19.875 35.8603716,20.1762747 32.4062388,26.0570556 C31.1901703,28.640708 30.5151515,31.4967302 30.5151515,34.5 L30.5151515,34.5 L30.5156398,36.8165363 C28.2366297,37.1986402 26.5,39.1806052 26.5,41.5681818 L26.5,41.5681818 L26.5,45.8068182 C26.5,48.2235794 28.2793447,50.2247524 30.5994532,50.5717564 C31.2967386,58.1651788 36.3230292,64.6051155 43.3630469,67.728845 L43.363,74.625 L41.6484848,74.625 C25.9017421,74.625 13.10667,87.2626046 12.8523432,102.948739 L12.8484848,103.425 L12.8484848,105 L0,105 L0,5.5067062e-14 L106,5.5067062e-14 Z" id="path-11"></path>
        <path d="M26.4048358,1.17438533 C28.7232186,2.00153553 30.7746165,4.3436192 34.3346421,3.31064239 C34.4827564,3.26761718 34.6274861,3.3918571 34.5830789,3.52824823 C34.0316439,5.21937424 30.9663258,6.37758291 29.9247865,6.41552444 C25.3719552,6.58110136 21.7046065,3.31143729 17.7275317,3.06056387 C13.7500582,3.31153586 10.082752,6.58109887 5.53012357,6.41552444 C4.48844879,6.37758291 1.42326591,5.21937424 0.871830847,3.52824823 C0.827288216,3.3918571 0.972017919,3.26761718 1.12013232,3.31064239 C4.6801581,4.3436192 6.73155611,2.00153553 9.04993913,1.17438533 C11.1336553,0.430848537 15.0002686,0.641713756 17.7273233,1.98636748 C20.453641,0.641760978 24.3208865,0.430765303 26.4048358,1.17438533 Z" id="path-13"></path>
        <filter x="-4.8%" y="-15.7%" width="111.1%" height="131.8%" filterUnits="objectBoundingBox" id="filter-15">
            <feOffset dx="0" dy="1" in="SourceAlpha" result="shadowOffsetOuter1"></feOffset>
            <feColorMatrix values="0 0 0 0 0   0 0 0 0 0   0 0 0 0 0  0 0 0 0.2 0" type="matrix" in="shadowOffsetOuter1" result="shadowMatrixOuter1"></feColorMatrix>
            <feMerge>
                <feMergeNode in="shadowMatrixOuter1"></feMergeNode>
                <feMergeNode in="SourceGraphic"></feMergeNode>
            </feMerge>
        </filter>
    </defs>
    <g id="Portfolio-High-f-i" stroke="none" stroke-width="1" fill="none" fill-rule="evenodd">
        <g id="Case-studies-price-my-airbnb-1" transform="translate(-550.000000, -1663.000000)">
            <g id="First-data" transform="translate(157.000000, 1663.000000)">
                <g id="David" transform="translate(389.000000, 0.000000)">
                    <g id="Note-/-Square-/-Yellow-Copy" transform="translate(82.000000, 7.000000)">
                        <rect id="Rectangle" fill="#F1E41B" x="0" y="0" width="241" height="180"></rect>
                        <rect id="Rectangle" fill="#EBDE0E" x="0" y="-3.55271368e-15" width="241" height="54.9539171"></rect>
                        <text id="David" font-family="Helvetica-Bold, Helvetica" font-size="18" font-weight="bold" fill="#2D2D2D">
                            <tspan x="27.1688312" y="34">David</tspan>
                        </text>
                        <text id="“The-tool-doesn’t-al" font-family="Helvetica" font-size="16" font-weight="normal" fill="#2D2D2D">
                            <tspan x="27" y="82">“The tool doesn’t always </tspan>
                            <tspan x="27" y="101">know when events or </tspan>
                            <tspan x="27" y="120">peak times are happening </tspan>
                            <tspan x="27" y="139">and just compares your </tspan>
                            <tspan x="27" y="158">listing with other listings.”</tspan>
                        </text>
                    </g>
                    <g id="Avataaar/Circle-Copy">
                        <g id="Circle" transform="translate(4.818182, 15.000000)">
                            <mask id="mask-2" fill="white">
                                <use xlink:href="#path-1"></use>
                            </mask>
                            <use id="Circle-Background" fill="#E6E6E6" xlink:href="#path-1"></use>
                            <g id="🖍-Circle-Color" mask="url(#mask-2)" fill="#FFAFB9">
                                <rect id="🖍Color" x="0" y="0" width="96.3636364" height="90"></rect>
                            </g>
                        </g>
                        <mask id="mask-4" fill="white">
                            <use xlink:href="#path-3"></use>
                        </mask>
                        <g id="Mask"></g>
                        <g id="Avataaar" mask="url(#mask-4)">
                            <g id="Body" transform="translate(12.848485, 13.500000)">
                                <mask id="mask-6" fill="white">
                                    <use xlink:href="#path-5"></use>
                                </mask>
                                <use fill="#D0C6AC" xlink:href="#path-5"></use>
                                <g id="🎨-Skin" mask="url(#mask-6)" fill="#EDB98A">
                                    <g transform="translate(-12.848485, 0.000000)" id="Color">
                                        <rect x="0" y="0" width="106" height="91.5"></rect>
                                    </g>
                                </g>
                                <path d="M17.6666667,33.7651515 C17.6666667,46.1831904 27.7334762,56.25 40.1515152,56.25 C52.5695541,56.25 62.6363636,46.1831904 62.6363636,33.7651515 L62.6363636,33.7651515 L62.6363636,36.7651515 C62.6363636,49.1831904 52.5695541,59.25 40.1515152,59.25 C27.7334762,59.25 17.6666667,49.1831904 17.6666667,36.7651515 Z" id="Neck-Shadow" fill-opacity="0.100000001" fill="#000000" mask="url(#mask-6)"></path>
                            </g>
                            <g id="👔-Clothes" transform="translate(12.000000, 71.750000)">
                                <mask id="mask-8" fill="white">
                                    <use xlink:href="#path-7"></use>
                                </mask>
                                <use id="Clothes" fill="#E6E6E6" xlink:href="#path-7"></use>
                                <g id="↳-Color-Fabric" mask="url(#mask-8)" fill="#E6E6E6">
                                    <g transform="translate(-12.000000, -8.000000)" id="🖍Color">
                                        <rect x="0" y="0" width="106" height="41.25"></rect>
                                    </g>
                                </g>
                                <g id="Blazer" transform="translate(0.848485, 2.500000)">
                                    <path d="M25.6969697,15.1875 C25.6969697,20.8911733 26.4843473,26.2207448 27.8500513,30.7509525 L0,30.75 L0,29.1943963 C-5.36373678e-15,13.684391 12.260472,1.03797241 27.6183601,0.418196294 C26.3958945,4.77205414 25.6969697,9.81373918 25.6969697,15.1875 Z M80.3030303,29.1943963 L80.3030303,30.75 L52.8544942,30.7509525 C54.2201981,26.2207448 55.0075758,20.8911733 55.0075758,15.1875 C55.0075758,9.82156005 54.3106839,4.78672999 53.0909711,0.437113215 C68.2580068,1.26141094 80.3030303,13.8212706 80.3030303,29.1943963 Z" id="Saco" fill="#3A4C5A"></path>
                                    <path d="M59.8257576,21.75 L63.7090899,19.0298356 C64.2684526,18.6380179 65.0148489,18.6444343 65.5673929,19.0458106 L68.2575758,21 L68.2575758,21 L59.8257576,21.75 Z" id="Pocket-hanky" fill="#E6E6E6"></path>
                                    <path d="M27.7045455,0 C26.0984848,7.25 26.7676768,17.5 29.7121212,30.75 L23.2878788,30.75 L17.6666667,17.25 L20.0757576,13.875 L17.6666667,11.625 L25.2954545,0.375 C26.1095904,0.138464489 26.9126207,0.0134644889 27.7045455,0 Z" id="Wing" fill="#2F4351"></path>
                                    <path d="M60.6287879,0 C59.0227273,7.25 59.6919192,17.5 62.6363636,30.75 L56.2121212,30.75 L50.5909091,17.25 L53,13.875 L50.5909091,11.625 L58.219697,0.375 C59.0338328,0.138464489 59.8368631,0.0134644889 60.6287879,0 Z" id="Wing" fill="#2F4351" transform="translate(56.613636, 15.375000) scale(-1, 1) translate(-56.613636, -15.375000) "></path>
                                </g>
                                <path d="M50.6372743,0.0777047176 C53.3559314,1.80152963 55.0530303,4.24642261 55.0530303,6.95795505 C55.0530303,9.73348544 53.2748757,12.2296413 50.4430777,13.9590522 L48.0579697,12.2031284 L46.219697,12.3279576 L46.6212121,11.1462933 L46.6229697,11.1471284 L46.5896477,11.1234812 C49.0391864,9.94507181 50.6363636,8.0127347 50.6363636,5.82880381 Z M35.4113599,11.1239659 L35.3779697,11.1471284 L35.780303,12.3279576 L33.9419697,12.2031284 L31.5569223,13.9590522 C28.8070745,12.2796892 27.0507692,9.87731725 26.9514197,7.19820693 L26.9469697,6.95795505 C26.9469697,4.24642261 28.6440686,1.80152963 31.3627257,0.0777047176 L31.3636364,5.82880381 C31.3636364,8.01303411 32.9612516,9.94560165 35.4113599,11.1239659 Z" id="Collar" fill="#F2F2F2"></path>
                            </g>
                            <g id="Face" transform="translate(34.515152, 31.750000)" fill="#000000">
                                <g id="👄-Mouth" transform="translate(12.803030, 23.500000)" fill-opacity="0.699999988">
                                    <path d="M0.0606060606,0.625 C0.0606060606,3.52449494 2.57730845,5.875 5.68181818,5.875 L5.68181818,5.875 C8.78632791,5.875 11.3030303,3.52449494 11.3030303,0.625" id="Mouth"></path>
                                </g>
                                <g id="👃🏽-Nose" transform="translate(13.242424, 17.000000)" fill-opacity="0.16">
                                    <path d="M0.424242424,-7.10542736e-15 C0.424242424,1.65685425 2.5814159,3 5.24242424,3 L5.24242424,3 C7.90343258,3 10.0606061,1.65685425 10.0606061,-7.10542736e-15" id="Nose"></path>
                                </g>
                                <g id="👁-Eyes" transform="translate(2.000000, 8.000000)" fill-opacity="0.599999964">
                                    <path d="M4.83993754,0 C6.24836484,0 7.61005303,0.493683953 8.46390305,1.33067329 C8.76497632,1.5851904 8.99671833,1.90924511 9.13005531,2.27576499 C9.14940414,2.31717905 9.16696657,2.35969457 9.18343669,2.40267158 C9.22088738,2.50039517 9.23609096,2.59372869 9.23342035,2.67637464 C9.24909313,2.78144959 9.25757576,2.8897996 9.25757576,3 C9.25757576,4.24264069 8.17898902,5.25 6.84848485,5.25 C5.51798068,5.25 4.43939394,4.24264069 4.43939394,3 C4.43939394,2.48444573 4.62505153,2.00939054 4.93733054,1.629972 C4.90563932,1.62914269 4.87282279,1.62892064 4.83993754,1.62892064 C3.33812063,1.62892064 1.97961512,2.09203195 1.00143618,2.83936545 C0.643788037,3.11261038 0.271707292,2.83439417 0.488552069,2.41774184 C1.22995323,0.993190498 2.89935145,0 4.83993754,0 Z" id="Eye"></path>
                                    <path d="M28.1278163,0 C29.5362436,0 30.8979318,0.493683953 31.7517818,1.33067329 C32.0528551,1.5851904 32.2845971,1.90924511 32.4179341,2.27576499 C32.4372829,2.31717905 32.4548454,2.35969457 32.4713155,2.40267158 C32.5087662,2.50039517 32.5239697,2.59372869 32.5212991,2.67637464 C32.5369719,2.78144959 32.5454545,2.8897996 32.5454545,3 C32.5454545,4.24264069 31.4668678,5.25 30.1363636,5.25 C28.8058595,5.25 27.7272727,4.24264069 27.7272727,3 C27.7272727,2.48444573 27.9129303,2.00939054 28.2252093,1.629972 C28.1935181,1.62914269 28.1607016,1.62892064 28.1278163,1.62892064 C26.6259994,1.62892064 25.2674939,2.09203195 24.289315,2.83936545 C23.9316668,3.11261038 23.5595861,2.83439417 23.7764309,2.41774184 C24.517832,0.993190498 26.1872302,0 28.1278163,0 Z" id="Eye"></path>
                                </g>
                                <g id="✏️-Eyebrow" fill-opacity="0.599999964">
                                    <path d="M6.46738714,1.32943058 C4.15342242,1.63285223 0.536208405,3.53771733 0.824345534,5.71686959 C0.833815236,5.78819226 0.949169654,5.80977636 0.999369468,5.74988859 C2.00457429,4.54796269 9.73077152,2.74633936 12.5383057,3.09723054 C12.795255,3.12942269 12.966539,2.88028609 12.7921088,2.72639863 C11.2975349,1.4085498 8.54028863,1.05570468 6.46738714,1.32943058" id="Eyebrow" transform="translate(6.835580, 3.513836) rotate(5.000000) translate(-6.835580, -3.513836) "></path>
                                    <path d="M30.1674386,1.32943058 C27.8534739,1.63285223 24.2362599,3.53771733 24.524397,5.71686959 C24.5338667,5.78819226 24.6492211,5.80977636 24.699421,5.74988859 C25.7046258,4.54796269 33.430823,2.74633936 36.2383572,3.09723054 C36.4953065,3.12942269 36.6665904,2.88028609 36.4921603,2.72639863 C34.9975864,1.4085498 32.2403401,1.05570468 30.1674386,1.32943058" id="Eyebrow" transform="translate(30.535632, 3.513836) scale(-1, 1) rotate(5.000000) translate(-30.535632, -3.513836) "></path>
                                </g>
                            </g>
                            <g id="Top">
                                <mask id="mask-10" fill="white">
                                    <use xlink:href="#path-9"></use>
                                </mask>
                                <g id="Mask"></g>
                                <g mask="url(#mask-10)">
                                    <g transform="translate(-0.401515, 0.000000)">
                                        <g id="Hat" transform="translate(0.401515, 0.000000)">
                                            <mask id="mask-12" fill="white">
                                                <use xlink:href="#path-11"></use>
                                            </mask>
                                            <g id="Mask-Hair"></g>
                                            <path d="M49.2177468,0.75 L57.1837684,0.75 C64.6120976,0.75 71.0634483,5.86264223 72.7605887,13.0945016 L76.2878788,28.125 L76.2878788,28.125 L30.1136364,28.125 L33.6409264,13.0945016 C35.3380668,5.86264223 41.7894175,0.75 49.2177468,0.75 Z" fill="#1F333C" mask="url(#mask-12)"></path>
                                            <ellipse id="Hipster" fill="#1F333C" mask="url(#mask-12)" cx="53" cy="32.8125" rx="48.9848485" ry="21.5625"></ellipse>
                                            <ellipse id="Very" fill="#15232A" mask="url(#mask-12)" cx="53" cy="30.75" rx="24.8939394" ry="9.375"></ellipse>
                                        </g>
                                        <g id="Facial-Hair" transform="translate(35.674242, 51.000000)">
                                            <mask id="mask-14" fill="white">
                                                <use xlink:href="#path-13"></use>
                                            </mask>
                                            <use id="Moustache-U-a-Question" fill="#28354B" xlink:href="#path-13"></use>
                                            <g id="↳-✂️-Facial-Hair-Color" mask="url(#mask-14)" fill="#2C1B18">
                                                <g transform="translate(-16.000000, -24.000000)" id="Color">
                                                    <rect x="0" y="0" width="67.4545455" height="57"></rect>
                                                </g>
                                            </g>
                                        </g>
                                        <g id="↳-👓-Accessory" transform="translate(26.893939, 33.875000)">
                                            <g id="Wayfarers" filter="url(#filter-15)" transform="translate(0.409091, 0.625000)" fill="#252C2F" fill-rule="nonzero">
                                                <path d="M14.2417703,0 C22.9598386,0 23.6893939,3.797625 23.6893939,7.6875 C23.6893939,12.2132411 19.5623301,15.375 13.6515152,15.375 L12.5441965,15.375 C6.95211939,15.375 3.61363636,12.5009732 3.61363636,7.6875 C3.61363636,3.797625 4.34319171,0 13.06126,0 L14.2417703,0 Z M14.2998173,2.25 L13.003213,2.25 C5.21969697,2.25 5.21969697,4.81538096 5.21969697,8.06308119 C5.21969697,10.7144786 6.47092018,13.875 12.4353003,13.875 L13.6515152,13.875 C18.6162133,13.875 22.0833333,11.485139 22.0833333,8.06308119 L22.0831066,7.76528628 C22.0759643,4.65994013 21.8438405,2.25 14.2998173,2.25 Z" id="Left"></path>
                                                <path d="M39.1357097,0 C47.853778,0 48.5833333,3.797625 48.5833333,7.6875 C48.5833333,12.2132411 44.4562694,15.375 38.5454545,15.375 L37.4381359,15.375 C31.8460588,15.375 28.5075758,12.5009732 28.5075758,7.6875 C28.5075758,3.797625 29.2371311,0 37.9551994,0 L39.1357097,0 Z M39.1937567,2.25 L37.8971524,2.25 C30.1136364,2.25 30.1136364,4.81538096 30.1136364,8.06308119 C30.1136364,10.7144786 31.3661562,13.875 37.3292397,13.875 L38.5454545,13.875 C43.5101527,13.875 46.9772727,11.485139 46.9772727,8.06308119 L46.977046,7.76528628 C46.9699037,4.65994013 46.7377799,2.25 39.1937567,2.25 Z" id="Right"></path>
                                                <path d="M1.18629477,2.16433665 C1.46388774,1.91110926 4.50080234,0 13.0492424,0 C20.2168354,0 21.7341064,0.694752064 24.0307731,1.74445534 L24.1988859,1.82194087 C24.3585597,1.87463211 25.1750983,2.13368618 26.1302289,2.1621732 C27.0004062,2.12729463 27.7447048,1.90702572 27.9621969,1.83644913 C30.5835663,0.645782401 33.1495314,0 39.1477273,0 C47.6961674,0 50.733082,1.91110926 51.0106749,2.16433665 C51.6666959,2.16433665 52.1969697,2.64806589 52.1969697,3.24650497 L52.1969697,4.3286733 C52.1969697,4.92711238 51.6666959,5.41084162 51.0106749,5.41084162 C51.0106749,5.41084162 48.2396352,5.41084162 48.2396352,6.49300994 C48.2396352,7.57517827 47.4517906,4.92711238 47.4517906,4.3286733 L47.4517906,3.27465094 C46.0050339,2.75752557 43.4151954,1.79481576 39.1477273,1.79481576 C34.3931716,1.79481576 32.0252895,2.58226055 29.9941027,3.36417138 L30.0168165,3.41532323 L30.0158139,4.16016031 L29.1255744,6.16636272 L28.0259547,5.76031316 C27.9277465,5.72404847 27.7158439,5.65889699 27.4220195,5.59121416 C26.6028971,5.40252823 25.7607739,5.34508839 25.0160336,5.48786565 C24.7428052,5.5402474 24.4893039,5.61885319 24.2566597,5.72502451 L23.195724,6.20920127 L22.1341953,4.27357616 L22.1813395,3.41315889 L22.2137536,3.34006446 C20.4620363,2.5776989 18.8468257,1.79481576 13.0492424,1.79481576 C8.78199797,1.79481576 6.19221928,2.75716489 4.74517906,3.27430016 L4.74517906,4.3286733 C4.74517906,4.92711238 3.5588843,7.57517827 3.5588843,6.49300994 C3.5588843,5.41084162 1.18629477,5.41084162 1.18629477,5.41084162 C0.531460055,5.41084162 0,4.92711238 0,4.3286733 L0,3.24650497 C0,2.64806589 0.531460055,2.16433665 1.18629477,2.16433665 Z" id="Stuff"></path>
                                            </g>
                                        </g>
                                    </g>
                                </g>
                            </g>
                        </g>
                    </g>
                </g>
            </g>
        </g>
    </g>
</svg>