<?xml version="1.0" encoding="UTF-8"?>
<svg width="323px" height="193px" viewBox="0 0 323 193" version="1.1" xmlns="http://www.w3.org/2000/svg" xmlns:xlink="http://www.w3.org/1999/xlink">
    <!-- Generator: Sketch 64 (93537) - https://sketch.com -->
    <title>post-it/ with avatar</title>
    <desc>Created with Sketch.</desc>
    <defs>
        <rect id="path-1" x="0" y="0" width="241" height="180"></rect>
        <filter x="-1.2%" y="-1.7%" width="104.1%" height="106.7%" filterUnits="objectBoundingBox" id="filter-2">
            <feMorphology radius="2" operator="erode" in="SourceAlpha" result="shadowSpreadOuter1"></feMorphology>
            <feOffset dx="2" dy="4" in="shadowSpreadOuter1" result="shadowOffsetOuter1"></feOffset>
            <feGaussianBlur stdDeviation="3" in="shadowOffsetOuter1" result="shadowBlurOuter1"></feGaussianBlur>
            <feColorMatrix values="0 0 0 0 0.233723958   0 0 0 0 0.233723958   0 0 0 0 0.233723958  0 0 0 0.5 0" type="matrix" in="shadowBlurOuter1"></feColorMatrix>
        </filter>
        <ellipse id="path-3" cx="48.1818182" cy="45" rx="48.1818182" ry="45"></ellipse>
        <path d="M-1.28382153e-14,60 L-1.28382153e-14,-1.53210777e-14 L106,-1.53210777e-14 L106,60 L101.181818,60 C101.181818,84.8528137 79.6100834,105 53,105 C26.3899166,105 4.81818182,84.8528137 4.81818182,60 L4.81818182,60 L-1.28382153e-14,60 Z" id="path-5"></path>
        <path d="M40.1515152,0 C52.5695541,-2.28115674e-15 62.6363636,10.0668096 62.6363636,22.4848485 L62.6368703,23.3167032 C64.9153908,23.699217 66.6515152,25.6809526 66.6515152,28.0681818 L66.6515152,32.6818182 C66.6515152,35.1745564 64.7585355,37.2251655 62.3316816,37.4745402 C61.1106078,44.8336214 56.3143906,50.9859693 49.7874698,54.0864093 L49.787,61.125 L51.5030303,61.125 C67.4088311,61.125 80.3030303,74.0191992 80.3030303,89.925 L80.3030303,91.5 L0,91.5 L0,89.925 C-9.05332616e-15,74.0191992 12.8941992,61.125 28.8,61.125 L30.515,61.125 L30.5155605,54.0864093 C23.9886397,50.9859693 19.1924225,44.8336214 17.9710187,37.4734753 C15.5444948,37.2251655 13.6515152,35.1745564 13.6515152,32.6818182 L13.6515152,28.0681818 C13.6515152,25.6809526 15.3876395,23.699217 17.66616,23.3167032 L17.6666667,22.4848485 C17.6666667,10.0668096 27.7334762,2.28115674e-15 40.1515152,0 Z" id="path-7"></path>
        <path d="M64.3515152,10.8943963 C80.2573159,10.8943963 93.1515152,23.7885955 93.1515152,39.6943963 L93.1515152,41.25 L12.8484848,41.25 L12.8484848,39.6943963 C12.8484848,23.7885955 25.7426841,10.8943963 41.6484848,10.8943963 L42.2363449,10.894384 C42.1853353,11.2632346 42.1590909,11.638665 42.1590909,12.0193963 C42.1590909,17.1970658 47.0127312,21.3943963 53,21.3943963 C58.9872688,21.3943963 63.8409091,17.1970658 63.8409091,12.0193963 C63.8409091,11.638665 63.8146647,11.2632346 63.7636551,10.894384 L64.3515152,10.8943963 Z" id="path-9"></path>
        <rect id="path-11" x="0" y="0" width="106" height="105"></rect>
        <path d="M106,5.5067062e-14 L106,105 L93.1515152,105 L93.1515152,103.425 C93.1515152,87.5191992 80.2573159,74.625 64.3515152,74.625 L64.3515152,74.625 L62.636,74.625 L62.6369531,67.728845 C69.6769708,64.6051155 74.7032614,58.1651788 75.4015327,50.5704964 C77.7206553,50.2247524 79.5,48.2235794 79.5,45.8068182 L79.5,45.8068182 L79.5,41.5681818 C79.5,39.1806052 77.7633703,37.1986402 75.4843602,36.8165363 L75.4848485,34.5 C75.4848485,31.5204967 74.820471,28.6859197 73.6225297,26.1184442 C69.6367447,19.875 35.8603716,20.1762747 32.4062388,26.0570556 C31.1901703,28.640708 30.5151515,31.4967302 30.5151515,34.5 L30.5151515,34.5 L30.5156398,36.8165363 C28.2366297,37.1986402 26.5,39.1806052 26.5,41.5681818 L26.5,41.5681818 L26.5,45.8068182 C26.5,48.2235794 28.2793447,50.2247524 30.5994532,50.5717564 C31.2967386,58.1651788 36.3230292,64.6051155 43.3630469,67.728845 L43.363,74.625 L41.6484848,74.625 C25.9017421,74.625 13.10667,87.2626046 12.8523432,102.948739 L12.8484848,103.425 L12.8484848,105 L0,105 L0,5.5067062e-14 L106,5.5067062e-14 Z" id="path-13"></path>
        <path d="M42.4048358,25.1743853 C44.7232186,26.0015355 46.7746165,28.3436192 50.3346421,27.3106424 C50.4827564,27.2676172 50.6274861,27.3918571 50.5830789,27.5282482 C50.0316439,29.2193742 46.9663258,30.3775829 45.9247865,30.4155244 C41.3719552,30.5811014 37.7046065,27.3114373 33.7275317,27.0605639 C29.7500582,27.3115359 26.082752,30.5810989 21.5301236,30.4155244 C20.4884488,30.3775829 17.4232659,29.2193742 16.8718308,27.5282482 C16.8272882,27.3918571 16.9720179,27.2676172 17.1201323,27.3106424 C20.6801581,28.3436192 22.7315561,26.0015355 25.0499391,25.1743853 C27.1336553,24.4308485 31.0002686,24.6417138 33.7273233,25.9863675 C36.453641,24.641761 40.3208865,24.4307653 42.4048358,25.1743853 Z" id="path-15"></path>
        <filter x="-4.8%" y="-15.7%" width="111.1%" height="131.8%" filterUnits="objectBoundingBox" id="filter-17">
            <feOffset dx="0" dy="1" in="SourceAlpha" result="shadowOffsetOuter1"></feOffset>
            <feColorMatrix values="0 0 0 0 0   0 0 0 0 0   0 0 0 0 0  0 0 0 0.2 0" type="matrix" in="shadowOffsetOuter1" result="shadowMatrixOuter1"></feColorMatrix>
            <feMerge>
                <feMergeNode in="shadowMatrixOuter1"></feMergeNode>
                <feMergeNode in="SourceGraphic"></feMergeNode>
            </feMerge>
        </filter>
    </defs>
    <g id="Portfolio-High-f-i" stroke="none" stroke-width="1" fill="none" fill-rule="evenodd">
        <g id="Case-studies-price-my-airbnb" transform="translate(-550.000000, -1663.000000)">
            <g id="First-data" transform="translate(157.000000, 1663.000000)">
                <g id="post-it/-with-avatar" transform="translate(389.000000, 0.000000)">
                    <g id="David">
                        <g id="post-it-/-only" transform="translate(82.000000, 7.000000)">
                            <g id="Note-/-Square-/-Yellow-Copy">
                                <g id="Rectangle">
                                    <use fill="black" fill-opacity="1" filter="url(#filter-2)" xlink:href="#path-1"></use>
                                    <use fill="#F1E41B" fill-rule="evenodd" xlink:href="#path-1"></use>
                                </g>
                                <rect id="Rectangle" fill="#EBDE0E" x="0" y="-3.55271368e-15" width="241" height="54.9539171"></rect>
                                <text id="David" font-family="Helvetica-Bold, Helvetica" font-size="18" font-weight="bold" fill="#2D2D2D">
                                    <tspan x="27.1688312" y="34">David</tspan>
                                </text>
                                <text id="“The-tool-doesn’t-al" font-family="Helvetica" font-size="16" font-weight="normal" fill="#2D2D2D">
                                    <tspan x="27" y="82">“The tool doesn’t always </tspan>
                                    <tspan x="27" y="101">know when events or </tspan>
                                    <tspan x="27" y="120">peak times are happening </tspan>
                                    <tspan x="27" y="139">and just compares your </tspan>
                                    <tspan x="27" y="158">listing with other listings.”</tspan>
                                </text>
                            </g>
                        </g>
                        <g id="Avataaar/Circle">
                            <g id="Circle" stroke-width="1" fill-rule="evenodd" transform="translate(4.818182, 15.000000)">
                                <mask id="mask-4" fill="white">
                                    <use xlink:href="#path-3"></use>
                                </mask>
                                <use id="Circle-Background" fill="#E6E6E6" xlink:href="#path-3"></use>
                                <g id="Color/Palette/Pastel-Red" mask="url(#mask-4)" fill="#FFAFB9">
                                    <rect id="🖍Color" x="0" y="0" width="96.3636364" height="90"></rect>
                                </g>
                            </g>
                            <mask id="mask-6" fill="white">
                                <use xlink:href="#path-5"></use>
                            </mask>
                            <g id="Mask"></g>
                            <g id="Avataaar" stroke-width="1" fill-rule="evenodd" mask="url(#mask-6)">
                                <g id="Body" transform="translate(12.848485, 13.500000)">
                                    <mask id="mask-8" fill="white">
                                        <use xlink:href="#path-7"></use>
                                    </mask>
                                    <use fill="#D0C6AC" xlink:href="#path-7"></use>
                                    <g id="Skin/👶🏼-04-Light" mask="url(#mask-8)" fill="#EDB98A">
                                        <g transform="translate(-12.848485, 0.000000)" id="Color">
                                            <rect x="0" y="0" width="106" height="91.5"></rect>
                                        </g>
                                    </g>
                                    <path d="M17.6666667,33.7651515 C17.6666667,46.1831904 27.7334762,56.25 40.1515152,56.25 C52.5695541,56.25 62.6363636,46.1831904 62.6363636,33.7651515 L62.6363636,33.7651515 L62.6363636,36.7651515 C62.6363636,49.1831904 52.5695541,59.25 40.1515152,59.25 C27.7334762,59.25 17.6666667,49.1831904 17.6666667,36.7651515 Z" id="Neck-Shadow" fill-opacity="0.100000001" fill="#000000" mask="url(#mask-8)"></path>
                                </g>
                                <g id="Clothing/Blazer-+-Sweater" transform="translate(0.000000, 63.750000)">
                                    <mask id="mask-10" fill="white">
                                        <use xlink:href="#path-9"></use>
                                    </mask>
                                    <use id="Clothes" fill="#E6E6E6" fill-rule="evenodd" xlink:href="#path-9"></use>
                                    <g id="Color/Palette/Gray-01" mask="url(#mask-10)" fill="#E6E6E6" fill-rule="evenodd">
                                        <rect id="🖍Color" x="0" y="0" width="106" height="41.25"></rect>
                                    </g>
                                    <g id="Blazer" stroke-width="1" fill-rule="evenodd" transform="translate(12.848485, 10.500000)">
                                        <path d="M25.6969697,15.1875 C25.6969697,20.8911733 26.4843473,26.2207448 27.8500513,30.7509525 L0,30.75 L0,29.1943963 C-5.36373678e-15,13.684391 12.260472,1.03797241 27.6183601,0.418196294 C26.3958945,4.77205414 25.6969697,9.81373918 25.6969697,15.1875 Z M80.3030303,29.1943963 L80.3030303,30.75 L52.8544942,30.7509525 C54.2201981,26.2207448 55.0075758,20.8911733 55.0075758,15.1875 C55.0075758,9.82156005 54.3106839,4.78672999 53.0909711,0.437113215 C68.2580068,1.26141094 80.3030303,13.8212706 80.3030303,29.1943963 Z" id="Saco" fill="#3A4C5A"></path>
                                        <path d="M59.8257576,21.75 L63.7090899,19.0298356 C64.2684526,18.6380179 65.0148489,18.6444343 65.5673929,19.0458106 L68.2575758,21 L68.2575758,21 L59.8257576,21.75 Z" id="Pocket-hanky" fill="#E6E6E6"></path>
                                        <path d="M27.7045455,0 C26.0984848,7.25 26.7676768,17.5 29.7121212,30.75 L23.2878788,30.75 L17.6666667,17.25 L20.0757576,13.875 L17.6666667,11.625 L25.2954545,0.375 C26.1095904,0.138464489 26.9126207,0.0134644889 27.7045455,0 Z" id="Wing" fill="#2F4351"></path>
                                        <path d="M60.6287879,0 C59.0227273,7.25 59.6919192,17.5 62.6363636,30.75 L56.2121212,30.75 L50.5909091,17.25 L53,13.875 L50.5909091,11.625 L58.219697,0.375 C59.0338328,0.138464489 59.8368631,0.0134644889 60.6287879,0 Z" id="Wing" fill="#2F4351" transform="translate(56.613636, 15.375000) scale(-1, 1) translate(-56.613636, -15.375000) "></path>
                                    </g>
                                    <path d="M62.6372743,8.07770472 C65.3559314,9.80152963 67.0530303,12.2464226 67.0530303,14.9579551 C67.0530303,17.7334854 65.2748757,20.2296413 62.4430777,21.9590522 L60.0579697,20.2031284 L58.219697,20.3279576 L58.6212121,19.1462933 L58.6229697,19.1471284 L58.5896477,19.1234812 C61.0391864,17.9450718 62.6363636,16.0127347 62.6363636,13.8288038 Z M47.4113599,19.1239659 L47.3779697,19.1471284 L47.780303,20.3279576 L45.9419697,20.2031284 L43.5569223,21.9590522 C40.8070745,20.2796892 39.0507692,17.8773172 38.9514197,15.1982069 L38.9469697,14.9579551 C38.9469697,12.2464226 40.6440686,9.80152963 43.3627257,8.07770472 L43.3636364,13.8288038 C43.3636364,16.0130341 44.9612516,17.9456017 47.4113599,19.1239659 Z" id="Collar" fill="#F2F2F2" fill-rule="evenodd"></path>
                                </g>
                                <g id="Face" transform="translate(30.515152, 30.750000)" fill="#000000">
                                    <g id="Mouth/Default" transform="translate(0.803030, 19.500000)" fill-opacity="0.699999988">
                                        <path d="M16.0606061,5.625 C16.0606061,8.52449494 18.5773085,10.875 21.6818182,10.875 L21.6818182,10.875 C24.7863279,10.875 27.3030303,8.52449494 27.3030303,5.625" id="Mouth"></path>
                                    </g>
                                    <g id="Nose/Default" transform="translate(11.242424, 15.000000)" fill-opacity="0.16">
                                        <path d="M6.42424242,3 C6.42424242,4.65685425 8.5814159,6 11.2424242,6 L11.2424242,6 C13.9034326,6 16.0606061,4.65685425 16.0606061,3" id="Nose"></path>
                                    </g>
                                    <g id="Eyes/Side-😒" transform="translate(0.000000, 3.000000)" fill-opacity="0.599999964">
                                        <path d="M10.8399375,6 C12.2483648,6 13.610053,6.49368395 14.463903,7.33067329 C14.7649763,7.5851904 14.9967183,7.90924511 15.1300553,8.27576499 C15.1494041,8.31717905 15.1669666,8.35969457 15.1834367,8.40267158 C15.2208874,8.50039517 15.236091,8.59372869 15.2334204,8.67637464 C15.2490931,8.78144959 15.2575758,8.8897996 15.2575758,9 C15.2575758,10.2426407 14.178989,11.25 12.8484848,11.25 C11.5179807,11.25 10.4393939,10.2426407 10.4393939,9 C10.4393939,8.48444573 10.6250515,8.00939054 10.9373305,7.629972 C10.9056393,7.62914269 10.8728228,7.62892064 10.8399375,7.62892064 C9.33812063,7.62892064 7.97961512,8.09203195 7.00143618,8.83936545 C6.64378804,9.11261038 6.27170729,8.83439417 6.48855207,8.41774184 C7.22995323,6.9931905 8.89935145,6 10.8399375,6 Z" id="Eye"></path>
                                        <path d="M34.1278163,6 C35.5362436,6 36.8979318,6.49368395 37.7517818,7.33067329 C38.0528551,7.5851904 38.2845971,7.90924511 38.4179341,8.27576499 C38.4372829,8.31717905 38.4548454,8.35969457 38.4713155,8.40267158 C38.5087662,8.50039517 38.5239697,8.59372869 38.5212991,8.67637464 C38.5369719,8.78144959 38.5454545,8.8897996 38.5454545,9 C38.5454545,10.2426407 37.4668678,11.25 36.1363636,11.25 C34.8058595,11.25 33.7272727,10.2426407 33.7272727,9 C33.7272727,8.48444573 33.9129303,8.00939054 34.2252093,7.629972 C34.1935181,7.62914269 34.1607016,7.62892064 34.1278163,7.62892064 C32.6259994,7.62892064 31.2674939,8.09203195 30.289315,8.83936545 C29.9316668,9.11261038 29.5595861,8.83439417 29.7764309,8.41774184 C30.517832,6.9931905 32.1872302,6 34.1278163,6 Z" id="Eye"></path>
                                    </g>
                                    <g id="Eyebrow/Natural/Default-Natural" fill-opacity="0.599999964">
                                        <path d="M10.4673871,2.32943058 C8.15342242,2.63285223 4.53620841,4.53771733 4.82434553,6.71686959 C4.83381524,6.78819226 4.94916965,6.80977636 4.99936947,6.74988859 C6.00457429,5.54796269 13.7307715,3.74633936 16.5383057,4.09723054 C16.795255,4.12942269 16.966539,3.88028609 16.7921088,3.72639863 C15.2975349,2.4085498 12.5402886,2.05570468 10.4673871,2.32943058" id="Eyebrow" transform="translate(10.835580, 4.513836) rotate(5.000000) translate(-10.835580, -4.513836) "></path>
                                        <path d="M34.1674386,2.32943058 C31.8534739,2.63285223 28.2362599,4.53771733 28.524397,6.71686959 C28.5338667,6.78819226 28.6492211,6.80977636 28.699421,6.74988859 C29.7046258,5.54796269 37.430823,3.74633936 40.2383572,4.09723054 C40.4953065,4.12942269 40.6665904,3.88028609 40.4921603,3.72639863 C38.9975864,2.4085498 36.2403401,2.05570468 34.1674386,2.32943058" id="Eyebrow" transform="translate(34.535632, 4.513836) scale(-1, 1) rotate(5.000000) translate(-34.535632, -4.513836) "></path>
                                    </g>
                                </g>
                                <g id="Top">
                                    <mask id="mask-12" fill="white">
                                        <use xlink:href="#path-11"></use>
                                    </mask>
                                    <g id="Mask"></g>
                                    <g id="Top/Accesories/Hat" mask="url(#mask-12)">
                                        <g transform="translate(-0.401515, 0.000000)">
                                            <g id="Hat" stroke-width="1" fill-rule="evenodd" transform="translate(0.401515, 0.000000)">
                                                <mask id="mask-14" fill="white">
                                                    <use xlink:href="#path-13"></use>
                                                </mask>
                                                <g id="Mask-Hair"></g>
                                                <path d="M49.2177468,0.75 L57.1837684,0.75 C64.6120976,0.75 71.0634483,5.86264223 72.7605887,13.0945016 L76.2878788,28.125 L76.2878788,28.125 L30.1136364,28.125 L33.6409264,13.0945016 C35.3380668,5.86264223 41.7894175,0.75 49.2177468,0.75 Z" fill="#1F333C" mask="url(#mask-14)"></path>
                                                <ellipse id="Hipster" fill="#1F333C" mask="url(#mask-14)" cx="53" cy="32.8125" rx="48.9848485" ry="21.5625"></ellipse>
                                                <ellipse id="Very" fill="#15232A" mask="url(#mask-14)" cx="53" cy="30.75" rx="24.8939394" ry="9.375"></ellipse>
                                            </g>
                                            <g id="Facial-Hair/Moustache-Fancy" transform="translate(19.674242, 27.000000)">
                                                <mask id="mask-16" fill="white">
                                                    <use xlink:href="#path-15"></use>
                                                </mask>
                                                <use id="Moustache-U-a-Question" fill="#28354B" fill-rule="evenodd" xlink:href="#path-15"></use>
                                                <g id="Color/Hair/Black" mask="url(#mask-16)" fill="#2C1B18" fill-rule="evenodd">
                                                    <rect id="Color" x="0" y="0" width="67.4545455" height="57"></rect>
                                                </g>
                                            </g>
                                            <g id="Top/_Resources/Prescription-02" transform="translate(24.893939, 31.875000)" fill-rule="evenodd" stroke-width="1">
                                                <g id="Wayfarers" filter="url(#filter-17)" transform="translate(2.409091, 2.625000)" fill="#252C2F">
                                                    <path d="M14.2417703,0 C22.9598386,0 23.6893939,3.797625 23.6893939,7.6875 C23.6893939,12.2132411 19.5623301,15.375 13.6515152,15.375 L12.5441965,15.375 C6.95211939,15.375 3.61363636,12.5009732 3.61363636,7.6875 C3.61363636,3.797625 4.34319171,0 13.06126,0 L14.2417703,0 Z M14.2998173,2.25 L13.003213,2.25 C5.21969697,2.25 5.21969697,4.81538096 5.21969697,8.06308119 C5.21969697,10.7144786 6.47092018,13.875 12.4353003,13.875 L13.6515152,13.875 C18.6162133,13.875 22.0833333,11.485139 22.0833333,8.06308119 L22.0831066,7.76528628 C22.0759643,4.65994013 21.8438405,2.25 14.2998173,2.25 Z" id="Left" fill-rule="nonzero"></path>
                                                    <path d="M39.1357097,0 C47.853778,0 48.5833333,3.797625 48.5833333,7.6875 C48.5833333,12.2132411 44.4562694,15.375 38.5454545,15.375 L37.4381359,15.375 C31.8460588,15.375 28.5075758,12.5009732 28.5075758,7.6875 C28.5075758,3.797625 29.2371311,0 37.9551994,0 L39.1357097,0 Z M39.1937567,2.25 L37.8971524,2.25 C30.1136364,2.25 30.1136364,4.81538096 30.1136364,8.06308119 C30.1136364,10.7144786 31.3661562,13.875 37.3292397,13.875 L38.5454545,13.875 C43.5101527,13.875 46.9772727,11.485139 46.9772727,8.06308119 L46.977046,7.76528628 C46.9699037,4.65994013 46.7377799,2.25 39.1937567,2.25 Z" id="Right" fill-rule="nonzero"></path>
                                                    <path d="M1.18629477,2.16433665 C1.46388774,1.91110926 4.50080234,0 13.0492424,0 C20.2168354,0 21.7341064,0.694752064 24.0307731,1.74445534 L24.1988859,1.82194087 C24.3585597,1.87463211 25.1750983,2.13368618 26.1302289,2.1621732 C27.0004062,2.12729463 27.7447048,1.90702572 27.9621969,1.83644913 C30.5835663,0.645782401 33.1495314,0 39.1477273,0 C47.6961674,0 50.733082,1.91110926 51.0106749,2.16433665 C51.6666959,2.16433665 52.1969697,2.64806589 52.1969697,3.24650497 L52.1969697,4.3286733 C52.1969697,4.92711238 51.6666959,5.41084162 51.0106749,5.41084162 C51.0106749,5.41084162 48.2396352,5.41084162 48.2396352,6.49300994 C48.2396352,7.57517827 47.4517906,4.92711238 47.4517906,4.3286733 L47.4517906,3.27465094 C46.0050339,2.75752557 43.4151954,1.79481576 39.1477273,1.79481576 C34.3931716,1.79481576 32.0252895,2.58226055 29.9941027,3.36417138 L30.0168165,3.41532323 L30.0158139,4.16016031 L29.1255744,6.16636272 L28.0259547,5.76031316 C27.9277465,5.72404847 27.7158439,5.65889699 27.4220195,5.59121416 C26.6028971,5.40252823 25.7607739,5.34508839 25.0160336,5.48786565 C24.7428052,5.5402474 24.4893039,5.61885319 24.2566597,5.72502451 L23.195724,6.20920127 L22.1341953,4.27357616 L22.1813395,3.41315889 L22.2137536,3.34006446 C20.4620363,2.5776989 18.8468257,1.79481576 13.0492424,1.79481576 C8.78199797,1.79481576 6.19221928,2.75716489 4.74517906,3.27430016 L4.74517906,4.3286733 C4.74517906,4.92711238 3.5588843,7.57517827 3.5588843,6.49300994 C3.5588843,5.41084162 1.18629477,5.41084162 1.18629477,5.41084162 C0.531460055,5.41084162 0,4.92711238 0,4.3286733 L0,3.24650497 C0,2.64806589 0.531460055,2.16433665 1.18629477,2.16433665 Z" id="Stuff" fill-rule="nonzero"></path>
                                                </g>
                                            </g>
                                        </g>
                                    </g>
                                </g>
                            </g>
                        </g>
                    </g>
                </g>
            </g>
        </g>
    </g>
</svg>