<?xml version="1.0" encoding="UTF-8"?>
<svg width="323px" height="137px" viewBox="0 0 323 137" version="1.1" xmlns="http://www.w3.org/2000/svg" xmlns:xlink="http://www.w3.org/1999/xlink">
    <!-- Generator: Sketch 64 (93537) - https://sketch.com -->
    <title>Galen</title>
    <desc>Created with Sketch.</desc>
    <defs>
        <rect id="path-1" x="0" y="0" width="241" height="131"></rect>
        <filter x="-1.2%" y="-2.3%" width="104.1%" height="109.2%" filterUnits="objectBoundingBox" id="filter-2">
            <feMorphology radius="2" operator="erode" in="SourceAlpha" result="shadowSpreadOuter1"></feMorphology>
            <feOffset dx="2" dy="4" in="shadowSpreadOuter1" result="shadowOffsetOuter1"></feOffset>
            <feGaussianBlur stdDeviation="3" in="shadowOffsetOuter1" result="shadowBlurOuter1"></feGaussianBlur>
            <feColorMatrix values="0 0 0 0 0.235294118   0 0 0 0 0.235294118   0 0 0 0 0.235294118  0 0 0 0.5 0" type="matrix" in="shadowBlurOuter1"></feColorMatrix>
        </filter>
        <ellipse id="path-3" cx="48.1818182" cy="45" rx="48.1818182" ry="45"></ellipse>
        <path d="M-1.28382153e-14,60 L-1.28382153e-14,-1.53210777e-14 L106,-1.53210777e-14 L106,60 L101.181818,60 C101.181818,84.8528137 79.6100834,105 53,105 C26.3899166,105 4.81818182,84.8528137 4.81818182,60 L4.81818182,60 L-1.28382153e-14,60 Z" id="path-5"></path>
        <path d="M40.1515152,0 C52.5695541,-2.28115674e-15 62.6363636,10.0668096 62.6363636,22.4848485 L62.6368703,23.3167032 C64.9153908,23.699217 66.6515152,25.6809526 66.6515152,28.0681818 L66.6515152,32.6818182 C66.6515152,35.1745564 64.7585355,37.2251655 62.3316816,37.4745402 C61.1106078,44.8336214 56.3143906,50.9859693 49.7874698,54.0864093 L49.787,61.125 L51.5030303,61.125 C67.4088311,61.125 80.3030303,74.0191992 80.3030303,89.925 L80.3030303,91.5 L0,91.5 L0,89.925 C-9.05332616e-15,74.0191992 12.8941992,61.125 28.8,61.125 L30.515,61.125 L30.5155605,54.0864093 C23.9886397,50.9859693 19.1924225,44.8336214 17.9710187,37.4734753 C15.5444948,37.2251655 13.6515152,35.1745564 13.6515152,32.6818182 L13.6515152,28.0681818 C13.6515152,25.6809526 15.3876395,23.699217 17.66616,23.3167032 L17.6666667,22.4848485 C17.6666667,10.0668096 27.7334762,2.28115674e-15 40.1515152,0 Z" id="path-7"></path>
        <path d="M39.75,12.1875 C39.75,16.6402958 45.7721093,20.25 53.2007576,20.25 C60.6294059,20.25 66.6515152,16.6402958 66.6515152,12.1875 C66.6515152,11.7749139 66.5998126,11.3695662 66.5000792,10.9736577 C81.4024455,12.0723639 93.1515152,24.511309 93.1515152,39.6943963 L93.1515152,41.25 L12.8484848,41.25 L12.8484848,39.6943963 C12.8484848,24.3727107 24.8130355,11.8454956 39.9088132,10.9460746 C39.8040855,11.3510984 39.75,11.7655133 39.75,12.1875 Z" id="path-9"></path>
        <path d="M5.62121212,5.2680445 C9.4797658,5.2680445 11.2424242,6.93729246 11.2424242,4.33566437 C11.2424242,1.73403628 8.72572185,0 5.62121212,0 C2.51670239,0 0,1.73403628 0,4.33566437 C0,6.93729246 1.76265844,5.2680445 5.62121212,5.2680445 Z" id="path-11"></path>
        <path d="M5.62121212,5.2680445 C9.4797658,5.2680445 11.2424242,6.93729246 11.2424242,4.33566437 C11.2424242,1.73403628 8.72572185,0 5.62121212,0 C2.51670239,0 0,1.73403628 0,4.33566437 C0,6.93729246 1.76265844,5.2680445 5.62121212,5.2680445 Z" id="path-13"></path>
        <rect id="path-15" x="0" y="0" width="106" height="105"></rect>
        <path d="M23.2878788,0.375 C46.1742424,0.102886059 46.4630035,20.1382191 46.1742424,24 C46.0349744,24.558168 45.5026056,24.4585021 45.3712121,24 C45.5570092,23.4171458 44.0478403,13.218027 40.1515152,10.5 C39.4451274,10.0411258 37.2415581,9.60381244 34.2727398,9.27713211 L35.7348485,6 L32.9323669,9.14200857 C30.1087658,8.88181089 26.7642937,8.71930226 23.4133982,8.71708802 C15.6623899,8.71196621 7.87701337,9.55627021 6.42424242,10.5 C2.52791728,13.218027 1.01874835,23.4171458 1.20454545,24 C1.07315198,24.4585021 0.540783206,24.558168 0.401515152,24 C0.112754105,20.1382191 0.401515152,0.647113941 23.2878788,0.375 Z" id="path-17"></path>
    </defs>
    <g id="Portfolio-High-f-i" stroke="none" stroke-width="1" fill="none" fill-rule="evenodd">
        <g id="Case-studies-price-my-airbnb" transform="translate(-550.000000, -1875.000000)">
            <g id="First-data" transform="translate(157.000000, 1663.000000)">
                <g id="Galen" transform="translate(389.000000, 204.000000)">
                    <g id="Post-it" transform="translate(82.000000, 8.000000)">
                        <g id="Note-/-Square-/-Yellow">
                            <g id="post-it">
                                <g id="Rectangle">
                                    <use fill="black" fill-opacity="1" filter="url(#filter-2)" xlink:href="#path-1"></use>
                                    <use fill="#F1E41B" fill-rule="evenodd" xlink:href="#path-1"></use>
                                </g>
                            </g>
                            <rect id="Rectangle" fill="#EBDE0E" x="0" y="0" width="240" height="44"></rect>
                            <text id="Galen" font-family="Helvetica-Bold, Helvetica" font-size="18" font-weight="bold" fill="#2D2D2D">
                                <tspan x="27" y="30">Galen</tspan>
                            </text>
                            <text id="“No-tool-used,-compa" font-family="Helvetica" font-size="16" font-weight="normal" fill="#2D2D2D">
                                <tspan x="27" y="71">“No tool used, compare to </tspan>
                                <tspan x="27" y="90">nearby Airbnb, lower the </tspan>
                                <tspan x="27" y="109">price when not booked.”</tspan>
                            </text>
                        </g>
                    </g>
                    <g id="Avataaar/Circle">
                        <g id="Circle" stroke-width="1" fill-rule="evenodd" transform="translate(4.818182, 15.000000)">
                            <mask id="mask-4" fill="white">
                                <use xlink:href="#path-3"></use>
                            </mask>
                            <use id="Circle-Background" fill="#E6E6E6" xlink:href="#path-3"></use>
                            <g id="Color/Palette/Pastel-Red" mask="url(#mask-4)" fill="#FFAFB9">
                                <rect id="🖍Color" x="0" y="0" width="96.3636364" height="90"></rect>
                            </g>
                        </g>
                        <mask id="mask-6" fill="white">
                            <use xlink:href="#path-5"></use>
                        </mask>
                        <g id="Mask"></g>
                        <g id="Avataaar" stroke-width="1" fill-rule="evenodd" mask="url(#mask-6)">
                            <g id="Body" transform="translate(12.848485, 13.500000)">
                                <mask id="mask-8" fill="white">
                                    <use xlink:href="#path-7"></use>
                                </mask>
                                <use fill="#D0C6AC" xlink:href="#path-7"></use>
                                <g id="Skin/👶🏾-02-Dark-Brown" mask="url(#mask-8)" fill="#AE5D29">
                                    <g transform="translate(-12.848485, 0.000000)" id="Color">
                                        <rect x="0" y="0" width="106" height="91.5"></rect>
                                    </g>
                                </g>
                                <path d="M17.6666667,33.7651515 C17.6666667,46.1831904 27.7334762,56.25 40.1515152,56.25 C52.5695541,56.25 62.6363636,46.1831904 62.6363636,33.7651515 L62.6363636,33.7651515 L62.6363636,36.7651515 C62.6363636,49.1831904 52.5695541,59.25 40.1515152,59.25 C27.7334762,59.25 17.6666667,49.1831904 17.6666667,36.7651515 Z" id="Neck-Shadow" fill-opacity="0.100000001" fill="#000000" mask="url(#mask-8)"></path>
                            </g>
                            <g id="Clothing/Graphic-Shirt" transform="translate(0.000000, 63.750000)">
                                <mask id="mask-10" fill="white">
                                    <use xlink:href="#path-9"></use>
                                </mask>
                                <use id="Clothes" fill="#E6E6E6" fill-rule="evenodd" xlink:href="#path-9"></use>
                                <g id="Color/Palette/Blue-01" mask="url(#mask-10)" fill="#65C9FF" fill-rule="evenodd">
                                    <rect id="🖍Color" x="0" y="0" width="106" height="41.25"></rect>
                                </g>
                                <g id="Clothing/Graphic/Bat" mask="url(#mask-10)" fill="#FFFFFF" fill-rule="evenodd">
                                    <g transform="translate(30.916667, 21.750000)" id="Batman!">
                                        <path d="M35.2069526,5.02619916 C34.6473487,2.61443617 32.7136733,1.22003411 30.1876911,0.681330632 C29.1735346,0.465096527 25.8062281,-0.213885408 26.330754,1.58424488 C26.5686268,2.39905742 26.4363535,3.07102543 25.7070231,3.74675701 C24.996328,4.40486825 23.6065445,4.57149168 22.9157634,3.74248023 C22.323822,3.0318501 23.0871341,1.97206349 22.6260044,1.27990906 C22.4469604,1.010985 22.1380181,0.873614758 21.8119022,1.00533965 C21.3536957,1.19043878 21.5975975,1.58835059 21.3811004,1.87455285 C21.0403687,2.32566783 20.881056,2.18453402 20.5743061,1.73478761 C20.3815598,1.45217785 20.5710176,1.14424953 20.0737137,1.0234732 C19.4982151,0.883707964 19.3098534,1.33396759 19.2577845,1.7443676 C19.2250816,2.00200096 19.3871347,2.41633562 19.3927983,2.67756147 C19.4037602,3.18906462 19.3564414,3.92364472 19.1017604,4.37578613 C18.650131,5.1772551 18.0158037,4.92081925 17.3418308,4.4117111 C16.5467292,3.81125088 16.3134239,3.14253323 16.4672556,2.23038113 C16.6515979,1.1367224 16.5847304,0.0897661249 15.1505513,0.773880198 C13.1346618,1.7354719 11.2640172,3.44960618 10.096029,5.24363076 C9.11439277,6.75093987 8.34176302,8.57849442 9.2114054,10.2958791 C10.0989522,12.0490176 11.5651034,13.5547871 13.6146094,14.0023095 C14.1451643,14.1181248 15.6589997,14.6812915 16.1623327,14.2089637 C16.9439146,13.4750678 15.139224,12.7906116 14.7829629,12.3434313 C14.277803,11.7096122 13.8444434,10.5004803 14.3989318,9.78540234 C15.1052422,8.87513203 15.8438901,9.38252946 16.4245043,10.0266129 C16.8803357,10.5321285 17.5281828,11.836376 18.2335796,10.7849719 C18.7191909,10.0608271 18.6757088,8.87188167 20.0004518,9.3912541 C21.8933855,10.1330192 21.9514835,13.5582085 22.2889267,15.1253925 C22.4363639,15.8113884 23.1061347,16.6492956 23.6825468,15.6972838 C23.9993451,15.1738057 23.8283398,14.0390899 23.7706073,13.4985046 C23.6514882,12.3791852 23.337065,11.2785125 23.7265771,10.1696284 C23.9518437,9.52811112 24.5299001,8.60980046 25.3847439,9.10317005 C26.0771692,9.50279257 25.7886891,11.2841579 26.7306799,11.2809075 C27.5604941,11.2781704 27.3341313,9.85913406 27.775895,9.3912541 C28.4502333,8.67703148 29.749764,9.01660798 30.1485937,9.85947621 C30.685543,10.9938499 29.2643355,11.7816332 29.3280971,12.7788077 C29.3902144,13.7506637 30.7310348,13.3713986 31.2919176,13.1248849 C32.4447419,12.6185139 33.3469045,11.6800168 33.972097,10.6607741 C34.938752,9.08452328 35.6286195,6.8275798 35.2069526,5.02619916"></path>
                                    </g>
                                </g>
                            </g>
                            <g id="Face" transform="translate(30.515152, 30.750000)">
                                <g id="Mouth/Twinkle" transform="translate(0.803030, 19.500000)" fill="#000000" fill-opacity="0.599999964" fill-rule="nonzero">
                                    <path d="M16.0606061,6 C16.0606061,8.01441113 18.5331983,9.375 21.6818182,9.375 C24.830438,9.375 27.3030303,8.01441113 27.3030303,6 C27.3030303,5.58578644 26.9217118,5.25 26.5,5.25 C25.9809512,5.25 25.7492596,5.58944081 25.6969697,6 C25.1981175,7.10171149 23.963733,7.76861809 21.6818182,7.875 C19.3999034,7.76861809 18.1655188,7.10171149 17.6666667,6 C17.6143767,5.58944081 17.3826851,5.25 16.8636364,5.25 C16.4419246,5.25 16.0606061,5.58578644 16.0606061,6 Z" id="Mouth"></path>
                                </g>
                                <g id="Nose/Default" transform="translate(11.242424, 15.000000)" fill="#000000" fill-opacity="0.16">
                                    <path d="M6.42424242,3 C6.42424242,4.65685425 8.5814159,6 11.2424242,6 L11.2424242,6 C13.9034326,6 16.0606061,4.65685425 16.0606061,3" id="Nose"></path>
                                </g>
                                <g id="Eyes/Squint-😊" transform="translate(0.000000, 3.000000)">
                                    <g id="Eye" transform="translate(6.424242, 4.875000)">
                                        <mask id="mask-12" fill="white">
                                            <use xlink:href="#path-11"></use>
                                        </mask>
                                        <use id="The-white-stuff" fill="#FFFFFF" xlink:href="#path-11"></use>
                                        <ellipse fill-opacity="0.699999988" fill="#000000" mask="url(#mask-12)" cx="5.62121212" cy="3.75" rx="2.40909091" ry="2.25"></ellipse>
                                    </g>
                                    <g id="Eye" transform="translate(27.303030, 4.875000)">
                                        <mask id="mask-14" fill="white">
                                            <use xlink:href="#path-13"></use>
                                        </mask>
                                        <use id="Eyeball-Mask" fill="#FFFFFF" xlink:href="#path-13"></use>
                                        <ellipse fill-opacity="0.699999988" fill="#000000" mask="url(#mask-14)" cx="5.62121212" cy="3.75" rx="2.40909091" ry="2.25"></ellipse>
                                    </g>
                                </g>
                                <g id="Eyebrow/Natural/Flat-Natural" fill="#000000" fill-opacity="0.599999964">
                                    <path d="M15.4882451,4.00302491 C13.4875411,4.20870648 11.5078386,4.17405742 9.50081838,4.1663648 C7.96190198,4.16061001 6.39512537,4.01906944 4.95005997,4.70491533 C4.67333056,4.83612456 3.16207145,5.62253377 3.21181345,6.02217749 C3.25148932,6.3417922 4.81975528,6.78833197 5.10209362,6.87024723 C6.59111862,7.30239174 7.99522272,7.10524764 9.50629781,6.96755069 C11.3596832,6.79877862 13.2110896,6.81059981 15.0655269,6.69360162 C16.3143251,6.61494566 18.2341296,6.34988255 18.8025181,4.91278625 C18.9736994,4.47995928 18.8000136,3.63208255 18.5972935,3.17234364 C18.5164632,2.98917637 18.2991969,2.92671584 18.140484,3.03943098 C17.5722843,3.44313719 16.4586836,3.9033948 15.4882451,4.00302491" id="Fill-10" transform="translate(11.041443, 5.058624) rotate(2.000000) translate(-11.041443, -5.058624) "></path>
                                    <path d="M38.3751749,4.00302282 C36.3744708,4.20870439 34.3947683,4.17405533 32.3877481,4.16636271 C30.8488317,4.16060792 29.2820551,4.01906735 27.8369897,4.70491324 C27.5602603,4.83612247 26.0490012,5.62253168 26.0987432,6.0221754 C26.1384191,6.34179011 27.706685,6.78832989 27.9890234,6.87024514 C29.4780484,7.30238965 30.8821525,7.10524555 32.3932276,6.9675486 C34.2466129,6.79877653 36.0980193,6.81059772 37.9524567,6.69359953 C39.2012548,6.61494357 41.1210593,6.34988047 41.6894478,4.91278417 C41.8606292,4.47995719 41.6869433,3.63208047 41.4842233,3.17234155 C41.403393,2.98917428 41.1861266,2.92671375 41.0274137,3.03942889 C40.4592141,3.4431351 39.3456134,3.90339271 38.3751749,4.00302282" id="Fill-10" transform="translate(33.928313, 5.058622) scale(-1, 1) rotate(2.000000) translate(-33.928313, -5.058622) "></path>
                                </g>
                            </g>
                            <g id="Top">
                                <mask id="mask-16" fill="white">
                                    <use xlink:href="#path-15"></use>
                                </mask>
                                <g id="Mask"></g>
                                <g id="Top/Short-Hair/The-Caesar-+-Side-Part" mask="url(#mask-16)">
                                    <g transform="translate(-0.401515, 0.000000)">
                                        <g id="Facial-Hair/-Blank" transform="translate(19.674242, 27.000000)"></g>
                                        <g id="Hair" stroke-width="1" fill-rule="evenodd" transform="translate(30.113636, 12.750000)">
                                            <mask id="mask-18" fill="white">
                                                <use xlink:href="#path-17"></use>
                                            </mask>
                                            <use id="Caesar" fill="#28354B" xlink:href="#path-17"></use>
                                        </g>
                                        <g id="Top/_Resources/Blank" transform="translate(24.893939, 31.875000)"></g>
                                    </g>
                                </g>
                            </g>
                        </g>
                    </g>
                </g>
            </g>
        </g>
    </g>
</svg>