<?xml version="1.0" encoding="UTF-8"?>
<svg width="263px" height="153px" viewBox="0 0 263 153" version="1.1" xmlns="http://www.w3.org/2000/svg" xmlns:xlink="http://www.w3.org/1999/xlink">
    <!-- Generator: Sketch 64 (93537) - https://sketch.com -->
    <title>opinion 4</title>
    <desc>Created with Sketch.</desc>
    <defs>
        <rect id="path-1" x="0" y="0" width="219" height="142"></rect>
        <filter x="-1.4%" y="-2.1%" width="104.6%" height="108.5%" filterUnits="objectBoundingBox" id="filter-2">
            <feMorphology radius="2" operator="erode" in="SourceAlpha" result="shadowSpreadOuter1"></feMorphology>
            <feOffset dx="2" dy="4" in="shadowSpreadOuter1" result="shadowOffsetOuter1"></feOffset>
            <feGaussianBlur stdDeviation="3" in="shadowOffsetOuter1" result="shadowBlurOuter1"></feGaussianBlur>
            <feColorMatrix values="0 0 0 0 0.235294118   0 0 0 0 0.235294118   0 0 0 0 0.235294118  0 0 0 0.5 0" type="matrix" in="shadowBlurOuter1"></feColorMatrix>
        </filter>
        <ellipse id="path-3" cx="30.4545455" cy="30" rx="30.4545455" ry="30"></ellipse>
        <path d="M67,-1.02140518e-14 L67,40 L63.954,39.999 C63.9545455,56.4028571 50.5909168,69.7310571 34.0036216,69.9959809 L33.5,70 C16.680419,70 3.04545455,56.5685425 3.04545455,40 C3.04545455,39.9996666 3.04545455,39.9993333 3.04545456,39.9989999 L-8.11472102e-15,40 L-8.11472102e-15,-1.02140518e-14 L67,-1.02140518e-14 Z" id="path-5"></path>
        <path d="M25.3787879,0 C33.2279257,-1.44186322e-15 39.5909091,6.3629834 39.5909091,14.2121212 L39.5908541,15.5420985 C41.0312357,15.7837215 42.1287879,17.0364145 42.1287879,18.5454545 L42.1287879,21.9545455 C42.1287879,23.4979608 40.9806626,24.7732171 39.4918956,24.9728309 C38.9087216,29.9145621 35.7887212,34.0805797 31.4696977,36.1323243 L31.4700066,40.772468 C42.0929031,41.2695127 50.5757894,49.951612 50.7546927,60.6547931 L50.7575758,61 L0,61 C-1.3301058e-15,50.1388619 8.55069526,41.2748457 19.2875692,40.772468 L19.2868822,36.1318511 C14.968375,34.0799393 11.8488093,29.9141822 11.2653807,24.9717751 C9.77707049,24.7733918 8.62878788,23.4980665 8.62878788,21.9545455 L8.62878788,18.5454545 C8.62878788,17.0364564 9.72627912,15.7837911 11.1666016,15.5421186 L11.1666667,14.2121212 C11.1666667,6.3629834 17.5296501,1.44186322e-15 25.3787879,0 Z" id="path-7"></path>
        <path d="M39.5907147,3.26769998 C44.1845319,3.77403484 47.7121212,5.16579698 47.7121212,8.76923077 C47.7121212,8.97597206 47.7005094,9.17948134 47.6777507,9.37968075 C54.2222227,12.6535958 58.7457746,19.3695424 58.8759048,27.1547909 L58.8787879,27.5 L8.12121212,27.5 C8.12121212,19.568025 12.6816933,12.7012075 19.3236477,9.37855525 C19.2994906,9.17948134 19.2878788,8.97597206 19.2878788,8.76923077 C19.2878788,5.16605882 22.8149554,3.77423711 27.4082839,3.26781037 L27.4090909,7.90909091 C27.4090909,11.2730071 30.1360838,14 33.5,14 C36.8639162,14 39.5909091,11.2730071 39.5909091,7.90909091 L39.5909091,7.90909091 Z" id="path-9"></path>
        <rect id="path-11" x="0" y="0" width="67" height="70"></rect>
        <path d="M23.4458683,0.245605751 L23.8561034,0.25 C30.0243853,0.362339141 35.7490498,1.70303997 37.8144367,4.25 C40.9420907,8.10690911 47.4250177,22.7696606 47.4585468,31.5 C47.4820662,37.7000124 45.0378442,43.9149876 41.6212549,44.25 C38.8095916,44.5256966 34.8902307,43.8779345 29.9480991,43.4994219 L29.9469704,40.3823243 C34.7485298,38.1013519 38.0681818,33.2072885 38.0681818,27.5378788 L38.0681818,27.5378788 L38.067764,20.7468495 C35.6513781,19.532387 33.4648854,18.0617366 31.5082859,16.3348982 C32.3230376,17.6592493 33.2078506,18.7868983 34.1631757,19.7182712 C27.3065491,17.823179 21.852394,14.6124425 17.8007105,10.0860616 C15.775145,14.2026498 13.0563109,17.4536318 9.64407133,19.8397957 L9.64393939,27.5378788 C9.64393939,33.2069628 12.9632101,38.1007897 17.7643234,40.3819312 L17.7642769,43.6865304 C12.7809459,44.3586954 8.79129661,45.5408597 5.93471215,45.2500817 C2.32511511,44.8826529 0.379726628,37.6989162 0.253787879,31.5 C0.0971700174,23.7910065 7.44079623,7.69875032 10.1515152,4.5 C12.1623023,2.12719553 17.6878215,0.137660859 23.8561034,0.25 Z" id="path-13"></path>
    </defs>
    <g id="Portfolio-High-f-i" stroke="none" stroke-width="1" fill="none" fill-rule="evenodd">
        <g id="Case-studies-price-my-airbnb" transform="translate(-239.000000, -2937.000000)">
            <g id="Unexpected" transform="translate(156.000000, 2831.000000)">
                <g id="opinion-4" transform="translate(80.000000, 101.000000)">
                    <g id="Note-/-Square-/-Yellow-Copy-5" transform="translate(43.000000, 10.000000)">
                        <g id="Rectangle">
                            <use fill="black" fill-opacity="1" filter="url(#filter-2)" xlink:href="#path-1"></use>
                            <use fill="#F1E41B" fill-rule="evenodd" xlink:href="#path-1"></use>
                        </g>
                        <rect id="Rectangle" fill="#EBDE0E" x="0" y="0" width="219" height="39"></rect>
                        <text id="Brianna" font-family="Helvetica-Bold, Helvetica" font-size="18" font-weight="bold" fill="#2D2D2D">
                            <tspan x="25" y="30">Brianna</tspan>
                        </text>
                        <text id="“-I-really-value-a-c" font-family="Helvetica" font-size="16" font-weight="normal" fill="#2D2D2D">
                            <tspan x="25" y="66">“ I really value a clean </tspan>
                            <tspan x="25" y="85">place with all the </tspan>
                            <tspan x="25" y="104">amenities so we feel </tspan>
                            <tspan x="25" y="123">like home.”</tspan>
                        </text>
                    </g>
                    <g id="Avataaar/Circle">
                        <g id="Circle" stroke-width="1" fill-rule="evenodd" transform="translate(3.045455, 10.000000)">
                            <mask id="mask-4" fill="white">
                                <use xlink:href="#path-3"></use>
                            </mask>
                            <use id="Circle-Background" fill="#E6E6E6" xlink:href="#path-3"></use>
                            <g id="Color/Palette/Pastel-Red" mask="url(#mask-4)" fill="#FFAFB9">
                                <rect id="🖍Color" x="0" y="0" width="60.9090909" height="60"></rect>
                            </g>
                        </g>
                        <mask id="mask-6" fill="white">
                            <use xlink:href="#path-5"></use>
                        </mask>
                        <g id="Mask"></g>
                        <g id="Avataaar" stroke-width="1" fill-rule="evenodd" mask="url(#mask-6)">
                            <g id="Body" transform="translate(8.121212, 9.000000)">
                                <mask id="mask-8" fill="white">
                                    <use xlink:href="#path-7"></use>
                                </mask>
                                <use fill="#D0C6AC" xlink:href="#path-7"></use>
                                <g id="Skin/👶🏼-04-Light" mask="url(#mask-8)" fill="#EDB98A">
                                    <g transform="translate(-8.121212, 0.000000)" id="Color">
                                        <rect x="0" y="0" width="67" height="61"></rect>
                                    </g>
                                </g>
                                <path d="M11.1666667,23.2878788 C11.1666667,31.1370166 17.5296501,37.5 25.3787879,37.5 C33.2279257,37.5 39.5909091,31.1370166 39.5909091,23.2878788 L39.5909091,23.2878788 L39.5909091,25.2878788 C39.5909091,33.1370166 33.2279257,39.5 25.3787879,39.5 C17.5296501,39.5 11.1666667,33.1370166 11.1666667,25.2878788 Z" id="Neck-Shadow" fill-opacity="0.100000001" fill="#000000" mask="url(#mask-8)"></path>
                            </g>
                            <g id="Clothing/Hoodie" transform="translate(0.000000, 42.500000)">
                                <mask id="mask-10" fill="white">
                                    <use xlink:href="#path-9"></use>
                                </mask>
                                <use id="Hoodie" fill="#B7C1DB" fill-rule="evenodd" xlink:href="#path-9"></use>
                                <g id="Color/Palette/Pastel-Blue" mask="url(#mask-10)" fill="#B1E2FF" fill-rule="evenodd">
                                    <rect id="🖍Color" x="0" y="0" width="67" height="27.5"></rect>
                                </g>
                                <path d="M25.8859275,15.4345745 L25.8863636,27.5 L24.1098485,27.5 L24.1088812,14.5369993 C24.6683184,14.8645918 25.2631268,15.1649013 25.8859275,15.4345745 Z M42.8902152,14.5375283 L42.8901515,24.6117424 C42.8901515,25.1023135 42.4924651,25.5 42.0018939,25.5 C41.5113228,25.5 41.1136364,25.1023135 41.1136364,24.6117424 L41.1140725,15.4345745 C41.7365379,15.1650465 42.3310412,14.8649151 42.8902152,14.5375283 Z" id="Straps" fill="#F4F4F4" fill-rule="evenodd" mask="url(#mask-10)"></path>
                                <path d="M43.9151781,3.18104321 C47.7350255,3.89273448 50.3768939,5.3106626 50.3768939,8.07692308 C50.3768939,13.0050024 41.992331,17 33.5,17 C25.007669,17 16.6231061,13.0050024 16.6231061,8.07692308 C16.6231061,5.3106626 19.2649745,3.89273448 23.0848219,3.18104321 C20.7791531,4.01837859 19.2878788,5.42631699 19.2878788,7.76923077 C19.2878788,12.8672438 26.3485633,17 33.5,17 C40.6514367,17 47.7121212,12.8672438 47.7121212,7.76923077 C47.7121212,5.4519521 46.2533021,4.04930057 43.9902405,3.20857355 Z" id="Shadow" fill-opacity="0.16" fill="#000000" fill-rule="evenodd" mask="url(#mask-10)"></path>
                            </g>
                            <g id="Face" transform="translate(19.287879, 20.500000)" fill="#000000">
                                <g id="Mouth/Twinkle" transform="translate(0.507576, 13.000000)" fill-opacity="0.599999964" fill-rule="nonzero">
                                    <path d="M10.1515152,4 C10.1515152,5.34294075 11.7143801,6.25 13.7045455,6.25 C15.6947108,6.25 17.2575758,5.34294075 17.2575758,4 C17.2575758,3.72385763 17.0165537,3.5 16.75,3.5 C16.421922,3.5 16.2754754,3.72629388 16.2424242,4 C15.927112,4.73447432 15.1468878,5.17907873 13.7045455,5.25 C12.2622031,5.17907873 11.4819789,4.73447432 11.1666667,4 C11.1336155,3.72629388 10.9871689,3.5 10.6590909,3.5 C10.3925373,3.5 10.1515152,3.72385763 10.1515152,4 Z" id="Mouth"></path>
                                </g>
                                <g id="Nose/Default" transform="translate(7.106061, 10.000000)" fill-opacity="0.16">
                                    <path d="M4.06060606,2 C4.06060606,3.1045695 5.4241025,4 7.10606061,4 L7.10606061,4 C8.78801871,4 10.1515152,3.1045695 10.1515152,2" id="Nose"></path>
                                </g>
                                <g id="Eyes/Happy-😁" transform="translate(0.000000, 2.000000)" fill-opacity="0.599999964">
                                    <path d="M4.10125461,5.61182789 C4.5698761,4.662127 5.62506176,4 6.85165863,4 C8.07392549,4 9.12598922,4.65746051 9.59707791,5.60178106 C9.73701877,5.88229943 9.53788239,6.11187042 9.33701011,5.9417557 C8.71495047,5.41494583 7.83156816,5.08594709 6.85165863,5.08594709 C5.902397,5.08594709 5.04371899,5.39468797 4.42543608,5.8929103 C4.19937546,6.07507359 3.96419234,5.88959611 4.10125461,5.61182789 Z" id="Squint"></path>
                                    <path d="M18.8209516,5.61182789 C19.2895731,4.662127 20.3447587,4 21.5713556,4 C22.7936225,4 23.8456862,4.65746051 24.3167749,5.60178106 C24.4567157,5.88229943 24.2575794,6.11187042 24.0567071,5.9417557 C23.4346474,5.41494583 22.5512651,5.08594709 21.5713556,5.08594709 C20.622094,5.08594709 19.763416,5.39468797 19.145133,5.8929103 C18.9190724,6.07507359 18.6838893,5.88959611 18.8209516,5.61182789 Z" id="Squint"></path>
                                </g>
                                <g id="Eyebrow/Outline/Raised-Excited" fill-opacity="0.599999964">
                                    <g id="I-Browse" transform="translate(3.045455, 0.000000)">
                                        <path d="M1.00900873,4.28197923 C1.38847132,1.9011904 4.5830408,0.277168993 6.89377128,1.32526068 C7.14840174,1.44075492 7.44986568,1.33104361 7.56710984,1.08021361 C7.68435399,0.829383601 7.57298039,0.532419123 7.31834993,0.416924881 C4.40292054,-0.905443664 0.491272293,1.08311865 0.00614278483,4.126873 C-0.0373375785,4.39967344 0.151913811,4.65554361 0.428847595,4.69837501 C0.705781379,4.74120641 0.965528367,4.55477967 1.00900873,4.28197923 Z" id="Eyebrow" fill-rule="nonzero"></path>
                                        <path d="M15.7287057,4.28197923 C16.1081683,1.9011904 19.3027378,0.277168993 21.6134683,1.32526068 C21.8680987,1.44075492 22.1695627,1.33104361 22.2868068,1.08021361 C22.404051,0.829383601 22.2926774,0.532419123 22.0380469,0.416924881 C19.1226175,-0.905443664 15.2109693,1.08311865 14.7258398,4.126873 C14.6823594,4.39967344 14.8716108,4.65554361 15.1485446,4.69837501 C15.4254783,4.74120641 15.6852253,4.55477967 15.7287057,4.28197923 Z" id="Eyebrow" fill-rule="nonzero" transform="translate(18.526540, 2.352609) scale(-1, 1) translate(-18.526540, -2.352609) "></path>
                                    </g>
                                </g>
                            </g>
                            <g id="Top">
                                <mask id="mask-12" fill="white">
                                    <use xlink:href="#path-11"></use>
                                </mask>
                                <g id="Mask"></g>
                                <g id="Top/Long-Hair/Bob" mask="url(#mask-12)">
                                    <g transform="translate(-0.253788, 0.000000)" id="Hair">
                                        <g transform="translate(9.897727, 4.750000)">
                                            <mask id="mask-14" fill="white">
                                                <use xlink:href="#path-13"></use>
                                            </mask>
                                            <use id="Combined-Shape" fill="#E6E6E6" xlink:href="#path-13"></use>
                                            <g id="Color/Hair/Black" mask="url(#mask-14)" fill="#2C1B18">
                                                <g transform="translate(-9.897727, -4.750000)" id="Color">
                                                    <rect x="0" y="0" width="67.5075758" height="70"></rect>
                                                </g>
                                            </g>
                                        </g>
                                    </g>
                                </g>
                            </g>
                        </g>
                    </g>
                </g>
            </g>
        </g>
    </g>
</svg>