<?xml version="1.0" encoding="UTF-8"?>
<svg width="259px" height="152px" viewBox="0 0 259 152" version="1.1" xmlns="http://www.w3.org/2000/svg" xmlns:xlink="http://www.w3.org/1999/xlink">
    <!-- Generator: sketchtool 63.1 (101010) - https://sketch.com -->
    <title>7F98C7D2-FADC-434A-8B49-568315392413</title>
    <desc>Created with sketchtool.</desc>
    <defs>
        <rect id="path-1" x="0" y="0" width="219" height="142"></rect>
        <filter x="-1.4%" y="-2.1%" width="102.7%" height="108.5%" filterUnits="objectBoundingBox" id="filter-2">
            <feMorphology radius="5.5" operator="erode" in="SourceAlpha" result="shadowSpreadOuter1"></feMorphology>
            <feOffset dx="0" dy="13" in="shadowSpreadOuter1" result="shadowOffsetOuter1"></feOffset>
            <feGaussianBlur stdDeviation="2" in="shadowOffsetOuter1" result="shadowBlurOuter1"></feGaussianBlur>
            <feColorMatrix values="0 0 0 0 0.607892215   0 0 0 0 0.607803345   0 0 0 0 0.607922554  0 0 0 0.5 0" type="matrix" in="shadowBlurOuter1"></feColorMatrix>
        </filter>
        <ellipse id="path-3" cx="30.4545455" cy="30" rx="30.4545455" ry="30"></ellipse>
        <path d="M-8.11472102e-15,40 L-8.11472102e-15,-1.02140518e-14 L67,-1.02140518e-14 L67,40 L63.9545455,40 C63.9545455,56.5685425 50.319581,70 33.5,70 C16.680419,70 3.04545455,56.5685425 3.04545455,40 L3.04545455,40 L-8.11472102e-15,40 Z" id="path-5"></path>
        <path d="M25.3787879,0 C33.2279257,-1.44186322e-15 39.5909091,6.3629834 39.5909091,14.2121212 L39.5908541,15.5420985 C41.0312357,15.7837215 42.1287879,17.0364145 42.1287879,18.5454545 L42.1287879,21.9545455 C42.1287879,23.4979608 40.9806626,24.7732171 39.4918956,24.9728309 C38.9087216,29.9145621 35.7887212,34.0805797 31.4696977,36.1323243 L31.4700066,40.772468 C42.0929031,41.2695127 50.5757894,49.951612 50.7546927,60.6547931 L50.7575758,61 L0,61 C-1.3301058e-15,50.1388619 8.55069526,41.2748457 19.2875692,40.772468 L19.2868822,36.1318511 C14.968375,34.0799393 11.8488093,29.9141822 11.2653807,24.9717751 C9.77707049,24.7733918 8.62878788,23.4980665 8.62878788,21.9545455 L8.62878788,18.5454545 C8.62878788,17.0364564 9.72627912,15.7837911 11.1666016,15.5421186 L11.1666667,14.2121212 C11.1666667,6.3629834 17.5296501,1.44186322e-15 25.3787879,0 Z" id="path-7"></path>
        <path d="M50.8759066,22.1550135 L50.8787879,22.5 L0.121212121,22.5 C0.121212121,11.8855545 8.29310741,3.17975741 18.6886896,2.33081713 C18.6613841,2.5552341 18.6477273,2.78262781 18.6477273,3.01293088 C18.6477273,6.46471056 21.7155943,9.26293088 25.5,9.26293088 C29.2844057,9.26293088 32.3522727,6.46471056 32.3522727,3.01293088 C32.3522727,2.78262781 32.3386159,2.5552341 32.3120006,2.33138674 C42.5941088,3.17060849 50.7011099,11.6975132 50.8759066,22.1550135 Z" id="path-9"></path>
        <path d="M0.912483124,0.782019294 C1.18095723,3.15495063 3.2240195,5 5.70454545,5 C8.19273397,5 10.2407519,3.14353399 10.499045,0.760013655 C10.5198325,0.568186498 10.3023552,0.25 10.0297931,0.25 C6.24987308,0.25 3.35394215,0.25 1.41218649,0.25 C1.13804291,0.25 0.885622672,0.544610886 0.912483124,0.782019294 Z" id="path-11"></path>
        <rect id="path-13" x="0" y="0" width="67" height="70"></rect>
        <path d="M8.66530377,31.8358757 C10.025503,35.040754 12.5284384,37.6433142 15.6628781,39.1323243 L15.6637117,41.4023356 C15.0642525,41.6003696 14.4184349,41.7657608 13.701999,41.8924324 C11.4147138,42.296835 4.99073121,41.0103742 2.16865904,38.8970468 C1.95336936,38.7357353 2.06252324,38.4176859 2.3388452,38.399082 C5.31903121,38.1982372 6.83377186,35.3250948 8.05072865,33.0477429 C8.18121868,32.8035536 8.30837392,32.5577967 8.43263411,32.310726 Z M32.4278725,35.6708615 C32.609888,36.2509153 32.8750988,36.7960657 33.3151428,37.1714884 C33.7265331,37.5225133 34.4604683,37.4363671 34.9757863,37.450687 C35.400138,37.462658 35.8249611,37.4640218 36.248763,37.4459137 C36.4617244,37.4368217 36.5566183,37.6994275 36.3843482,37.8204261 C36.3513552,37.8436106 36.3183623,37.8656586 36.2852909,37.8859639 C36.0185981,38.0496948 35.7421646,38.2006968 35.4605465,38.339046 C34.8200911,38.6535516 34.1440506,38.9000191 33.4349385,39.0226089 C32.9489956,39.1065566 32.4673255,39.1223896 32.0010819,39.0667732 C32.1234533,39.2469201 32.2656743,39.4106772 32.4310261,39.5519469 C32.8700729,39.9271017 33.6533484,39.8350337 34.2033096,39.8503379 C34.6561892,39.8631319 35.1095719,39.8645894 35.5618646,39.8452365 C35.7891428,39.8355196 35.8904161,40.1161772 35.7065648,40.2454934 C35.6713538,40.2702716 35.6361429,40.2938352 35.6008482,40.3155363 C35.3162265,40.4905222 35.0212092,40.6519044 34.7206588,40.7997638 C34.0371475,41.1358889 33.3156588,41.3992989 32.5588754,41.5303156 C31.1630973,41.7717815 29.8003505,41.4859415 28.7026917,40.6033197 C28.3936066,40.3547896 28.1050772,40.0715586 27.8442197,39.7626851 L27.8456935,39.1318511 C29.5446241,38.3246148 31.0579957,37.1902208 32.3043903,35.8100872 Z M13.7446835,0.399969423 C18.8106141,-0.900106898 22.4266927,1.36857754 22.73395,1.56420083 C23.0987184,1.79636913 23.2385561,1.69913625 23.6529552,1.60132461 C25.2635199,1.22115729 27.0176111,1.04901541 28.6537456,1.36956972 C30.2628851,1.68491512 31.8053753,2.50610298 33.1100241,3.46404525 C35.5278412,5.23937206 37.6176937,8.10947823 37.7185479,11.1699161 C37.7630646,12.5467204 37.5619431,13.9767713 37.2816808,15.3238931 C37.029252,16.5370717 36.1866209,17.4928642 35.9246349,18.6822307 C34.9025119,15.2620477 31.000051,14.120967 28.6674946,11.7887008 C29.1741967,12.7369694 29.9488371,13.5256636 30.4572997,14.4582228 C28.1104912,13.041897 25.8366197,10.9884313 24.8658041,8.38447529 C24.6862283,9.73399486 24.1764244,10.9818995 23.315601,12.0508823 C22.5513562,13.0000604 21.3914914,14.0186079 20.195242,14.386125 C20.8113494,13.0093207 21.3379205,11.5817502 21.8214,10.1547586 C21.309584,10.8089308 19.6140101,13.5881705 19.1882932,14.2771514 C18.7679418,14.9574508 18.2966183,15.6065795 17.790587,16.22801 C17.5537516,16.5187992 17.3011551,16.7998319 17.046798,17.0757385 C16.8986606,17.2364704 16.7475889,17.3945565 16.5932477,17.5495007 C16.5386708,17.6042356 16.1256969,18.0517879 16.3617778,17.7509117 C15.7993251,18.4515506 14.9716167,18.9956744 14.2526431,19.5281402 C13.5287231,20.0642439 12.7400821,20.5203124 11.9200867,20.8973378 C10.1032027,21.7329122 8.23710728,22.0370956 6.25565414,21.6880164 C6.55888731,21.76276 7.1998939,21.4765183 7.51343884,21.3925144 C7.97260613,21.2694024 8.39505345,21.113218 8.81104543,20.8865893 C9.64185569,20.433828 10.4225323,19.8940037 11.1398292,19.2819988 C10.4527969,19.5700594 9.89495521,20.1154234 9.19476072,20.4177879 C8.61445107,20.6683941 8.04084826,20.7991955 7.41015345,20.8593045 C6.02410036,20.9915115 4.36591708,20.6792253 3.16656575,19.9623809 C1.77271596,19.1293696 0.998662358,17.6997321 0.631462664,16.1782361 C0.204991239,14.4115081 0.469995402,12.4181514 1.47593812,10.9097189 C1.51005919,11.4454092 2.60168184,11.6758412 3.48497316,11.5415673 C5.93590536,11.1688412 7.39397319,2.02961228 13.7446835,0.399969423 Z" id="path-15"></path>
    </defs>
    <g id="Portfolio-High-f-i" stroke="none" stroke-width="1" fill="none" fill-rule="evenodd">
        <g id="Case-studies-price-my-airbnb-1" transform="translate(-159.000000, -3037.000000)">
            <g id="Unexpected" transform="translate(156.000000, 2831.000000)">
                <g id="opinion-3" transform="translate(0.000000, 200.000000)">
                    <g id="Note-/-Square-/-Yellow-Copy-4" transform="translate(43.000000, 10.000000)">
                        <g id="Rectangle">
                            <use fill="black" fill-opacity="1" filter="url(#filter-2)" xlink:href="#path-1"></use>
                            <use fill="#F1E41B" fill-rule="evenodd" xlink:href="#path-1"></use>
                        </g>
                        <rect id="Rectangle" fill="#EBDE0E" x="0" y="0" width="219" height="39"></rect>
                        <text id="Scott" font-family="Helvetica-Bold, Helvetica" font-size="18" font-weight="bold" fill="#2D2D2D">
                            <tspan x="25" y="30">Scott</tspan>
                        </text>
                        <text id="“If-they-have-a-good" font-family="Helvetica" font-size="16" font-weight="normal" fill="#2D2D2D">
                            <tspan x="25" y="66">“If they have a good </tspan>
                            <tspan x="25" y="85">clean rate space and  </tspan>
                            <tspan x="25" y="104">great location”</tspan>
                        </text>
                    </g>
                    <g id="Avataaar/Circle-Copy-4">
                        <g id="Circle" transform="translate(3.045455, 10.000000)">
                            <mask id="mask-4" fill="white">
                                <use xlink:href="#path-3"></use>
                            </mask>
                            <use id="Circle-Background" fill="#E6E6E6" xlink:href="#path-3"></use>
                            <g id="🖍-Circle-Color" mask="url(#mask-4)" fill="#FFAFB9">
                                <rect id="🖍Color" x="0" y="0" width="60.9090909" height="60"></rect>
                            </g>
                        </g>
                        <mask id="mask-6" fill="white">
                            <use xlink:href="#path-5"></use>
                        </mask>
                        <g id="Mask"></g>
                        <g id="Avataaar" mask="url(#mask-6)">
                            <g id="Body" transform="translate(8.121212, 9.000000)">
                                <mask id="mask-8" fill="white">
                                    <use xlink:href="#path-7"></use>
                                </mask>
                                <use fill="#D0C6AC" xlink:href="#path-7"></use>
                                <g id="🎨-Skin" mask="url(#mask-8)" fill="#EDB98A">
                                    <g transform="translate(-8.121212, 0.000000)" id="Color">
                                        <rect x="0" y="0" width="67" height="61"></rect>
                                    </g>
                                </g>
                                <path d="M11.1666667,23.2878788 C11.1666667,31.1370166 17.5296501,37.5 25.3787879,37.5 C33.2279257,37.5 39.5909091,31.1370166 39.5909091,23.2878788 L39.5909091,23.2878788 L39.5909091,25.2878788 C39.5909091,33.1370166 33.2279257,39.5 25.3787879,39.5 C17.5296501,39.5 11.1666667,33.1370166 11.1666667,25.2878788 Z" id="Neck-Shadow" fill-opacity="0.100000001" fill="#000000" mask="url(#mask-8)"></path>
                            </g>
                            <g id="👔-Clothes" transform="translate(8.000000, 47.500000)">
                                <mask id="mask-10" fill="white">
                                    <use xlink:href="#path-9"></use>
                                </mask>
                                <use id="Clothes" fill="#E6E6E6" xlink:href="#path-9"></use>
                                <g id="↳-Color-Fabric" mask="url(#mask-10)" fill="#E6E6E6">
                                    <g transform="translate(-8.000000, -5.000000)" id="🖍Color">
                                        <rect x="0" y="0" width="67" height="27.5"></rect>
                                    </g>
                                </g>
                                <g id="Blazer" transform="translate(0.121212, 2.000000)">
                                    <path d="M16.2424242,10.125 C16.2424242,13.927397 16.7400928,17.4803995 17.6032989,20.5005113 L0,20.5 C-1.2512656e-15,10.282641 7.57191061,1.83379644 17.4104287,0.458769511 C16.6661874,3.31991461 16.2424242,6.61627804 16.2424242,10.125 Z M50.7546945,20.1550135 L50.7575758,20.5 L33.4080647,20.5005113 C34.2712709,17.4803995 34.7689394,13.927397 34.7689394,10.125 C34.7689394,6.63174214 34.3489034,3.34897506 33.6112841,0.496518722 C43.2104312,1.96860337 50.5880341,10.1842835 50.7546945,20.1550135 Z" id="Saco" fill="#3A4C5A"></path>
                                    <path d="M37.8143939,14.5 L39.891602,12.9653463 C40.4650107,12.5417085 41.2495299,12.5485618 41.8154501,12.9821525 L43.1439394,14 L43.1439394,14 L37.8143939,14.5 Z" id="Pocket-hanky" fill="#E6E6E6"></path>
                                    <path d="M17.5113636,0 C16.4962121,4.83333333 16.9191919,11.6666667 18.780303,20.5 L14.719697,20.5 L11.1666667,11.5 L12.6893939,9.25 L11.1666667,7.75 L15.9886364,0.25 C16.5032316,0.0923096592 17.0108074,0.00897632591 17.5113636,0 Z" id="Wing" fill="#2F4351"></path>
                                    <path d="M38.3219697,0 C37.3068182,4.83333333 37.729798,11.6666667 39.5909091,20.5 L35.530303,20.5 L31.9772727,11.5 L33.5,9.25 L31.9772727,7.75 L36.7992424,0.25 C37.3138377,0.0923096592 37.8214135,0.00897632591 38.3219697,0 Z" id="Wing" fill="#2F4351" transform="translate(35.784091, 10.250000) scale(-1, 1) translate(-35.784091, -10.250000) "></path>
                                </g>
                                <path d="M31.5907894,0.384671492 C33.3095918,1.53391341 34.3825758,3.16403792 34.3825758,4.97197003 C34.3825758,6.82199522 33.2590468,8.48583684 31.4696907,9.63875421 L29.9614242,8.46875225 L28.7992424,8.55197175 L29.0530303,7.76419553 L29.0564242,7.76675225 L29.0335739,7.74873641 C30.5815876,6.96310676 31.5909091,5.67500138 31.5909091,4.21920254 Z M21.966093,7.74856738 L21.9424242,7.76675225 L21.9469697,7.76419553 L22.2007576,8.55197175 L21.0374242,8.46875225 L19.5303093,9.63875421 C17.8056931,8.52755 16.6995956,6.94172375 16.6218148,5.17202817 L16.6174242,4.97197003 C16.6174242,3.16403792 17.6904082,1.53391341 19.4092106,0.384671492 L19.4090909,4.21920254 C19.4090909,5.67489697 20.4182677,6.96292201 21.966093,7.74856738 Z" id="Collar" fill="#F2F2F2"></path>
                            </g>
                            <g id="Face" transform="translate(20.287879, 21.500000)">
                                <g id="👄-Mouth" transform="translate(7.507576, 15.000000)">
                                    <mask id="mask-12" fill="white">
                                        <use xlink:href="#path-11"></use>
                                    </mask>
                                    <use id="Mouth" fill-opacity="0.699999988" fill="#000000" xlink:href="#path-11"></use>
                                    <path d="M3.89772727,-2.5 L7.76515152,-2.5 C8.86972101,-2.5 9.76515152,-1.6045695 9.76515152,-0.5 C9.76515152,0.6045695 8.86972101,1.5 7.76515152,1.5 L3.89772727,1.5 C2.79315777,1.5 1.89772727,0.6045695 1.89772727,-0.5 C1.89772727,-1.6045695 2.79315777,-2.5 3.89772727,-2.5 Z" id="Teeth" fill="#FFFFFF" mask="url(#mask-12)"></path>
                                    <g id="Tongue" mask="url(#mask-12)" fill="#FF4F6D">
                                        <g transform="translate(1.643939, 3.000000)">
                                            <ellipse cx="2.79166667" cy="2.75" rx="2.79166667" ry="2.75"></ellipse>
                                            <ellipse cx="5.32954545" cy="2.75" rx="2.79166667" ry="2.75"></ellipse>
                                        </g>
                                    </g>
                                </g>
                                <g id="👃🏽-Nose" transform="translate(10.106061, 11.000000)" fill="#000000" fill-opacity="0.16">
                                    <path d="M0.0606060606,0 C0.0606060606,1.1045695 1.4241025,2 3.10606061,2 L3.10606061,2 C4.78801871,2 6.15151515,1.1045695 6.15151515,0" id="Nose"></path>
                                </g>
                                <g id="👁-Eyes" transform="translate(3.000000, 5.000000)" fill="#000000" fill-opacity="0.599999964">
                                    <path d="M2.85165863,0 C3.74852375,0 4.61540435,0.334045225 5.15428797,0.899625736 C5.33871912,1.06608301 5.48044241,1.27751957 5.56291827,1.5159648 C5.5753867,1.5443264 5.58658314,1.57289739 5.59707791,1.60178106 C5.62191797,1.67014579 5.63127378,1.73528776 5.62833916,1.79235577 C5.63898904,1.85995338 5.64393939,1.92940721 5.64393939,2 C5.64393939,2.82842712 4.96219117,3.5 4.12121212,3.5 C3.28023307,3.5 2.59848485,2.82842712 2.59848485,2 C2.59848485,1.65641691 2.71575269,1.3398144 2.91301206,1.08691244 C2.8934565,1.08609706 2.87257957,1.08594709 2.85165863,1.08594709 C1.902397,1.08594709 1.04371899,1.39468797 0.425436075,1.8929103 C0.199375457,2.07507359 -0.0358076552,1.88959611 0.10125461,1.61182789 C0.569876098,0.662126999 1.62506176,0 2.85165863,0 Z" id="Eye"></path>
                                    <path d="M17.5713556,0 C18.4682207,0 19.3351013,0.334045225 19.8739849,0.899625736 C20.0584161,1.06608301 20.2001394,1.27751957 20.2826152,1.5159648 C20.2950837,1.5443264 20.3062801,1.57289739 20.3167749,1.60178106 C20.3416149,1.67014579 20.3509707,1.73528776 20.3480361,1.79235577 C20.358686,1.85995338 20.3636364,1.92940721 20.3636364,2 C20.3636364,2.82842712 19.6818881,3.5 18.8409091,3.5 C17.99993,3.5 17.3181818,2.82842712 17.3181818,2 C17.3181818,1.65641691 17.4354497,1.3398144 17.632709,1.08691244 C17.6131535,1.08609706 17.5922765,1.08594709 17.5713556,1.08594709 C16.622094,1.08594709 15.763416,1.39468797 15.145133,1.8929103 C14.9190724,2.07507359 14.6838893,1.88959611 14.8209516,1.61182789 C15.2895731,0.662126999 16.3447587,0 17.5713556,0 Z" id="Eye"></path>
                                </g>
                                <g id="✏️-Eyebrow" fill="#000000" fill-opacity="0.599999964">
                                    <path d="M8.78858289,1.67409746 C7.52415079,1.80879604 6.27270421,1.78330965 5.00402212,1.77576013 C4.03123903,1.77006718 3.04068119,1.67382247 2.12805737,2.12928073 C1.95329014,2.21641415 0.99894544,2.73883052 1.0308704,3.00530284 C1.05633583,3.21841372 2.04820308,3.51798017 2.22677295,3.57292753 C3.16853324,3.86280214 4.0558543,3.73307507 5.01086534,3.64310599 C6.18221922,3.53283445 7.35254006,3.54294843 8.52462142,3.46719191 C9.3139138,3.41626457 10.5271362,3.2418832 10.8846908,2.2845653 C10.9923753,1.99623875 10.8815625,1.43081377 10.7528649,1.12409595 C10.7015497,1.00189463 10.5641364,0.959994788 10.4639472,1.03494198 C10.1052653,1.30337692 9.40189394,1.6088524 8.78858289,1.67409746" id="Fill-10" transform="translate(5.979126, 2.374444) rotate(2.000000) translate(-5.979126, -2.374444) "></path>
                                    <path d="M23.2545734,1.67409746 C21.9901413,1.80879604 20.7386947,1.78330965 19.4700126,1.77576013 C18.4972295,1.77006718 17.5066717,1.67382247 16.5940479,2.12928073 C16.4192807,2.21641415 15.464936,2.73883052 15.4968609,3.00530284 C15.5223263,3.21841372 16.5141936,3.51798017 16.6927635,3.57292753 C17.6345238,3.86280214 18.5218448,3.73307507 19.4768559,3.64310599 C20.6482097,3.53283445 21.8185306,3.54294843 22.9906119,3.46719191 C23.7799043,3.41626457 24.9931267,3.2418832 25.3506813,2.2845653 C25.4583659,1.99623875 25.347553,1.43081377 25.2188554,1.12409595 C25.1675402,1.00189463 25.0301269,0.959994788 24.9299377,1.03494198 C24.5712558,1.30337692 23.8678845,1.6088524 23.2545734,1.67409746" id="Fill-10" transform="translate(20.445116, 2.374444) scale(-1, 1) rotate(2.000000) translate(-20.445116, -2.374444) "></path>
                                </g>
                            </g>
                            <g id="Top">
                                <mask id="mask-14" fill="white">
                                    <use xlink:href="#path-13"></use>
                                </mask>
                                <g id="Mask"></g>
                                <g mask="url(#mask-14)">
                                    <g transform="translate(11.746212, 6.000000)">
                                        <mask id="mask-16" fill="white">
                                            <use xlink:href="#path-15"></use>
                                        </mask>
                                        <use id="Hair" stroke="none" fill="#1D2633" fill-rule="evenodd" xlink:href="#path-15"></use>
                                        <g id="↳-💈Hair-Color" stroke="none" stroke-width="1" fill="none" fill-rule="evenodd" mask="url(#mask-16)">
                                            <g transform="translate(-11.746212, -6.000000)" fill="#D6B370" id="Color">
                                                <rect x="0" y="0" width="67" height="70"></rect>
                                            </g>
                                        </g>
                                        <path d="M8.66496193,31.8350702 C10.0249396,35.0399785 12.5276457,37.6426382 15.6618822,39.1318511 L15.6627257,41.4026613 C15.0635443,41.6005509 14.4180421,41.7658303 13.701999,41.8924324 C11.4147138,42.296835 4.99073121,41.0103742 2.16865904,38.8970468 C1.95336936,38.7357353 2.06252324,38.4176859 2.3388452,38.399082 C5.31903121,38.1982372 6.83377186,35.3250948 8.05072865,33.0477429 C8.18121868,32.8035536 8.30837392,32.5577967 8.43263411,32.310726 Z M32.4278725,35.6708615 C32.609888,36.2509153 32.8750988,36.7960657 33.3151428,37.1714884 C33.7265331,37.5225133 34.4604683,37.4363671 34.9757863,37.450687 C35.400138,37.462658 35.8249611,37.4640218 36.248763,37.4459137 C36.4617244,37.4368217 36.5566183,37.6994275 36.3843482,37.8204261 C36.3513552,37.8436106 36.3183623,37.8656586 36.2852909,37.8859639 C36.0185981,38.0496948 35.7421646,38.2006968 35.4605465,38.339046 C34.8200911,38.6535516 34.1440506,38.9000191 33.4349385,39.0226089 C32.9489956,39.1065566 32.4673255,39.1223896 32.0010819,39.0667732 C32.1233827,39.2468387 32.2656332,39.4106421 32.4310261,39.5519469 C32.8700729,39.9271017 33.6533484,39.8350337 34.2033096,39.8503379 C34.6561892,39.8631319 35.1095719,39.8645894 35.5618646,39.8452365 C35.7891428,39.8355196 35.8904161,40.1161772 35.7065648,40.2454934 C35.6713538,40.2702716 35.6361429,40.2938352 35.6008482,40.3155363 C35.3162265,40.4905222 35.0212092,40.6519044 34.7206588,40.7997638 C34.0371475,41.1358889 33.3156588,41.3992989 32.5588754,41.5303156 C31.1630973,41.7717815 29.8003505,41.4859415 28.7026917,40.6033197 C28.3932739,40.3545221 28.1044561,40.0709488 27.8433774,39.7616876 L27.8446977,39.1323243 C29.5440327,38.3250581 31.0577522,37.1904905 32.3043903,35.8100872 Z" id="Shadow" stroke="none" fill-opacity="0.16" fill="#000000" fill-rule="evenodd"></path>
                                    </g>
                                </g>
                            </g>
                        </g>
                    </g>
                </g>
            </g>
        </g>
    </g>
</svg>