<?xml version="1.0" encoding="UTF-8"?>
<svg width="259px" height="153px" viewBox="0 0 259 153" version="1.1" xmlns="http://www.w3.org/2000/svg" xmlns:xlink="http://www.w3.org/1999/xlink">
    <!-- Generator: sketchtool 63.1 (101010) - https://sketch.com -->
    <title>633F79FE-62B5-41C0-996B-B814C4DC7564</title>
    <desc>Created with sketchtool.</desc>
    <defs>
        <rect id="path-1" x="0" y="0" width="219" height="142"></rect>
        <filter x="-1.4%" y="-2.1%" width="102.7%" height="108.5%" filterUnits="objectBoundingBox" id="filter-2">
            <feMorphology radius="5.5" operator="erode" in="SourceAlpha" result="shadowSpreadOuter1"></feMorphology>
            <feOffset dx="0" dy="13" in="shadowSpreadOuter1" result="shadowOffsetOuter1"></feOffset>
            <feGaussianBlur stdDeviation="2" in="shadowOffsetOuter1" result="shadowBlurOuter1"></feGaussianBlur>
            <feColorMatrix values="0 0 0 0 0.607892215   0 0 0 0 0.607803345   0 0 0 0 0.607922554  0 0 0 0.5 0" type="matrix" in="shadowBlurOuter1"></feColorMatrix>
        </filter>
        <ellipse id="path-3" cx="30.4545455" cy="30" rx="30.4545455" ry="30"></ellipse>
        <path d="M-8.11472102e-15,40 L-8.11472102e-15,-1.02140518e-14 L67,-1.02140518e-14 L67,40 L63.9545455,40 C63.9545455,56.5685425 50.319581,70 33.5,70 C16.680419,70 3.04545455,56.5685425 3.04545455,40 L3.04545455,40 L-8.11472102e-15,40 Z" id="path-5"></path>
        <path d="M25.3787879,0 C33.2279257,-1.44186322e-15 39.5909091,6.3629834 39.5909091,14.2121212 L39.5908541,15.5420985 C41.0312357,15.7837215 42.1287879,17.0364145 42.1287879,18.5454545 L42.1287879,21.9545455 C42.1287879,23.4979608 40.9806626,24.7732171 39.4918956,24.9728309 C38.9087216,29.9145621 35.7887212,34.0805797 31.4696977,36.1323243 L31.4700066,40.772468 C42.0929031,41.2695127 50.5757894,49.951612 50.7546927,60.6547931 L50.7575758,61 L0,61 C-1.3301058e-15,50.1388619 8.55069526,41.2748457 19.2875692,40.772468 L19.2868822,36.1318511 C14.968375,34.0799393 11.8488093,29.9141822 11.2653807,24.9717751 C9.77707049,24.7733918 8.62878788,23.4980665 8.62878788,21.9545455 L8.62878788,18.5454545 C8.62878788,17.0364564 9.72627912,15.7837911 11.1666016,15.5421186 L11.1666667,14.2121212 C11.1666667,6.3629834 17.5296501,1.44186322e-15 25.3787879,0 Z" id="path-7"></path>
        <path d="M31.5907147,0.26769998 C36.1845319,0.77403484 39.7121212,2.16579698 39.7121212,5.76923077 C39.7121212,5.97597206 39.7005094,6.17948134 39.6777507,6.37968075 C46.2222227,9.65359583 50.7457746,16.3695424 50.8759048,24.1547909 L50.8787879,24.5 L0.121212121,24.5 C0.121212121,16.568025 4.68169325,9.70120753 11.3236477,6.37855525 C11.2994906,6.17948134 11.2878788,5.97597206 11.2878788,5.76923077 C11.2878788,2.16605882 14.8149554,0.774237113 19.4082839,0.26781037 L19.4090909,4.90909091 C19.4090909,8.27300711 22.1360838,11 25.5,11 C28.8639162,11 31.5909091,8.27300711 31.5909091,4.90909091 L31.5909091,4.90909091 Z" id="path-9"></path>
        <rect id="path-11" x="0" y="0" width="67" height="70"></rect>
        <path d="M23.4458683,0.245605751 L23.8561034,0.25 C30.0243853,0.362339141 35.7490498,1.70303997 37.8144367,4.25 C40.9420907,8.10690911 47.4250177,22.7696606 47.4585468,31.5 C47.4820662,37.7000124 45.0378442,43.9149876 41.6212549,44.25 C38.8095916,44.5256966 34.8902307,43.8779345 29.9480991,43.4994219 L29.9469704,40.3823243 C34.7485298,38.1013519 38.0681818,33.2072885 38.0681818,27.5378788 L38.0681818,27.5378788 L38.067764,20.7468495 C35.6513781,19.532387 33.4648854,18.0617366 31.5082859,16.3348982 C32.3230376,17.6592493 33.2078506,18.7868983 34.1631757,19.7182712 C27.3065491,17.823179 21.852394,14.6124425 17.8007105,10.0860616 C15.775145,14.2026498 13.0563109,17.4536318 9.64407133,19.8397957 L9.64393939,27.5378788 C9.64393939,33.2069628 12.9632101,38.1007897 17.7643234,40.3819312 L17.7642769,43.6865304 C12.7809459,44.3586954 8.79129661,45.5408597 5.93471215,45.2500817 C2.32511511,44.8826529 0.379726628,37.6989162 0.253787879,31.5 C0.0971700174,23.7910065 7.44079623,7.69875032 10.1515152,4.5 C12.1623023,2.12719553 17.6878215,0.137660859 23.8561034,0.25 Z" id="path-13"></path>
    </defs>
    <g id="Portfolio-High-f-i" stroke="none" stroke-width="1" fill="none" fill-rule="evenodd">
        <g id="Case-studies-price-my-airbnb-1" transform="translate(-239.000000, -2937.000000)">
            <g id="Unexpected" transform="translate(156.000000, 2831.000000)">
                <g id="opinion-4" transform="translate(80.000000, 101.000000)">
                    <g id="Note-/-Square-/-Yellow-Copy-5" transform="translate(43.000000, 10.000000)">
                        <g id="Rectangle">
                            <use fill="black" fill-opacity="1" filter="url(#filter-2)" xlink:href="#path-1"></use>
                            <use fill="#F1E41B" fill-rule="evenodd" xlink:href="#path-1"></use>
                        </g>
                        <rect id="Rectangle" fill="#EBDE0E" x="0" y="0" width="219" height="39"></rect>
                        <text id="Brianna" font-family="Helvetica-Bold, Helvetica" font-size="18" font-weight="bold" fill="#2D2D2D">
                            <tspan x="25" y="30">Brianna</tspan>
                        </text>
                        <text id="“-I-really-value-a-c" font-family="Helvetica" font-size="16" font-weight="normal" fill="#2D2D2D">
                            <tspan x="25" y="66">“ I really value a clean </tspan>
                            <tspan x="25" y="85">place with all the </tspan>
                            <tspan x="25" y="104">amenities so we feel </tspan>
                            <tspan x="25" y="123">like home”</tspan>
                        </text>
                    </g>
                    <g id="Avataaar/Circle-Copy-5">
                        <g id="Circle" transform="translate(3.045455, 10.000000)">
                            <mask id="mask-4" fill="white">
                                <use xlink:href="#path-3"></use>
                            </mask>
                            <use id="Circle-Background" fill="#E6E6E6" xlink:href="#path-3"></use>
                            <g id="🖍-Circle-Color" mask="url(#mask-4)" fill="#FFAFB9">
                                <rect id="🖍Color" x="0" y="0" width="60.9090909" height="60"></rect>
                            </g>
                        </g>
                        <mask id="mask-6" fill="white">
                            <use xlink:href="#path-5"></use>
                        </mask>
                        <g id="Mask"></g>
                        <g id="Avataaar" mask="url(#mask-6)">
                            <g id="Body" transform="translate(8.121212, 9.000000)">
                                <mask id="mask-8" fill="white">
                                    <use xlink:href="#path-7"></use>
                                </mask>
                                <use fill="#D0C6AC" xlink:href="#path-7"></use>
                                <g id="🎨-Skin" mask="url(#mask-8)" fill="#EDB98A">
                                    <g transform="translate(-8.121212, 0.000000)" id="Color">
                                        <rect x="0" y="0" width="67" height="61"></rect>
                                    </g>
                                </g>
                                <path d="M11.1666667,23.2878788 C11.1666667,31.1370166 17.5296501,37.5 25.3787879,37.5 C33.2279257,37.5 39.5909091,31.1370166 39.5909091,23.2878788 L39.5909091,23.2878788 L39.5909091,25.2878788 C39.5909091,33.1370166 33.2279257,39.5 25.3787879,39.5 C17.5296501,39.5 11.1666667,33.1370166 11.1666667,25.2878788 Z" id="Neck-Shadow" fill-opacity="0.100000001" fill="#000000" mask="url(#mask-8)"></path>
                            </g>
                            <g id="👔-Clothes" transform="translate(8.000000, 45.500000)">
                                <mask id="mask-10" fill="white">
                                    <use xlink:href="#path-9"></use>
                                </mask>
                                <use id="Hoodie" fill="#B7C1DB" xlink:href="#path-9"></use>
                                <g id="↳-Color-Fabric" mask="url(#mask-10)" fill="#B1E2FF">
                                    <g transform="translate(-8.000000, -3.000000)" id="🖍Color">
                                        <rect x="0" y="0" width="67" height="27.5"></rect>
                                    </g>
                                </g>
                                <path d="M17.8859275,12.4345745 L17.8863636,24.5 L16.1098485,24.5 L16.1088812,11.5369993 C16.6683184,11.8645918 17.2631268,12.1649013 17.8859275,12.4345745 Z M34.8902152,11.5375283 L34.8901515,21.6117424 C34.8901515,22.1023135 34.4924651,22.5 34.0018939,22.5 C33.5113228,22.5 33.1136364,22.1023135 33.1136364,21.6117424 L33.1140725,12.4345745 C33.7365379,12.1650465 34.3310412,11.8649151 34.8902152,11.5375283 Z" id="Straps" fill="#F4F4F4" mask="url(#mask-10)"></path>
                                <path d="M35.9151781,0.181043206 C39.7350255,0.892734484 42.3768939,2.3106626 42.3768939,5.07692308 C42.3768939,10.0050024 33.992331,14 25.5,14 C17.007669,14 8.62310606,10.0050024 8.62310606,5.07692308 C8.62310606,2.3106626 11.2649745,0.892734484 15.0848219,0.181043206 C12.7791531,1.01837859 11.2878788,2.42631699 11.2878788,4.76923077 C11.2878788,9.86724384 18.3485633,14 25.5,14 C32.6514367,14 39.7121212,9.86724384 39.7121212,4.76923077 C39.7121212,2.4519521 38.2533021,1.04930057 35.9902405,0.208573554 Z" id="Shadow" fill-opacity="0.16" fill="#000000" mask="url(#mask-10)"></path>
                            </g>
                            <g id="Face" transform="translate(22.287879, 20.500000)" fill="#000000">
                                <g id="👄-Mouth" transform="translate(7.507576, 16.000000)" fill-opacity="0.599999964" fill-rule="nonzero">
                                    <path d="M0.151515152,1 C0.151515152,2.34294075 1.71438009,3.25 3.70454545,3.25 C5.69471082,3.25 7.25757576,2.34294075 7.25757576,1 C7.25757576,0.723857625 7.01655366,0.5 6.75,0.5 C6.42192201,0.5 6.27547544,0.726293876 6.24242424,1 C5.92711203,1.73447432 5.14688783,2.17907873 3.70454545,2.25 C2.26220308,2.17907873 1.48197888,1.73447432 1.16666667,1 C1.13361547,0.726293876 0.987168902,0.5 0.659090909,0.5 C0.39253725,0.5 0.151515152,0.723857625 0.151515152,1 Z" id="Mouth"></path>
                                </g>
                                <g id="👃🏽-Nose" transform="translate(8.106061, 12.000000)" fill-opacity="0.16">
                                    <path d="M0.0606060606,0 C0.0606060606,1.1045695 1.4241025,2 3.10606061,2 L3.10606061,2 C4.78801871,2 6.15151515,1.1045695 6.15151515,0" id="Nose"></path>
                                </g>
                                <g id="👁-Eyes" transform="translate(1.000000, 6.000000)" fill-opacity="0.599999964">
                                    <path d="M0.10125461,1.61182789 C0.569876098,0.662126999 1.62506176,0 2.85165863,0 C4.07392549,0 5.12598922,0.657460507 5.59707791,1.60178106 C5.73701877,1.88229943 5.53788239,2.11187042 5.33701011,1.9417557 C4.71495047,1.41494583 3.83156816,1.08594709 2.85165863,1.08594709 C1.902397,1.08594709 1.04371899,1.39468797 0.425436075,1.8929103 C0.199375457,2.07507359 -0.0358076552,1.88959611 0.10125461,1.61182789 Z" id="Squint"></path>
                                    <path d="M14.8209516,1.61182789 C15.2895731,0.662126999 16.3447587,0 17.5713556,0 C18.7936225,0 19.8456862,0.657460507 20.3167749,1.60178106 C20.4567157,1.88229943 20.2575794,2.11187042 20.0567071,1.9417557 C19.4346474,1.41494583 18.5512651,1.08594709 17.5713556,1.08594709 C16.622094,1.08594709 15.763416,1.39468797 15.145133,1.8929103 C14.9190724,2.07507359 14.6838893,1.88959611 14.8209516,1.61182789 Z" id="Squint"></path>
                                </g>
                                <g id="✏️-Eyebrow" fill-opacity="0.599999964" fill-rule="nonzero">
                                    <g id="I-Browse" transform="translate(0.045455, 0.000000)">
                                        <path d="M1.00900873,4.28197923 C1.38847132,1.9011904 4.5830408,0.277168993 6.89377128,1.32526068 C7.14840174,1.44075492 7.44986568,1.33104361 7.56710984,1.08021361 C7.68435399,0.829383601 7.57298039,0.532419123 7.31834993,0.416924881 C4.40292054,-0.905443664 0.491272293,1.08311865 0.00614278483,4.126873 C-0.0373375785,4.39967344 0.151913811,4.65554361 0.428847595,4.69837501 C0.705781379,4.74120641 0.965528367,4.55477967 1.00900873,4.28197923 Z" id="Eyebrow"></path>
                                        <path d="M15.7287057,4.28197923 C16.1081683,1.9011904 19.3027378,0.277168993 21.6134683,1.32526068 C21.8680987,1.44075492 22.1695627,1.33104361 22.2868068,1.08021361 C22.404051,0.829383601 22.2926774,0.532419123 22.0380469,0.416924881 C19.1226175,-0.905443664 15.2109693,1.08311865 14.7258398,4.126873 C14.6823594,4.39967344 14.8716108,4.65554361 15.1485446,4.69837501 C15.4254783,4.74120641 15.6852253,4.55477967 15.7287057,4.28197923 Z" id="Eyebrow" transform="translate(18.526540, 2.352609) scale(-1, 1) translate(-18.526540, -2.352609) "></path>
                                    </g>
                                </g>
                            </g>
                            <g id="Top">
                                <mask id="mask-12" fill="white">
                                    <use xlink:href="#path-11"></use>
                                </mask>
                                <g id="Mask"></g>
                                <g mask="url(#mask-12)" id="Hair">
                                    <g transform="translate(8.746212, 4.000000)">
                                        <g transform="translate(0.897727, 0.750000)">
                                            <mask id="mask-14" fill="white">
                                                <use xlink:href="#path-13"></use>
                                            </mask>
                                            <use id="Combined-Shape" fill="#E6E6E6" xlink:href="#path-13"></use>
                                            <g id="↳-💈Hair-Color" mask="url(#mask-14)" fill="#2C1B18">
                                                <g transform="translate(-9.897727, -4.750000)" id="Color">
                                                    <rect x="0" y="0" width="67.5075758" height="70"></rect>
                                                </g>
                                            </g>
                                        </g>
                                    </g>
                                </g>
                            </g>
                        </g>
                    </g>
                </g>
            </g>
        </g>
    </g>
</svg>