<?xml version="1.0" encoding="UTF-8"?>
<svg width="319px" height="131px" viewBox="0 0 319 131" version="1.1" xmlns="http://www.w3.org/2000/svg" xmlns:xlink="http://www.w3.org/1999/xlink">
    <!-- Generator: sketchtool 63.1 (101010) - https://sketch.com -->
    <title>F7D67E33-9EC3-4A32-A607-91CAD0C7E141</title>
    <desc>Created with sketchtool.</desc>
    <defs>
        <ellipse id="path-1" cx="48.1818182" cy="45" rx="48.1818182" ry="45"></ellipse>
        <path d="M-1.28382153e-14,60 L-1.28382153e-14,-1.53210777e-14 L106,-1.53210777e-14 L106,60 L101.181818,60 C101.181818,84.8528137 79.6100834,105 53,105 C26.3899166,105 4.81818182,84.8528137 4.81818182,60 L4.81818182,60 L-1.28382153e-14,60 Z" id="path-3"></path>
        <path d="M40.1515152,0 C52.5695541,-2.28115674e-15 62.6363636,10.0668096 62.6363636,22.4848485 L62.6368703,23.3167032 C64.9153908,23.699217 66.6515152,25.6809526 66.6515152,28.0681818 L66.6515152,32.6818182 C66.6515152,35.1745564 64.7585355,37.2251655 62.3316816,37.4745402 C61.1106078,44.8336214 56.3143906,50.9859693 49.7874698,54.0864093 L49.787,61.125 L51.5030303,61.125 C67.4088311,61.125 80.3030303,74.0191992 80.3030303,89.925 L80.3030303,91.5 L0,91.5 L0,89.925 C-9.05332616e-15,74.0191992 12.8941992,61.125 28.8,61.125 L30.515,61.125 L30.5155605,54.0864093 C23.9886397,50.9859693 19.1924225,44.8336214 17.9710187,37.4734753 C15.5444948,37.2251655 13.6515152,35.1745564 13.6515152,32.6818182 L13.6515152,28.0681818 C13.6515152,25.6809526 15.3876395,23.699217 17.66616,23.3167032 L17.6666667,22.4848485 C17.6666667,10.0668096 27.7334762,2.28115674e-15 40.1515152,0 Z" id="path-5"></path>
        <path d="M27.75,2.1875 C27.75,6.6402958 33.7721093,10.25 41.2007576,10.25 C48.6294059,10.25 54.6515152,6.6402958 54.6515152,2.1875 C54.6515152,1.77491395 54.5998126,1.36956622 54.5000792,0.973657696 C69.4024455,2.0723639 81.1515152,14.511309 81.1515152,29.6943963 L81.1515152,31.25 L0.848484848,31.25 L0.848484848,29.6943963 C0.848484848,14.3727107 12.8130355,1.84549557 27.9088132,0.946074554 C27.8040855,1.35109844 27.75,1.76551325 27.75,2.1875 Z" id="path-7"></path>
        <path d="M5.62121212,5.2680445 C9.4797658,5.2680445 11.2424242,6.93729246 11.2424242,4.33566437 C11.2424242,1.73403628 8.72572185,0 5.62121212,0 C2.51670239,0 0,1.73403628 0,4.33566437 C0,6.93729246 1.76265844,5.2680445 5.62121212,5.2680445 Z" id="path-9"></path>
        <path d="M5.62121212,5.2680445 C9.4797658,5.2680445 11.2424242,6.93729246 11.2424242,4.33566437 C11.2424242,1.73403628 8.72572185,0 5.62121212,0 C2.51670239,0 0,1.73403628 0,4.33566437 C0,6.93729246 1.76265844,5.2680445 5.62121212,5.2680445 Z" id="path-11"></path>
        <rect id="path-13" x="0" y="0" width="106" height="105"></rect>
        <path d="M23.2878788,0.375 C46.1742424,0.102886059 46.4630035,20.1382191 46.1742424,24 C46.0349744,24.558168 45.5026056,24.4585021 45.3712121,24 C45.5570092,23.4171458 44.0478403,13.218027 40.1515152,10.5 C39.4451274,10.0411258 37.2415581,9.60381244 34.2727398,9.27713211 L35.7348485,6 L32.9323669,9.14200857 C30.1087658,8.88181089 26.7642937,8.71930226 23.4133982,8.71708802 C15.6623899,8.71196621 7.87701337,9.55627021 6.42424242,10.5 C2.52791728,13.218027 1.01874835,23.4171458 1.20454545,24 C1.07315198,24.4585021 0.540783206,24.558168 0.401515152,24 C0.112754105,20.1382191 0.401515152,0.647113941 23.2878788,0.375 Z" id="path-15"></path>
    </defs>
    <g id="Portfolio-High-f-i" stroke="none" stroke-width="1" fill="none" fill-rule="evenodd">
        <g id="Case-studies-price-my-airbnb-1" transform="translate(-550.000000, -1875.000000)">
            <g id="First-data" transform="translate(157.000000, 1663.000000)">
                <g id="Galen" transform="translate(389.000000, 204.000000)">
                    <g id="Note-/-Square-/-Yellow" transform="translate(82.000000, 8.000000)">
                        <rect id="Rectangle" fill="#F1E41B" x="0" y="0" width="241" height="131"></rect>
                        <rect id="Rectangle" fill="#EBDE0E" x="0" y="-3.55271368e-15" width="225" height="44"></rect>
                        <text id="Galen" font-family="Helvetica-Bold, Helvetica" font-size="18" font-weight="bold" fill="#2D2D2D">
                            <tspan x="27" y="30">Galen</tspan>
                        </text>
                        <text id="“No-tool-used,-compa" font-family="Helvetica" font-size="16" font-weight="normal" fill="#2D2D2D">
                            <tspan x="27" y="71">“No tool used, compare to </tspan>
                            <tspan x="27" y="90">nearby Airbnb, lower the </tspan>
                            <tspan x="27" y="109">price when not booked.”</tspan>
                        </text>
                    </g>
                    <g id="Avataaar/Circle">
                        <g id="Circle" transform="translate(4.818182, 15.000000)">
                            <mask id="mask-2" fill="white">
                                <use xlink:href="#path-1"></use>
                            </mask>
                            <use id="Circle-Background" fill="#E6E6E6" xlink:href="#path-1"></use>
                            <g id="🖍-Circle-Color" mask="url(#mask-2)" fill="#FFAFB9">
                                <rect id="🖍Color" x="0" y="0" width="96.3636364" height="90"></rect>
                            </g>
                        </g>
                        <mask id="mask-4" fill="white">
                            <use xlink:href="#path-3"></use>
                        </mask>
                        <g id="Mask"></g>
                        <g id="Avataaar" mask="url(#mask-4)">
                            <g id="Body" transform="translate(12.848485, 13.500000)">
                                <mask id="mask-6" fill="white">
                                    <use xlink:href="#path-5"></use>
                                </mask>
                                <use fill="#D0C6AC" xlink:href="#path-5"></use>
                                <g id="🎨-Skin" mask="url(#mask-6)" fill="#AE5D29">
                                    <g transform="translate(-12.848485, 0.000000)" id="Color">
                                        <rect x="0" y="0" width="106" height="91.5"></rect>
                                    </g>
                                </g>
                                <path d="M17.6666667,33.7651515 C17.6666667,46.1831904 27.7334762,56.25 40.1515152,56.25 C52.5695541,56.25 62.6363636,46.1831904 62.6363636,33.7651515 L62.6363636,33.7651515 L62.6363636,36.7651515 C62.6363636,49.1831904 52.5695541,59.25 40.1515152,59.25 C27.7334762,59.25 17.6666667,49.1831904 17.6666667,36.7651515 Z" id="Neck-Shadow" fill-opacity="0.100000001" fill="#000000" mask="url(#mask-6)"></path>
                            </g>
                            <g id="👔-Clothes" transform="translate(12.000000, 73.750000)">
                                <mask id="mask-8" fill="white">
                                    <use xlink:href="#path-7"></use>
                                </mask>
                                <use id="Clothes" fill="#E6E6E6" xlink:href="#path-7"></use>
                                <g id="↳-Color-Fabric" mask="url(#mask-8)" fill="#65C9FF">
                                    <g transform="translate(-12.000000, -10.000000)" id="🖍Color">
                                        <rect x="0" y="0" width="106" height="41.25"></rect>
                                    </g>
                                </g>
                                <g id="↳-Graphic" mask="url(#mask-8)" fill="#FFFFFF">
                                    <g transform="translate(26.916667, 11.750000)" id="Batman!">
                                        <path d="M27.2069526,5.02619916 C26.6473487,2.61443617 24.7136733,1.22003411 22.1876911,0.681330632 C21.1735346,0.465096527 17.8062281,-0.213885408 18.330754,1.58424488 C18.5686268,2.39905742 18.4363535,3.07102543 17.7070231,3.74675701 C16.996328,4.40486825 15.6065445,4.57149168 14.9157634,3.74248023 C14.323822,3.0318501 15.0871341,1.97206349 14.6260044,1.27990906 C14.4469604,1.010985 14.1380181,0.873614758 13.8119022,1.00533965 C13.3536957,1.19043878 13.5975975,1.58835059 13.3811004,1.87455285 C13.0403687,2.32566783 12.881056,2.18453402 12.5743061,1.73478761 C12.3815598,1.45217785 12.5710176,1.14424953 12.0737137,1.0234732 C11.4982151,0.883707964 11.3098534,1.33396759 11.2577845,1.7443676 C11.2250816,2.00200096 11.3871347,2.41633562 11.3927983,2.67756147 C11.4037602,3.18906462 11.3564414,3.92364472 11.1017604,4.37578613 C10.650131,5.1772551 10.0158037,4.92081925 9.34183082,4.4117111 C8.54672922,3.81125088 8.3134239,3.14253323 8.4672556,2.23038113 C8.65159786,1.1367224 8.5847304,0.0897661249 7.15055127,0.773880198 C5.13466178,1.7354719 3.26401718,3.44960618 2.09602901,5.24363076 C1.11439277,6.75093987 0.341763022,8.57849442 1.2114054,10.2958791 C2.09895218,12.0490176 3.56510345,13.5547871 5.61460937,14.0023095 C6.1451643,14.1181248 7.65899974,14.6812915 8.16233267,14.2089637 C8.94391462,13.4750678 7.13922399,12.7906116 6.78296294,12.3434313 C6.27780303,11.7096122 5.84444342,10.5004803 6.39893179,9.78540234 C7.10524217,8.87513203 7.8438901,9.38252946 8.42450427,10.0266129 C8.88033573,10.5321285 9.52818276,11.836376 10.2335796,10.7849719 C10.7191909,10.0608271 10.6757088,8.87188167 12.0004518,9.3912541 C13.8933855,10.1330192 13.9514835,13.5582085 14.2889267,15.1253925 C14.4363639,15.8113884 15.1061347,16.6492956 15.6825468,15.6972838 C15.9993451,15.1738057 15.8283398,14.0390899 15.7706073,13.4985046 C15.6514882,12.3791852 15.337065,11.2785125 15.7265771,10.1696284 C15.9518437,9.52811112 16.5299001,8.60980046 17.3847439,9.10317005 C18.0771692,9.50279257 17.7886891,11.2841579 18.7306799,11.2809075 C19.5604941,11.2781704 19.3341313,9.85913406 19.775895,9.3912541 C20.4502333,8.67703148 21.749764,9.01660798 22.1485937,9.85947621 C22.685543,10.9938499 21.2643355,11.7816332 21.3280971,12.7788077 C21.3902144,13.7506637 22.7310348,13.3713986 23.2919176,13.1248849 C24.4447419,12.6185139 25.3469045,11.6800168 25.972097,10.6607741 C26.938752,9.08452328 27.6286195,6.8275798 27.2069526,5.02619916"></path>
                                    </g>
                                </g>
                            </g>
                            <g id="Face" transform="translate(33.515152, 32.750000)">
                                <g id="👄-Mouth" transform="translate(13.803030, 22.500000)" fill="#000000" fill-opacity="0.599999964" fill-rule="nonzero">
                                    <path d="M0.0606060606,1 C0.0606060606,3.01441113 2.53319835,4.375 5.68181818,4.375 C8.83043802,4.375 11.3030303,3.01441113 11.3030303,1 C11.3030303,0.585786438 10.9217118,0.25 10.5,0.25 C9.98095123,0.25 9.74925964,0.589440814 9.6969697,1 C9.19811754,2.10171149 7.96373299,2.76861809 5.68181818,2.875 C3.39990338,2.76861809 2.16551882,2.10171149 1.66666667,1 C1.61437672,0.589440814 1.38268513,0.25 0.863636364,0.25 C0.441924605,0.25 0.0606060606,0.585786438 0.0606060606,1 Z" id="Mouth"></path>
                                </g>
                                <g id="👃🏽-Nose" transform="translate(14.242424, 16.000000)" fill="#000000" fill-opacity="0.16">
                                    <path d="M0.424242424,-7.10542736e-15 C0.424242424,1.65685425 2.5814159,3 5.24242424,3 L5.24242424,3 C7.90343258,3 10.0606061,1.65685425 10.0606061,-7.10542736e-15" id="Nose"></path>
                                </g>
                                <g id="👁-Eyes" transform="translate(3.000000, 5.000000)">
                                    <g id="Eye" transform="translate(0.424242, 0.875000)">
                                        <mask id="mask-10" fill="white">
                                            <use xlink:href="#path-9"></use>
                                        </mask>
                                        <use id="The-white-stuff" fill="#FFFFFF" xlink:href="#path-9"></use>
                                        <ellipse fill-opacity="0.699999988" fill="#000000" mask="url(#mask-10)" cx="5.62121212" cy="3.75" rx="2.40909091" ry="2.25"></ellipse>
                                    </g>
                                    <g id="Eye" transform="translate(21.303030, 0.875000)">
                                        <mask id="mask-12" fill="white">
                                            <use xlink:href="#path-11"></use>
                                        </mask>
                                        <use id="Eyeball-Mask" fill="#FFFFFF" xlink:href="#path-11"></use>
                                        <ellipse fill-opacity="0.699999988" fill="#000000" mask="url(#mask-12)" cx="5.62121212" cy="3.75" rx="2.40909091" ry="2.25"></ellipse>
                                    </g>
                                </g>
                                <g id="✏️-Eyebrow" fill="#000000" fill-opacity="0.599999964">
                                    <path d="M12.4882451,2.00302491 C10.4875411,2.20870648 8.5078386,2.17405742 6.50081838,2.1663648 C4.96190198,2.16061001 3.39512537,2.01906944 1.95005997,2.70491533 C1.67333056,2.83612456 0.162071445,3.62253377 0.211813447,4.02217749 C0.251489325,4.3417922 1.81975528,4.78833197 2.10209362,4.87024723 C3.59111862,5.30239174 4.99522272,5.10524764 6.50629781,4.96755069 C8.35968316,4.79877862 10.2110896,4.81059981 12.0655269,4.69360162 C13.3143251,4.61494566 15.2341296,4.34988255 15.8025181,2.91278625 C15.9736994,2.47995928 15.8000136,1.63208255 15.5972935,1.17234364 C15.5164632,0.989176366 15.2991969,0.926715842 15.140484,1.03943098 C14.5722843,1.44313719 13.4586836,1.9033948 12.4882451,2.00302491" id="Fill-10" transform="translate(8.041443, 3.058624) rotate(2.000000) translate(-8.041443, -3.058624) "></path>
                                    <path d="M35.3751749,2.00302282 C33.3744708,2.20870439 31.3947683,2.17405533 29.3877481,2.16636271 C27.8488317,2.16060792 26.2820551,2.01906735 24.8369897,2.70491324 C24.5602603,2.83612247 23.0490012,3.62253168 23.0987432,4.0221754 C23.1384191,4.34179011 24.706685,4.78832989 24.9890234,4.87024514 C26.4780484,5.30238965 27.8821525,5.10524555 29.3932276,4.9675486 C31.2466129,4.79877653 33.0980193,4.81059772 34.9524567,4.69359953 C36.2012548,4.61494357 38.1210593,4.34988047 38.6894478,2.91278417 C38.8606292,2.47995719 38.6869433,1.63208047 38.4842233,1.17234155 C38.403393,0.989174278 38.1861266,0.926713754 38.0274137,1.03942889 C37.4592141,1.4431351 36.3456134,1.90339271 35.3751749,2.00302282" id="Fill-10" transform="translate(30.928313, 3.058622) scale(-1, 1) rotate(2.000000) translate(-30.928313, -3.058622) "></path>
                                </g>
                            </g>
                            <g id="Top">
                                <mask id="mask-14" fill="white">
                                    <use xlink:href="#path-13"></use>
                                </mask>
                                <g id="Mask"></g>
                                <g mask="url(#mask-14)" id="Hair">
                                    <g transform="translate(29.598485, 12.000000)">
                                        <g transform="translate(0.113636, 0.750000)">
                                            <mask id="mask-16" fill="white">
                                                <use xlink:href="#path-15"></use>
                                            </mask>
                                            <use id="Caesar" fill="#28354B" xlink:href="#path-15"></use>
                                        </g>
                                    </g>
                                </g>
                            </g>
                        </g>
                    </g>
                </g>
            </g>
        </g>
    </g>
</svg>