<?xml version="1.0" encoding="UTF-8"?>
<svg width="98px" height="102px" viewBox="0 0 98 102" version="1.1" xmlns="http://www.w3.org/2000/svg" xmlns:xlink="http://www.w3.org/1999/xlink">
    <!-- Generator: Sketch 60 (88103) - https://sketch.com -->
    <title>Avataaar/Circle</title>
    <desc>Created with Sketch.</desc>
    <defs>
        <ellipse id="path-1" cx="48.1818182" cy="45" rx="48.1818182" ry="45"></ellipse>
        <path d="M-3.19744231e-14,60 L-3.19744231e-14,-1.42108547e-14 L106,-1.42108547e-14 L106,60 L101.181818,60 C101.181818,84.8528137 79.6100834,105 53,105 C26.3899166,105 4.81818182,84.8528137 4.81818182,60 L4.81818182,60 L-3.19744231e-14,60 Z" id="path-3"></path>
        <path d="M40.1515152,0 C52.5695541,-2.28115674e-15 62.6363636,10.0668096 62.6363636,22.4848485 L62.6368703,23.3167032 C64.9153908,23.699217 66.6515152,25.6809526 66.6515152,28.0681818 L66.6515152,32.6818182 C66.6515152,35.1745564 64.7585355,37.2251655 62.3316816,37.4745402 C61.1106078,44.8336214 56.3143906,50.9859693 49.7874698,54.0864093 L49.787,61.125 L51.5030303,61.125 C67.4088311,61.125 80.3030303,74.0191992 80.3030303,89.925 L80.3030303,91.5 L0,91.5 L0,89.925 C-1.9478988e-15,74.0191992 12.8941992,61.125 28.8,61.125 L30.515,61.125 L30.5155605,54.0864093 C23.9886397,50.9859693 19.1924225,44.8336214 17.9710187,37.4734753 C15.5444948,37.2251655 13.6515152,35.1745564 13.6515152,32.6818182 L13.6515152,28.0681818 C13.6515152,25.6809526 15.3876395,23.699217 17.66616,23.3167032 L17.6666667,22.4848485 C17.6666667,10.0668096 27.7334762,2.28115674e-15 40.1515152,0 Z" id="path-5"></path>
        <path d="M33.3257576,13.6303594 C33.3257576,19.7358734 42.2240982,24.6853704 53.2007576,24.6853704 C64.177417,24.6853704 73.0757576,19.7358734 73.0757576,13.6303594 C73.0757576,13.1412018 73.018641,12.6594644 72.9079151,12.187098 C84.6352248,15.8303258 93.1515152,26.767818 93.1515152,39.6943963 L93.1515152,41.25 L12.8484848,41.25 L12.8484848,39.6943963 C12.8484848,26.6093215 21.574897,15.5624094 33.5255623,12.055819 C33.3939033,12.5706078 33.3257576,13.0960571 33.3257576,13.6303594 Z" id="path-7"></path>
        <rect id="path-9" x="0" y="0" width="106" height="105"></rect>
        <path d="M52.1969697,0 C59.777165,0 66.2423341,4.45873124 68.7498397,10.7212778 C77.1264262,12.0139311 83.5151515,18.8101518 83.5151515,27 C83.5151515,30.6251958 82.2633789,33.9773317 80.1415024,36.6999435 C84.1777882,39.998791 86.7272727,44.8463251 86.7272727,50.25 C86.7272727,60.1911255 78.0985788,68.25 67.4545455,68.25 C65.5591079,68.25 63.7275783,67.994447 61.9973015,67.5182199 C60.3194416,68.8411825 58.4776046,69.9887207 56.5045956,70.9307498 C55.9129238,70.8934113 55.3161877,70.875 54.7151515,70.875 L54.7151515,70.875 L52.999,70.875 L52.999591,63.8364093 C59.638856,60.6826032 64.4873254,54.3709235 65.6040161,46.8423532 C68.0018849,46.5661659 69.8636364,44.5289097 69.8636364,42.0568182 L69.8636364,42.0568182 L69.8636364,37.8181818 C69.8636364,36.0369286 68.8970427,34.4814354 67.4597623,33.6476091 C67.118709,33.5242317 66.7762426,33.3756454 66.4335892,33.2050144 C66.2435111,33.145871 66.0483269,33.1001672 65.8489915,33.0667032 L65.8488594,32.8926 C62.363326,30.9040606 58.928325,26.6907335 56.7942986,21.2997329 C52.7238762,22.0631648 48.0000347,22.5 42.9621212,22.5 C38.1594716,22.5 33.6422455,22.1030114 29.7044312,21.4045382 C27.6058993,26.6494332 24.276645,30.7667885 20.8780535,32.7840673 L20.8782813,33.0667032 C18.5997607,33.449217 16.8636364,35.4309526 16.8636364,37.8181818 L16.8636364,37.8181818 L16.8636364,42.0568182 C16.8636364,44.5289097 18.7253878,46.5661659 21.1232777,46.8429738 C22.2399345,54.3708366 27.0883048,60.6824575 33.7274518,63.8363001 L33.727,70.875 L32.0121212,70.875 C31.4114234,70.875 30.815021,70.8933906 30.2234462,70.9296394 C28.2496861,69.9887621 26.4075461,68.8410218 24.7290004,67.5179447 C22.9994244,67.9944847 21.1680251,68.25 19.2727273,68.25 C8.62869391,68.25 0,60.1911255 0,50.25 C0,44.8463287 2.5494811,39.9987976 6.58630298,36.6994056 C4.46389384,33.9773317 3.21212121,30.6251958 3.21212121,27 C3.21212121,18.8098265 9.60135401,12.0133912 17.978615,10.721253 C20.4849386,4.45873124 26.9501077,0 34.530303,0 C37.7481389,0 40.7650415,0.803485948 43.3635543,2.2073619 C45.961696,0.803628506 48.9788483,0 52.1969697,0 Z" id="path-11"></path>
    </defs>
    <g id="Portfolio-High-f-i" stroke="none" stroke-width="1" fill="none" fill-rule="evenodd">
        <g id="Case-studies" transform="translate(-113.000000, -2359.000000)">
            <g id="First-data" transform="translate(0.000000, 2043.000000)">
                <g id="Group-14" transform="translate(109.000000, 313.000000)">
                    <g id="Avataaar/Circle">
                        <g id="Circle" stroke-width="1" fill-rule="evenodd" transform="translate(4.818182, 15.000000)">
                            <mask id="mask-2" fill="white">
                                <use xlink:href="#path-1"></use>
                            </mask>
                            <use id="Circle-Background" fill="#E6E6E6" xlink:href="#path-1"></use>
                            <g id="Color/Palette/Blue-01" mask="url(#mask-2)" fill="#65C9FF">
                                <rect id="ðŸ–Color" x="0" y="0" width="96.3636364" height="90"></rect>
                            </g>
                        </g>
                        <mask id="mask-4" fill="white">
                            <use xlink:href="#path-3"></use>
                        </mask>
                        <g id="Mask"></g>
                        <g id="Avataaar" stroke-width="1" fill-rule="evenodd" mask="url(#mask-4)">
                            <g id="Body" transform="translate(12.848485, 13.500000)">
                                <mask id="mask-6" fill="white">
                                    <use xlink:href="#path-5"></use>
                                </mask>
                                <use fill="#D0C6AC" xlink:href="#path-5"></use>
                                <g id="Skin/ðŸ‘¶ðŸ»-05-Pale" mask="url(#mask-6)" fill="#FFDBB4">
                                    <g transform="translate(-12.848485, 0.000000)" id="Color">
                                        <rect x="0" y="0" width="106" height="91.5"></rect>
                                    </g>
                                </g>
                                <path d="M17.6666667,33.7651515 C17.6666667,46.1831904 27.7334762,56.25 40.1515152,56.25 C52.5695541,56.25 62.6363636,46.1831904 62.6363636,33.7651515 L62.6363636,33.7651515 L62.6363636,36.7651515 C62.6363636,49.1831904 52.5695541,59.25 40.1515152,59.25 C27.7334762,59.25 17.6666667,49.1831904 17.6666667,36.7651515 Z" id="Neck-Shadow" fill-opacity="0.100000001" fill="#000000" mask="url(#mask-6)"></path>
                            </g>
                            <g id="Clothing/Shirt-Scoop-Neck" transform="translate(0.000000, 63.750000)">
                                <mask id="mask-8" fill="white">
                                    <use xlink:href="#path-7"></use>
                                </mask>
                                <use id="Clothes" fill="#E6E6E6" fill-rule="evenodd" xlink:href="#path-7"></use>
                                <g id="Color/Palette/Gray-01" mask="url(#mask-8)" fill="#E6E6E6" fill-rule="evenodd">
                                    <rect id="ðŸ–Color" x="0" y="0" width="106" height="41.25"></rect>
                                </g>
                            </g>
                            <g id="Face" transform="translate(30.515152, 30.750000)" fill="#000000">
                                <g id="Mouth/Default" transform="translate(0.803030, 19.500000)" fill-opacity="0.699999988">
                                    <path d="M16.0606061,5.625 C16.0606061,8.52449494 18.5773085,10.875 21.6818182,10.875 L21.6818182,10.875 C24.7863279,10.875 27.3030303,8.52449494 27.3030303,5.625" id="Mouth"></path>
                                </g>
                                <g id="Nose/Default" transform="translate(11.242424, 15.000000)" fill-opacity="0.16">
                                    <path d="M6.42424242,3 C6.42424242,4.65685425 8.5814159,6 11.2424242,6 L11.2424242,6 C13.9034326,6 16.0606061,4.65685425 16.0606061,3" id="Nose"></path>
                                </g>
                                <g id="Eyes/Default-ðŸ˜€" transform="translate(0.000000, 3.000000)" fill-opacity="0.599999964">
                                    <ellipse id="Eye" cx="12.0454545" cy="8.25" rx="2.40909091" ry="2.25"></ellipse>
                                    <ellipse id="Eye" cx="32.9242424" cy="8.25" rx="2.40909091" ry="2.25"></ellipse>
                                </g>
                                <g id="Eyebrow/Outline/Default" fill-opacity="0.599999964">
                                    <g id="I-Browse" transform="translate(4.818182, 2.250000)">
                                        <path d="M1.45759852,4.18446628 C3.02949406,2.11870002 7.3388617,0.960313954 11.0509123,1.81169267 C11.4816168,1.91047706 11.9165146,1.66446005 12.0222837,1.26219829 C12.1280529,0.859936539 11.8646407,0.453758385 11.4339362,0.354973995 C7.12302465,-0.633756709 2.13288848,0.70762437 0.14846209,3.31553372 C-0.108453107,3.65316859 -0.0236638542,4.12139291 0.337844188,4.36134201 C0.699352229,4.60129111 1.20068332,4.52210115 1.45759852,4.18446628 Z" id="Eyebrow" fill-rule="nonzero"></path>
                                        <path d="M24.7454773,4.18446628 C26.3173728,2.11870002 30.6267405,0.960313954 34.3387911,1.81169267 C34.7694956,1.91047706 35.2043934,1.66446005 35.3101625,1.26219829 C35.4159317,0.859936539 35.1525195,0.453758385 34.721815,0.354973995 C30.4109034,-0.633756709 25.4207673,0.70762437 23.4363409,3.31553372 C23.1794257,3.65316859 23.2642149,4.12139291 23.625723,4.36134201 C23.987231,4.60129111 24.4885621,4.52210115 24.7454773,4.18446628 Z" id="Eyebrow" fill-rule="nonzero" transform="translate(29.310668, 2.264699) scale(-1, 1) translate(-29.310668, -2.264699) "></path>
                                    </g>
                                </g>
                            </g>
                            <g id="Top">
                                <mask id="mask-10" fill="white">
                                    <use xlink:href="#path-9"></use>
                                </mask>
                                <g id="Mask"></g>
                                <g id="Top/Long-Hair/Curly" mask="url(#mask-10)">
                                    <g transform="translate(-0.401515, 0.000000)">
                                        <path d="M53,9.75 C56.9966332,9.75 60.7956075,10.024919 64.2275006,10.5197192 C73.4626898,14.6311366 79.9015152,23.8886342 79.9015152,34.65 L79.9014334,39.3915495 C75.2374019,39.2511865 69.7218167,33.9658615 66.7724104,26.3975663 L66.8334113,26.5495015 C62.7627069,27.3130767 58.0384212,27.75 53,27.75 C48.1968553,27.75 43.6791929,27.3529295 39.7410921,26.6543222 L39.8437902,26.3975663 C36.9335829,33.8652754 31.5249548,39.1102944 26.9011718,39.3832334 L26.9015152,34.65 C26.9015152,23.7480221 33.5097041,14.3894694 42.9390628,10.3613612 C46.0577832,9.96678953 49.4509589,9.75 53,9.75 Z" id="Shadow" fill-opacity="0.16" fill="#000000" fill-rule="evenodd"></path>
                                        <g id="Hair" stroke-width="1" fill="none" fill-rule="evenodd" transform="translate(10.037879, 3.750000)">
                                            <mask id="mask-12" fill="white">
                                                <use xlink:href="#path-11"></use>
                                            </mask>
                                            <use id="Curly!" fill="#314756" xlink:href="#path-11"></use>
                                            <g id="Color/Hair/Brown-Dark" mask="url(#mask-12)" fill="#4A312C">
                                                <g transform="translate(-9.636364, -3.750000)" id="Color">
                                                    <rect x="0" y="0" width="106" height="105"></rect>
                                                </g>
                                            </g>
                                        </g>
                                        <g id="Facial-Hair/-Blank" fill="none" transform="translate(19.674242, 27.000000)"></g>
                                        <g id="Top/_Resources/Blank" fill="none" transform="translate(24.893939, 31.875000)"></g>
                                    </g>
                                </g>
                            </g>
                        </g>
                    </g>
                </g>
            </g>
        </g>
    </g>
</svg>