<?xml version="1.0" encoding="UTF-8"?>
<svg width="98px" height="99px" viewBox="0 0 98 99" version="1.1" xmlns="http://www.w3.org/2000/svg" xmlns:xlink="http://www.w3.org/1999/xlink">
    <!-- Generator: Sketch 62 (91390) - https://sketch.com -->
    <title>Avataaar_morena</title>
    <desc>Created with Sketch.</desc>
    <defs>
        <ellipse id="path-1" cx="48.1818182" cy="45" rx="48.1818182" ry="45"></ellipse>
        <path d="M-1.28382153e-14,60 L-1.28382153e-14,-1.53210777e-14 L106,-1.53210777e-14 L106,60 L101.181818,60 C101.181818,84.8528137 79.6100834,105 53,105 C26.3899166,105 4.81818182,84.8528137 4.81818182,60 L4.81818182,60 L-1.28382153e-14,60 Z" id="path-3"></path>
        <path d="M40.1515152,0 C52.5695541,-2.28115674e-15 62.6363636,10.0668096 62.6363636,22.4848485 L62.6368703,23.3167032 C64.9153908,23.699217 66.6515152,25.6809526 66.6515152,28.0681818 L66.6515152,32.6818182 C66.6515152,35.1745564 64.7585355,37.2251655 62.3316816,37.4745402 C61.1106078,44.8336214 56.3143906,50.9859693 49.7874698,54.0864093 L49.787,61.125 L51.5030303,61.125 C67.4088311,61.125 80.3030303,74.0191992 80.3030303,89.925 L80.3030303,91.5 L0,91.5 L0,89.925 C-9.05332616e-15,74.0191992 12.8941992,61.125 28.8,61.125 L30.515,61.125 L30.5155605,54.0864093 C23.9886397,50.9859693 19.1924225,44.8336214 17.9710187,37.4734753 C15.5444948,37.2251655 13.6515152,35.1745564 13.6515152,32.6818182 L13.6515152,28.0681818 C13.6515152,25.6809526 15.3876395,23.699217 17.66616,23.3167032 L17.6666667,22.4848485 C17.6666667,10.0668096 27.7334762,2.28115674e-15 40.1515152,0 Z" id="path-5"></path>
        <path d="M33.3257576,13.6303594 C33.3257576,19.7358734 42.2240982,24.6853704 53.2007576,24.6853704 C64.177417,24.6853704 73.0757576,19.7358734 73.0757576,13.6303594 C73.0757576,13.1412018 73.018641,12.6594644 72.9079151,12.187098 C84.6352248,15.8303258 93.1515152,26.767818 93.1515152,39.6943963 L93.1515152,41.25 L12.8484848,41.25 L12.8484848,39.6943963 C12.8484848,26.6093215 21.574897,15.5624094 33.5255623,12.055819 C33.3939033,12.5706078 33.3257576,13.0960571 33.3257576,13.6303594 Z" id="path-7"></path>
        <rect id="path-9" x="0" y="0" width="106" height="105"></rect>
        <path d="M59.4242424,74.1030191 C54.4153895,70.2138345 47.9774119,67.875 40.9545455,67.875 L40.9545455,67.875 L39.3484848,67.875 L39.3484848,60.9791065 C46.3873595,57.8561192 51.4132898,51.4180469 52.1132214,43.8251952 C54.4330595,43.5008866 56.2121212,41.6319843 56.2121212,39.375 L56.2121212,39.375 L56.2121212,34.5 C56.2121212,32.752874 55.1460594,31.2382972 53.5883269,30.4927293 C53.2832087,30.3909985 52.9792954,30.2799552 52.6758463,30.1616881 C52.5194488,30.1207887 52.3595904,30.0876997 52.1969697,30.0622188 L52.1969697,30.0622188 L52.1961601,29.968557 C47.0667652,27.8371988 42.1098729,23.6511436 38.5897943,17.9568177 C37.4112769,16.0503653 36.4700503,14.098179 35.7614058,12.1488884 C32.2944236,16.1028432 27.2004622,20.1008963 21.0159119,23.4357504 C17.1758537,25.5063994 13.3089383,27.1091271 9.63636364,28.2247345 L9.63565765,51.4658892 C11.8846951,55.6185284 15.5673248,58.9788182 20.0757576,60.9791065 L20.0757576,60.9791065 L20.0757576,67.875 L18.469697,67.875 C15.3887546,67.875 12.4203794,68.3251299 9.63585193,69.1588162 L9.63636364,86.25 C9.63636364,91.5397079 5.44822999,95.9158222 0,96.6436667 L0,27.75 C0,12.4240982 13.3025698,0 29.7121212,0 C46.1216726,0 59.4242424,12.4240982 59.4242424,27.75 Z" id="path-11"></path>
    </defs>
    <g id="Portfolio-High-f-i" stroke="none" stroke-width="1" fill="none" fill-rule="evenodd">
        <g id="Case-studies" transform="translate(-115.000000, -2090.000000)">
            <g id="First-data" transform="translate(0.000000, 1614.000000)">
                <g id="Group-13" transform="translate(111.000000, 470.000000)">
                    <g id="Avataaar/Circle">
                        <g id="Circle" stroke-width="1" fill-rule="evenodd" transform="translate(4.818182, 15.000000)">
                            <mask id="mask-2" fill="white">
                                <use xlink:href="#path-1"></use>
                            </mask>
                            <use id="Circle-Background" fill="#E6E6E6" xlink:href="#path-1"></use>
                            <g id="Color/Palette/Blue-01" mask="url(#mask-2)" fill="#65C9FF">
                                <rect id="ðŸ–Color" x="0" y="0" width="96.3636364" height="90"></rect>
                            </g>
                        </g>
                        <mask id="mask-4" fill="white">
                            <use xlink:href="#path-3"></use>
                        </mask>
                        <g id="Mask"></g>
                        <g id="Avataaar" stroke-width="1" fill-rule="evenodd" mask="url(#mask-4)">
                            <g id="Body" transform="translate(12.848485, 13.500000)">
                                <mask id="mask-6" fill="white">
                                    <use xlink:href="#path-5"></use>
                                </mask>
                                <use fill="#D0C6AC" xlink:href="#path-5"></use>
                                <g id="Skin/ðŸ‘¶ðŸ½-03-Brown" mask="url(#mask-6)" fill="#D08B5B">
                                    <g transform="translate(-12.848485, 0.000000)" id="Color">
                                        <rect x="0" y="0" width="106" height="91.5"></rect>
                                    </g>
                                </g>
                                <path d="M17.6666667,33.7651515 C17.6666667,46.1831904 27.7334762,56.25 40.1515152,56.25 C52.5695541,56.25 62.6363636,46.1831904 62.6363636,33.7651515 L62.6363636,33.7651515 L62.6363636,36.7651515 C62.6363636,49.1831904 52.5695541,59.25 40.1515152,59.25 C27.7334762,59.25 17.6666667,49.1831904 17.6666667,36.7651515 Z" id="Neck-Shadow" fill-opacity="0.100000001" fill="#000000" mask="url(#mask-6)"></path>
                            </g>
                            <g id="Clothing/Shirt-Scoop-Neck" transform="translate(0.000000, 63.750000)">
                                <mask id="mask-8" fill="white">
                                    <use xlink:href="#path-7"></use>
                                </mask>
                                <use id="Clothes" fill="#E6E6E6" fill-rule="evenodd" xlink:href="#path-7"></use>
                                <g id="Color/Palette/Gray-01" mask="url(#mask-8)" fill="#E6E6E6" fill-rule="evenodd">
                                    <rect id="ðŸ–Color" x="0" y="0" width="106" height="41.25"></rect>
                                </g>
                            </g>
                            <g id="Face" transform="translate(30.515152, 30.750000)" fill="#000000">
                                <g id="Mouth/Default" transform="translate(0.803030, 19.500000)" fill-opacity="0.699999988">
                                    <path d="M16.0606061,5.625 C16.0606061,8.52449494 18.5773085,10.875 21.6818182,10.875 L21.6818182,10.875 C24.7863279,10.875 27.3030303,8.52449494 27.3030303,5.625" id="Mouth"></path>
                                </g>
                                <g id="Nose/Default" transform="translate(11.242424, 15.000000)" fill-opacity="0.16">
                                    <path d="M6.42424242,3 C6.42424242,4.65685425 8.5814159,6 11.2424242,6 L11.2424242,6 C13.9034326,6 16.0606061,4.65685425 16.0606061,3" id="Nose"></path>
                                </g>
                                <g id="Eyes/Default-ðŸ˜€" transform="translate(0.000000, 3.000000)" fill-opacity="0.599999964">
                                    <ellipse id="Eye" cx="12.0454545" cy="8.25" rx="2.40909091" ry="2.25"></ellipse>
                                    <ellipse id="Eye" cx="32.9242424" cy="8.25" rx="2.40909091" ry="2.25"></ellipse>
                                </g>
                                <g id="Eyebrow/Outline/Default" fill-opacity="0.599999964">
                                    <g id="I-Browse" transform="translate(4.818182, 2.250000)">
                                        <path d="M1.45759852,4.18446628 C3.02949406,2.11870002 7.3388617,0.960313954 11.0509123,1.81169267 C11.4816168,1.91047706 11.9165146,1.66446005 12.0222837,1.26219829 C12.1280529,0.859936539 11.8646407,0.453758385 11.4339362,0.354973995 C7.12302465,-0.633756709 2.13288848,0.70762437 0.14846209,3.31553372 C-0.108453107,3.65316859 -0.0236638542,4.12139291 0.337844188,4.36134201 C0.699352229,4.60129111 1.20068332,4.52210115 1.45759852,4.18446628 Z" id="Eyebrow" fill-rule="nonzero"></path>
                                        <path d="M24.7454773,4.18446628 C26.3173728,2.11870002 30.6267405,0.960313954 34.3387911,1.81169267 C34.7694956,1.91047706 35.2043934,1.66446005 35.3101625,1.26219829 C35.4159317,0.859936539 35.1525195,0.453758385 34.721815,0.354973995 C30.4109034,-0.633756709 25.4207673,0.70762437 23.4363409,3.31553372 C23.1794257,3.65316859 23.2642149,4.12139291 23.625723,4.36134201 C23.987231,4.60129111 24.4885621,4.52210115 24.7454773,4.18446628 Z" id="Eyebrow" fill-rule="nonzero" transform="translate(29.310668, 2.264699) scale(-1, 1) translate(-29.310668, -2.264699) "></path>
                                    </g>
                                </g>
                            </g>
                            <g id="Top">
                                <mask id="mask-10" fill="white">
                                    <use xlink:href="#path-9"></use>
                                </mask>
                                <g id="Mask"></g>
                                <g id="Top/Long-Hair/Straight" mask="url(#mask-10)">
                                    <g transform="translate(-0.401515, 0.000000)">
                                        <g id="Hair" stroke-width="1" fill="none" fill-rule="evenodd" transform="translate(23.689394, 6.750000)">
                                            <mask id="mask-12" fill="white">
                                                <use xlink:href="#path-11"></use>
                                            </mask>
                                            <use id="Mask-Hair" fill="#944F23" xlink:href="#path-11"></use>
                                            <g id="Color/Hair/Auburn" mask="url(#mask-12)" fill="#A55728">
                                                <g transform="translate(-23.287879, -6.750000)" id="Color">
                                                    <rect x="0" y="0" width="106" height="105"></rect>
                                                </g>
                                            </g>
                                        </g>
                                        <path d="M83.1136364,80.8530191 C78.1047835,76.9638345 71.6668058,74.625 64.6439394,74.625 L64.6439394,74.625 L63.0378788,74.625 L63.0378788,67.7291065 C70.0767535,64.6061192 75.1026837,58.1680469 75.8026153,50.5751952 C78.1224534,50.2508866 79.9015152,48.3819843 79.9015152,46.125 L79.9015152,46.125 L79.9015152,41.25 C79.9015152,39.5051101 78.8381804,37.9921745 77.2836995,37.2455958 C79.2411444,37.9139669 81.2079565,38.2769276 83.1136364,38.3055869 L83.1136364,38.3055869 Z M33.3247759,58.2153801 C35.573788,62.3682538 39.2565345,65.7287365 43.7651515,67.7291065 L43.7651515,67.7291065 L43.7651515,74.625 L42.1590909,74.625 C39.0781486,74.625 36.1097733,75.0751299 33.3252459,75.9088162 Z" id="Shadow" fill-opacity="0.24" fill="#000000" fill-rule="evenodd"></path>
                                        <g id="Facial-Hair/-Blank" fill="none" transform="translate(19.674242, 27.000000)"></g>
                                        <g id="Top/_Resources/Blank" fill="none" transform="translate(24.893939, 31.875000)"></g>
                                    </g>
                                </g>
                            </g>
                        </g>
                    </g>
                </g>
            </g>
        </g>
    </g>
</svg>