<?xml version="1.0" encoding="UTF-8"?>
<svg width="107px" height="105px" viewBox="0 0 107 105" version="1.1" xmlns="http://www.w3.org/2000/svg" xmlns:xlink="http://www.w3.org/1999/xlink">
    <!-- Generator: sketchtool 62 (101010) - https://sketch.com -->
    <title>4A89EA36-00E5-4E93-8F37-3DD0F8FB1873</title>
    <desc>Created with sketchtool.</desc>
    <defs>
        <ellipse id="path-1" cx="48.1818182" cy="45" rx="48.1818182" ry="45"></ellipse>
        <path d="M106,-5.32907052e-15 L106,60 L101.181,59.999 C101.181818,84.6042856 80.0393609,104.596586 53.7967745,104.993971 L53,105 C26.3899166,105 4.81818182,84.8528137 4.81818182,60 C4.81818182,59.9996664 4.81818182,59.9993328 4.81818183,59.9989992 L-1.28382153e-14,60 L-1.28382153e-14,-5.32907052e-15 L106,-5.32907052e-15 Z" id="path-3"></path>
        <path d="M40.1515152,0 C52.5695541,-2.28115674e-15 62.6363636,10.0668096 62.6363636,22.4848485 L62.6368703,23.3167032 C64.9153908,23.699217 66.6515152,25.6809526 66.6515152,28.0681818 L66.6515152,32.6818182 C66.6515152,35.1745564 64.7585355,37.2251655 62.3316816,37.4745402 C61.1106078,44.8336214 56.3143906,50.9859693 49.7874698,54.0864093 L49.787,61.125 L49.9280303,61.125 C66.5359231,61.125 80.0307257,74.4537236 80.2989609,90.9976938 L80.3030303,91.5 L0,91.5 C-2.05442452e-15,74.7243507 13.5993507,61.125 30.375,61.125 L30.515,61.125 L30.5155605,54.0864093 C23.9886397,50.9859693 19.1924225,44.8336214 17.9710187,37.4734753 C15.5444948,37.2251655 13.6515152,35.1745564 13.6515152,32.6818182 L13.6515152,28.0681818 C13.6515152,25.6809526 15.3876395,23.699217 17.66616,23.3167032 L17.6666667,22.4848485 C17.6666667,10.0668096 27.7334762,2.28115674e-15 40.1515152,0 Z" id="path-5"></path>
        <path d="M33.3257576,13.6303596 C33.3257576,19.7358738 42.2240982,24.6853709 53.2007576,24.6853709 C64.177417,24.6853709 73.0757576,19.7358738 73.0757576,13.6303596 C73.0757576,13.3007192 73.049819,12.9744486 72.9990153,12.6521447 C84.5953191,16.7891434 92.9371954,27.78022 93.1474484,40.7480132 L93.1515152,41.2499986 L12.8484848,41.2499986 C12.8484848,27.9054819 21.4592675,16.5721213 33.4276767,12.5030729 C33.3603296,12.8737189 33.3257576,13.2497936 33.3257576,13.6303596 Z" id="path-7"></path>
        <rect id="path-9" x="0" y="0" width="106" height="105"></rect>
        <path d="M59.4242433,74.1030178 C54.4153903,70.2138333 47.9774126,67.8749988 40.9545461,67.8749988 L40.9545461,67.8749988 L39.3484854,67.8749988 L39.3484854,60.9791054 C46.3873602,57.8561182 51.4132905,51.418046 52.1132221,43.8251944 C54.4330603,43.5008858 56.2121221,41.6319836 56.2121221,39.3749993 L56.2121221,39.3749993 L56.2121221,34.5 C56.2121221,32.7528735 55.1460602,31.2382967 53.5883277,30.4927288 C53.2832096,30.3909968 52.9792962,30.2799535 52.6758471,30.1616865 C52.5194496,30.1207882 52.3595912,30.0876992 52.1969705,30.0622183 L52.1969705,30.0622183 L52.1961609,29.9685554 C47.0667659,27.8371973 42.1098735,23.6511423 38.5897949,17.9568168 C37.4112774,16.0503645 36.4700508,14.0981783 35.7614063,12.1488877 C32.2944241,16.1028423 27.2004626,20.1008952 21.0159122,23.4357491 C17.175854,25.506398 13.3089385,27.1091257 9.63636378,28.224733 L9.6356578,51.4658883 C11.8846953,55.6185274 15.567325,58.9788172 20.0757579,60.9791054 L20.0757579,60.9791054 L20.0757579,67.8749988 L18.4696972,67.8749988 C15.3887549,67.8749988 12.4203796,68.3251287 9.63585208,69.158815 L9.63636378,86.2499953 C9.63636378,91.5397029 5.44823007,95.915817 0,96.6436615 L0,27.7499985 C0,12.4240975 13.30257,0 29.7121217,0 C46.1216733,0 59.4242433,12.4240975 59.4242433,27.7499985 Z" id="path-11"></path>
    </defs>
    <g id="Asset-Artboard-Page" stroke="none" stroke-width="1" fill="none" fill-rule="evenodd">
        <g id="icon-icons-/-System-/-Add" transform="translate(-10.509997, 0.000000)">
            <rect fill="#383838" x="0" y="0" width="28" height="28"></rect>
            <path d="M25.6365346,12.7526931 L16.2400915,12.7526931 L16.2400915,3.35619919 C16.2400915,2.92815041 15.6588415,2 14.4963923,2 C13.3339431,2 12.7526931,2.92820122 12.7526931,3.35619919 L12.7526931,12.7527439 L3.35619919,12.7527439 C2.92820122,12.7526931 2,13.3339431 2,14.4963415 C2,15.6587398 2.92820122,16.2400407 3.35619919,16.2400407 L12.7527439,16.2400407 L12.7527439,25.6365854 C12.7527439,26.0645325 13.3339431,26.9927846 14.4964431,26.9927846 C15.6589431,26.9927846 16.2401423,26.0645325 16.2401423,25.6365854 L16.2401423,16.2400407 L25.636687,16.2400407 C26.0646341,16.2400407 26.9928862,15.6588415 26.9928862,14.4963415 C26.9928862,13.3338415 26.0645325,12.7526931 25.6365346,12.7526931 Z" id="Color" fill="#FFFFFF"></path>
        </g>
        <g id="Arrow_down-icons-/-System-/-Arrow_down" transform="translate(37.490003, 0.000000)" fill="#858891">
            <polygon id="Color" points="-24.25 -0.853214375 -19.25 4.14678563 -14.25 -0.853214375"></polygon>
        </g>
        <g id="Arrow_down-Copy-icons-/-System-/-Arrow_down" transform="translate(-0.259997, 1.590000) rotate(-179.000000) translate(0.259997, -1.590000) translate(18.990003, 0.000000)" fill="#858891">
            <polygon id="Color" points="-24.25 -0.853214375 -19.25 4.14678563 -14.25 -0.853214375"></polygon>
        </g>
        <g id="Avataaar/Circle-Copy-Avataaar/Circle" transform="translate(0.490003, 0.000000)">
            <g id="Circle" transform="translate(4.818182, 15.000000)">
                <mask id="mask-2" fill="white">
                    <use xlink:href="#path-1"></use>
                </mask>
                <use id="Circle-Background" fill="#E6E6E6" xlink:href="#path-1"></use>
                <g id="ðŸ–-Circle-Color-Color/Palette/Blue-01" mask="url(#mask-2)" fill="#65C9FF">
                    <rect id="ðŸ–Color" x="0" y="0" width="96.3636398" height="90"></rect>
                </g>
            </g>
            <mask id="mask-4" fill="white">
                <use xlink:href="#path-3"></use>
            </mask>
            <g id="Mask"></g>
            <g id="Avataaar" mask="url(#mask-4)">
                <g id="Body" transform="translate(12.848485, 13.500000)">
                    <mask id="mask-6" fill="white">
                        <use xlink:href="#path-5"></use>
                    </mask>
                    <use fill="#D0C6AC" xlink:href="#path-5"></use>
                    <g id="ðŸŽ¨-Skin-Skin/ðŸ‘¶ðŸ½-03-Brown" mask="url(#mask-6)" fill="#D08B5B">
                        <g transform="translate(-12.848485, 0.000000)" id="Color">
                            <rect x="0" y="0" width="106" height="91.5"></rect>
                        </g>
                    </g>
                    <path d="M17.6666667,33.7651515 C17.6666667,46.1831904 27.7334762,56.25 40.1515152,56.25 C52.5695541,56.25 62.6363636,46.1831904 62.6363636,33.7651515 L62.6363636,33.7651515 L62.6363636,36.7651515 C62.6363636,49.1831904 52.5695541,59.25 40.1515152,59.25 C27.7334762,59.25 17.6666667,49.1831904 17.6666667,36.7651515 Z" id="Neck-Shadow" fill-opacity="0.100000001" fill="#000000" mask="url(#mask-6)"></path>
                </g>
                <g id="ðŸ‘”-Clothes-Clothing/Shirt-Scoop-Neck" transform="translate(0.000000, 63.750000)">
                    <mask id="mask-8" fill="white">
                        <use xlink:href="#path-7"></use>
                    </mask>
                    <use id="Clothes" fill="#E6E6E6" xlink:href="#path-7"></use>
                    <g id="â†³-Color-Fabric-Color/Palette/Gray-01" mask="url(#mask-8)" fill="#E6E6E6">
                        <rect id="ðŸ–Color" x="0" y="0" width="106" height="41.25"></rect>
                    </g>
                </g>
                <g id="Face" transform="translate(30.515152, 30.750000)" fill="#000000">
                    <g id="ðŸ‘„-Mouth-Mouth/Default" transform="translate(0.803030, 19.500000)" fill-opacity="0.699999988">
                        <path d="M16.0606059,5.625 C16.0606059,8.52449494 18.5773083,10.875 21.681818,10.875 L21.681818,10.875 C24.7863277,10.875 27.3030301,8.52449494 27.3030301,5.625" id="Mouth"></path>
                    </g>
                    <g id="ðŸ‘ƒðŸ½-Nose-Nose/Default" transform="translate(11.242424, 15.000000)" fill-opacity="0.16">
                        <path d="M6.42424229,3 C6.42424229,4.65685425 8.58141573,6 11.242424,6 L11.242424,6 C13.9034323,6 16.0606057,4.65685425 16.0606057,3" id="Nose"></path>
                    </g>
                    <g id="ðŸ‘-Eyes-Eyes/Default-ðŸ˜€" transform="translate(0.000000, 3.000000)" fill-opacity="0.599999964">
                        <ellipse id="Eye" cx="12.0454543" cy="8.25" rx="2.40909086" ry="2.25"></ellipse>
                        <ellipse id="Eye" cx="32.9242417" cy="8.25" rx="2.40909086" ry="2.25"></ellipse>
                    </g>
                    <g id="âœï¸-Eyebrow-Eyebrow/Outline/Default" fill-opacity="0.599999964" fill-rule="nonzero">
                        <g id="I-Browse" transform="translate(4.818182, 2.250000)">
                            <path d="M1.45759846,4.18446631 C3.02949394,2.11870004 7.33886144,0.960313961 11.0509119,1.81169269 C11.4816164,1.91047708 11.9165142,1.66446006 12.0222833,1.2621983 C12.1280524,0.859936545 11.8646403,0.453758388 11.4339358,0.354973997 C7.12302439,-0.633756714 2.13288841,0.707624376 0.148462085,3.31553375 C-0.108453103,3.65316862 -0.0236638534,4.12139294 0.337844175,4.36134204 C0.699352204,4.60129115 1.20068327,4.52210118 1.45759846,4.18446631 Z" id="Eyebrow"></path>
                            <path d="M24.7454764,4.18446631 C26.3173719,2.11870004 30.6267394,0.960313961 34.3387898,1.81169269 C34.7694943,1.91047708 35.2043921,1.66446006 35.3101613,1.2621983 C35.4159304,0.859936545 35.1525183,0.453758388 34.7218138,0.354973997 C30.4109024,-0.633756714 25.4207664,0.707624376 23.4363401,3.31553375 C23.1794249,3.65316862 23.2642141,4.12139294 23.6257222,4.36134204 C23.9872302,4.60129115 24.4885613,4.52210118 24.7454764,4.18446631 Z" id="Eyebrow" transform="translate(29.310667, 2.264699) scale(-1, 1) translate(-29.310667, -2.264699) "></path>
                        </g>
                    </g>
                </g>
                <g id="Top">
                    <mask id="mask-10" fill="white">
                        <use xlink:href="#path-9"></use>
                    </mask>
                    <g id="Mask"></g>
                    <g id="Top-Top/Long-Hair/Straight" mask="url(#mask-10)">
                        <g transform="translate(-0.401515, 0.000000)">
                            <g id="Hair" stroke-width="1" fill="none" transform="translate(23.689394, 6.750000)">
                                <mask id="mask-12" fill="white">
                                    <use xlink:href="#path-11"></use>
                                </mask>
                                <use id="Mask-Hair" fill="#944F23" xlink:href="#path-11"></use>
                                <g id="â†³-ðŸ’ˆHair-Color-Color/Hair/Auburn" mask="url(#mask-12)" fill="#A55728">
                                    <g transform="translate(-23.287879, -6.750000)" id="Color">
                                        <rect x="0" y="0" width="106" height="105"></rect>
                                    </g>
                                </g>
                            </g>
                            <path d="M83.1136361,80.8530178 C78.1047831,76.9638333 71.6668054,74.6249988 64.6439388,74.6249988 L64.6439388,74.6249988 L63.0378782,74.6249988 L63.0378782,67.7291054 C70.076753,64.6061182 75.1026833,58.168046 75.8026149,50.5751944 C78.1224531,50.2508858 79.9015148,48.3819836 79.9015148,46.1249993 L79.9015148,46.1249993 L79.9015148,41.25 C79.9015148,39.5039916 78.8368169,37.9902352 77.2807104,37.2441611 C79.2398058,37.9137182 81.2073079,38.2769161 83.1136361,38.3055852 L83.1136361,38.3055852 Z M33.3239699,58.2138927 C35.5729083,62.3674509 39.2559956,65.7284968 43.7651506,67.7291054 L43.7651506,67.7291054 L43.7651506,74.6249988 L42.15909,74.6249988 C39.0780264,74.6249988 36.1095387,75.0751641 33.3249161,75.9089134 Z" id="Shadow" fill-opacity="0.24" fill="#000000"></path>
                            <g id="Facial-Hair-Facial-Hair/-Blank" stroke-width="1" fill="none" transform="translate(19.674243, 27.000000)"></g>
                            <g id="â†³-ðŸ‘“-Accessory-Top/_Resources/Blank" stroke-width="1" fill="none" transform="translate(24.893940, 31.875000)"></g>
                        </g>
                    </g>
                </g>
            </g>
        </g>
    </g>
</svg>