<?xml version="1.0" encoding="UTF-8"?>
<svg width="18px" height="19px" viewBox="0 0 18 19" version="1.1" xmlns="http://www.w3.org/2000/svg" xmlns:xlink="http://www.w3.org/1999/xlink">
    <!-- Generator: sketchtool 60.1 (101010) - https://sketch.com -->
    <title>857F117A-84F1-4829-975A-CFAC8D963BA5</title>
    <desc>Created with sketchtool.</desc>
    <g id="Portfolio-High-f-i" stroke="none" stroke-width="1" fill="none" fill-rule="evenodd">
        <g id="projects" transform="translate(-559.000000, -2814.000000)" fill="#2C3E51" fill-rule="nonzero">
            <g id="Footer" transform="translate(0.000000, 2773.000000)">
                <g id="Group-21">
                    <path d="M559,50.8017493 C559,49.1760873 559.39244,47.6759535 560.177286,46.301312 C560.962149,44.9266704 562.028155,43.8389273 563.375286,43.0380466 C564.722434,42.237166 566.192583,41.8367347 567.785714,41.8367347 C569.378863,41.8367347 570.849012,42.237166 572.196143,43.0380466 C573.543292,43.8389273 574.609297,44.9266704 575.394143,46.301312 C576.179006,47.6759535 576.571429,49.1760873 576.571429,50.8017493 C576.571429,52.4274112 576.179006,53.927545 575.394143,55.3021866 C574.609297,56.6768281 573.543292,57.7645713 572.196143,58.5654519 C570.849012,59.3663325 569.378863,59.7667638 567.785714,59.7667638 C566.192583,59.7667638 564.722434,59.3663325 563.375286,58.5654519 C562.028155,57.7645713 560.962149,56.6768281 560.177286,55.3021866 C559.39244,53.927545 559,52.4274112 559,50.8017493 Z M560.458429,50.8017493 C560.458429,52.6664723 561.073429,54.3100643 562.303429,55.7325073 C562.865714,54.6088862 563.756006,53.539073 564.974286,52.5230321 C566.192583,51.5069911 567.381571,50.8674987 568.541286,50.604519 C568.365571,50.1861576 568.195726,49.809627 568.031714,49.4749271 C566.016869,50.1323675 563.838012,50.4610787 561.495143,50.4610787 C561.038286,50.4610787 560.698577,50.455108 560.476,50.4431487 C560.476,50.4909681 560.473083,50.5507289 560.467214,50.622449 C560.461363,50.6941691 560.458429,50.7539299 560.458429,50.8017493 Z M560.686857,48.9549563 C560.944577,48.978857 561.325297,48.9908163 561.829,48.9908163 C563.785297,48.9908163 565.642,48.7218659 567.399143,48.183965 C566.508869,46.5702624 565.53072,45.2255102 564.464714,44.1497085 C563.539297,44.6278485 562.745649,45.2912596 562.083786,46.1399417 C561.42194,46.9886238 560.956297,47.9269739 560.686857,48.9549563 Z M563.305,56.7007289 C564.628726,57.7526299 566.122297,58.2785714 567.785714,58.2785714 C568.652583,58.2785714 569.513583,58.1112305 570.368714,57.7765306 C570.134434,55.7325073 569.677577,53.7542334 568.998143,51.841691 C567.920434,52.080752 566.83394,52.6844023 565.738643,53.6526239 C564.643363,54.6208455 563.832143,55.6368864 563.305,56.7007289 Z M565.993429,43.5759475 C567.024292,44.6637086 567.979,46.0204022 568.857571,47.6460641 C570.45072,46.964723 571.651429,46.0981109 572.459714,45.0462099 C571.100863,43.898688 569.542857,43.3249271 567.785714,43.3249271 C567.188286,43.3249271 566.590857,43.4086066 565.993429,43.5759475 Z M569.490143,48.9190962 C569.665857,49.3015975 569.865012,49.7857083 570.087571,50.3714286 C570.95444,50.2877491 571.897429,50.2459184 572.916571,50.2459184 C573.642869,50.2459184 574.363297,50.2638484 575.077857,50.2997085 C574.984149,48.6740465 574.410143,47.2277028 573.355857,45.9606414 C572.594434,47.1201226 571.305869,48.1062742 569.490143,48.9190962 Z M570.526857,51.6265306 C571.124286,53.3956328 571.528429,55.2125364 571.739286,57.0772595 C572.66472,56.4676385 573.420292,55.6846879 574.006,54.7284257 C574.591726,53.7721634 574.943155,52.7381924 575.060286,51.6265306 C574.205155,51.5667698 573.426143,51.5368805 572.723286,51.5368805 C572.079012,51.5368805 571.346863,51.5667698 570.526857,51.6265306 Z" id="Shape-2"></path>
                </g>
            </g>
        </g>
    </g>
</svg>