<?xml version="1.0" encoding="UTF-8"?>
<svg width="20px" height="19px" viewBox="0 0 20 19" version="1.1" xmlns="http://www.w3.org/2000/svg" xmlns:xlink="http://www.w3.org/1999/xlink">
    <!-- Generator: sketchtool 60.1 (101010) - https://sketch.com -->
    <title>D15A424A-1AAD-4380-8089-9A7BC974333F</title>
    <desc>Created with sketchtool.</desc>
    <g id="Portfolio-High-f-i" stroke="none" stroke-width="1" fill="none" fill-rule="evenodd">
        <g id="projects" transform="translate(-483.000000, -2814.000000)" fill="#2C3E51" fill-rule="nonzero">
            <g id="Footer" transform="translate(0.000000, 2773.000000)">
                <g id="Group-21">
                    <path d="M503,44.005102 C503,42.8125 502.1,41.8367347 501,41.8367347 L485,41.8367347 C483.9,41.8367347 483,42.8125 483,44.005102 L483,57.0153061 C483,58.2079082 483.9,59.1836735 485,59.1836735 L501,59.1836735 C502.1,59.1836735 503,58.2079082 503,57.0153061 L503,44.005102 Z M501,44.005102 L493,49.4260204 L485,44.005102 L501,44.005102 Z M501,57.0153061 L485,57.0153061 L485,46.1734694 L493,51.5943878 L501,46.1734694 L501,57.0153061 Z" id="Shape-3"></path>
                </g>
            </g>
        </g>
    </g>
</svg>