<?xml version="1.0" encoding="UTF-8"?>
<svg width="18px" height="20px" viewBox="0 0 18 20" version="1.1" xmlns="http://www.w3.org/2000/svg" xmlns:xlink="http://www.w3.org/1999/xlink">
    <!-- Generator: sketchtool 60.1 (101010) - https://sketch.com -->
    <title>AEDA1552-A67B-4AA9-8923-D564AE44CFE2</title>
    <desc>Created with sketchtool.</desc>
    <g id="Portfolio-High-f-i" stroke="none" stroke-width="1" fill="none" fill-rule="evenodd">
        <g id="projects" transform="translate(-449.000000, -2812.000000)" fill="#2C3E51" fill-rule="nonzero">
            <g id="Footer" transform="translate(0.000000, 2773.000000)">
                <g id="Group-21">
                    <path d="M467,58.1632653 L463,58.1632653 L463,51.2755102 C463,50.1938776 461.81,49.2959184 460.75,49.2959184 C459.69,49.2959184 459,50.1938776 459,51.2755102 L459,58.1632653 L455,58.1632653 L455,45.9183673 L459,45.9183673 L459,47.9591837 C459.66,46.8673469 461.36,46.1632653 462.5,46.1632653 C465,46.1632653 467,48.244898 467,50.7653061 L467,58.1632653 Z M453,58.1632653 L449,58.1632653 L449,45.9183673 L453,45.9183673 L453,58.1632653 Z M451,39.7959184 C451.53043,39.7959184 452.03914,40.0109286 452.41421,40.3936633 C452.78929,40.7763878 453,41.2954796 453,41.8367347 C453,42.3779898 452.78929,42.8970816 452.41421,43.2798061 C452.03914,43.6625408 451.53043,43.877551 451,43.877551 C450.46957,43.877551 449.96086,43.6625408 449.58579,43.2798061 C449.21071,42.8970816 449,42.3779898 449,41.8367347 C449,41.2954796 449.21071,40.7763878 449.58579,40.3936633 C449.96086,40.0109286 450.46957,39.7959184 451,39.7959184 Z" id="Shape-1"></path>
                </g>
            </g>
        </g>
    </g>
</svg>