<?xml version="1.0" encoding="UTF-8"?>
<svg width="64px" height="64px" viewBox="0 0 64 64" version="1.1" xmlns="http://www.w3.org/2000/svg" xmlns:xlink="http://www.w3.org/1999/xlink">
    <!-- Generator: Sketch 64 (93537) - https://sketch.com -->
    <title>logo-ARL</title>
    <desc>Created with Sketch.</desc>
    <g id="logo-ARL" stroke="none" stroke-width="1" fill="none" fill-rule="evenodd">
        <ellipse id="Oval" fill="#2C3E51" cx="31.5" cy="33" rx="29.5" ry="29"></ellipse>
        <path d="M33,2 C49.5685425,2 63,15.4314575 63,32 C63,48.5685425 49.5685425,62 33,62 C16.4314575,62 3,48.5685425 3,32 C3,15.4314575 16.4314575,2 33,2 Z M37.14,17.4 C35.97,17.4 35.97,17.4 34.395,18.195 C32.82,18.99 32.82,18.99 32.31,19.02 C31.77,19.05 31.77,19.05 30.495,18.705 C29.22,18.36 29.22,18.36 28.86,18.42 C27.69,18.57 27.69,18.57 27.66,19.38 C27.66,19.47 27.66,19.47 27.75,19.635 C27.8175,19.75875 27.8175,19.75875 27.834375,19.9078125 L27.84,20.01 L27.84,40.95 C27.84,41.34 27.84,41.34 27.765,41.595 C27.69,41.85 27.69,41.85 27.69,42 C27.69,42.48 27.69,42.48 29.61,42.9 C31.38,43.32 31.38,43.32 32.28,43.23 C33.45,43.14 33.45,43.14 33.45,42.24 C33.45,42 33.45,42 33.195,41.49 C32.9825,41.065 32.9825,41.065 32.9470833,40.765 L32.94,40.65 L32.94,35.1 L39.27,41.01 C39.63,41.58 39.63,41.58 39.72,41.88 C40.29,42.87 40.29,42.87 41.25,42.9 C42.15,42.93 42.15,42.93 43.485,40.935 C44.82,38.94 44.82,38.94 44.55,38.43 C44.16,38.13 44.16,38.13 43.86,37.98 C43.35,37.71 43.35,37.71 43.08,37.62 C38.79,33.21 38.79,33.21 37.53,32.07 C43.65,26.61 43.65,26.61 43.47,23.13 C43.41,22.02 43.41,22.02 42.63,21.12 C42.57,21.03 42.57,21.03 40.92,19.47 C40.29,18.87 40.29,18.87 39.6,18.27 C38.91,17.67 38.91,17.67 38.07,17.49 C37.59,17.4 37.59,17.4 37.14,17.4 Z M47.58,17.25 C46.59,17.52 46.59,17.52 46.53,18.09 C46.53,18.24 46.53,18.24 46.71,18.45 C46.845,18.6075 46.845,18.6075 46.9125,18.815625 L46.95,18.96 L46.95,39.12 C46.95,39.39 46.95,39.39 46.89,39.87 C46.77,40.89 46.77,40.89 47.1,41.37 C47.55,41.97 47.55,41.97 49.68,42.66 C51.81,43.35 51.81,43.35 52.47,43.11 C52.68,43.05 52.68,43.05 52.905,42.63 C53.0925,42.28 53.0925,42.28 53.2695833,42.1591667 L53.34,42.12 L57.78,40.26 C57.96,40.17 57.96,40.17 58.365,40.23 C58.77,40.29 58.77,40.29 59.01,40.2 C59.79,39.9 59.79,39.9 60.15,38.49 C60.27,38.07 60.27,38.07 58.44,36.735 C56.61,35.4 56.61,35.4 56.19,35.46 C55.53375,35.7225 55.53375,35.7225 55.245,35.9390625 L55.17,36 L52.05,37.35 L52.05,20.76 C52.05,20.52 52.05,20.52 52.38,20.04 C52.71,19.56 52.71,19.56 52.71,19.32 C52.68,18.39 52.68,18.39 50.31,17.7 C48.21,17.1 48.21,17.1 47.58,17.25 Z M13.86,17.43 C13.29,17.43 13.29,17.43 13.14,17.58 C12.9,17.79 12.9,17.79 12.96,18.6 C13.0133333,19.4533333 13.0133333,19.4533333 12.9481481,19.8325926 L12.93,19.92 L9.06,33.15 C7.29,34.08 7.29,34.08 7.23,34.44 C7.2,34.62 7.2,34.62 7.2,34.77 C7.2,35.4 7.2,35.4 7.83,36.03 C7.68,36.57 7.68,36.57 6.72,38.97 C6.03,40.62 6.03,40.62 6.15,41.04 C6.21,41.28 6.21,41.28 7.905,42.03 C9.6,42.78 9.6,42.78 10.32,42.78 C10.5,42.78 10.5,42.78 10.59,42.72 C11.01,42.48 11.01,42.48 11.115,42.105 C11.22,41.73 11.22,41.73 11.31,41.31 C12.06,39.42 12.06,39.42 12.51,38.13 C13.17,37.68 13.17,37.68 15.36,37.005 C17.55,36.33 17.55,36.33 18.69,36.18 C19.11,37.5 19.11,37.5 19.44,39.51 C19.68,41.04 19.68,41.04 19.92,41.31 C20.49,41.97 20.49,41.97 22.08,42.45 C23.55,42.96 23.55,42.96 24.54,42.96 C24.9,42.96 24.9,42.96 25.05,42.87 C25.26,42.6 25.26,42.6 25.29,42.06 C25.38,41.04 25.38,41.04 25.41,40.77 C23.85,37.65 23.85,37.65 22.35,29.43 C21.18,22.77 21.18,22.77 21,19.44 C20.49,18.87 20.49,18.87 17.88,18.15 C15.27,17.43 15.27,17.43 13.86,17.43 Z M16.65,24.99 C16.77,27.15 16.77,27.15 17.1,29.16 C17.19,29.76 17.19,29.76 17.58,31.65 C14.88,32.25 14.88,32.25 14.31,32.49 C14.37,31.8 14.37,31.8 15.24,29.07 C16.05,26.46 16.05,26.46 16.65,24.99 Z M37.92,21.66 C38.43,21.66 38.43,21.66 38.43,22.26 C38.43,23.52 38.43,23.52 36.33,26.1 C34.23,28.68 34.23,28.68 32.94,29.19 L32.94,24.6 C36.51,21.66 36.51,21.66 37.92,21.66 Z" id="Combined-Shape" fill="#FFAF32"></path>
    </g>
</svg>