<?xml version="1.0" encoding="UTF-8"?>
<svg width="413px" height="447px" viewBox="0 0 413 447" version="1.1" xmlns="http://www.w3.org/2000/svg" xmlns:xlink="http://www.w3.org/1999/xlink">
    <!-- Generator: Sketch 64 (93537) - https://sketch.com -->
    <title>me</title>
    <desc>Created with Sketch.</desc>
    <defs>
        <ellipse id="path-1" cx="26.8501746" cy="293.148057" rx="14.5" ry="49"></ellipse>
        <filter x="-6.9%" y="-2.0%" width="113.8%" height="106.1%" filterUnits="objectBoundingBox" id="filter-2">
            <feMorphology radius="1" operator="dilate" in="SourceAlpha" result="shadowSpreadOuter1"></feMorphology>
            <feOffset dx="0" dy="2" in="shadowSpreadOuter1" result="shadowOffsetOuter1"></feOffset>
            <feMorphology radius="1" operator="erode" in="SourceAlpha" result="shadowInner"></feMorphology>
            <feOffset dx="0" dy="2" in="shadowInner" result="shadowInner"></feOffset>
            <feComposite in="shadowOffsetOuter1" in2="shadowInner" operator="out" result="shadowOffsetOuter1"></feComposite>
            <feColorMatrix values="0 0 0 0 0.239215686   0 0 0 0 0.239215686   0 0 0 0 0.239215686  0 0 0 1 0" type="matrix" in="shadowOffsetOuter1"></feColorMatrix>
        </filter>
        <ellipse id="path-3" cx="328.216895" cy="114.562818" rx="11.5" ry="31.5"></ellipse>
        <filter x="-8.7%" y="-3.2%" width="117.4%" height="109.5%" filterUnits="objectBoundingBox" id="filter-4">
            <feMorphology radius="1" operator="dilate" in="SourceAlpha" result="shadowSpreadOuter1"></feMorphology>
            <feOffset dx="0" dy="2" in="shadowSpreadOuter1" result="shadowOffsetOuter1"></feOffset>
            <feMorphology radius="1" operator="erode" in="SourceAlpha" result="shadowInner"></feMorphology>
            <feOffset dx="0" dy="2" in="shadowInner" result="shadowInner"></feOffset>
            <feComposite in="shadowOffsetOuter1" in2="shadowInner" operator="out" result="shadowOffsetOuter1"></feComposite>
            <feColorMatrix values="0 0 0 0 0.239215686   0 0 0 0 0.239215686   0 0 0 0 0.239215686  0 0 0 1 0" type="matrix" in="shadowOffsetOuter1"></feColorMatrix>
        </filter>
    </defs>
    <g id="Portfolio-High-f-i" stroke="none" stroke-width="1" fill="none" fill-rule="evenodd">
        <g id="Portfolio" transform="translate(-544.000000, -171.000000)">
            <g transform="translate(0.000000, 100.000000)" id="me">
                <g transform="translate(538.000000, 73.000000)">
                    <g id="Oval" transform="translate(26.850175, 293.148057) rotate(14.000000) translate(-26.850175, -293.148057) ">
                        <use fill="black" fill-opacity="1" filter="url(#filter-2)" xlink:href="#path-1"></use>
                        <use stroke="#3D3D3D" stroke-width="2" xlink:href="#path-1"></use>
                    </g>
                    <g id="Oval-Copy" transform="translate(328.216895, 114.562818) rotate(-46.000000) translate(-328.216895, -114.562818) ">
                        <use fill="black" fill-opacity="1" filter="url(#filter-4)" xlink:href="#path-3"></use>
                        <use stroke="#3D3D3D" stroke-width="2" xlink:href="#path-3"></use>
                    </g>
                    <path d="M295,259.862086 C280.125362,252.559509 269.691603,237.559509 263.698724,214.862086 C245.5,109.862086 270.066866,101.928749 225.214477,38.0143838 C197.808131,7.14234578 157.553508,3.74787763 104.450609,27.8309794" id="Line-4" stroke="#3D3D3D" stroke-width="2" stroke-linecap="round" stroke-linejoin="round"></path>
                    <path d="M190.552873,2.67958148 C204.359616,5.76570602 223.875531,16.0617536 239.431692,31.3796143 C252.035491,43.7903392 262.305761,60.3337317 268.500043,72.810789 L270.115922,77.178104 C280.076665,103.99798 286.927239,120.503576 290.667644,126.694891 L290.785963,126.888984 C296.486233,136.153842 301.318155,142.222621 307.713369,148.75774 L308.265415,149.319121 C314.855911,155.989097 323.510542,163.561799 341.889571,170.277434 L342.574736,170.525767 C355.141526,175.043666 365.999866,180.321929 375.149755,186.360555 C383.119461,191.517054 389.12194,196.024 393.157193,199.881393 L394.212137,200.890908 C399.768627,206.218171 404.216313,210.713731 408,218.090984 L408.223238,218.539706 L408.223238,218.539706 L408.257777,218.547213 L408.324323,218.749149 L408.324323,218.749149 C412.260035,227.102476 416.583467,248.377383 417,260 C417.100516,262.804734 417.089199,265.498923 416.981351,268.083262 C417.078394,273.966177 416.815468,279.999303 415.852117,285.144404 C412.978845,300.490079 402.994894,311.733579 395.04193,318.741779 C391.658108,321.829556 387.978176,324.658821 384.094791,327.251883 C374.893205,333.637873 363.562032,339.037872 354.709295,342.362844 L353.93472,342.650811 C348.67328,344.586585 339.399774,347.577475 328.177164,349.847096 L326.93575,350.144811 L326.93575,350.144811 C325.800455,350.414138 324.671321,350.598068 323.554277,350.71802 C316.607561,351.930933 309.07101,352.805767 301.376738,352.971511 L301.811354,352.545765 C288.13111,365.829003 274.921309,384.771006 252.881947,400.15104 L251.291546,401.250848 C241.978147,407.739446 229.010823,418.773968 207.639885,428.850949 L206.863773,429.214751 C202.797862,431.109384 195.013444,433.611114 183.51052,436.719942 L182.055728,437.04837 C172.46783,439.19625 165.094253,440.511229 159.934998,440.993309 L158.050502,441.156028 C149.536908,441.867143 138.36126,442.557767 133.752113,442.779269 L132.394327,442.83959 C112.133719,443.666394 96.6903281,441.027903 91.305727,441.027903 L90.565364,441.02525 C78.5739101,440.940107 53.9567695,438.751512 38.6213356,426.737178 C25.9723959,416.82754 21.5352696,398.814614 27.8484417,383.740712 C34.1616139,368.666811 42.2492458,362.935333 49.5774351,350.144811 C56.9056243,337.354289 77.2980156,291.92278 75.5703491,264.774061 L74.9173125,254.568953 C74.4291524,247.409066 74.3899355,250.011581 72.4487265,237.587101 L71.6780451,232.537285 C69.4313893,217.99441 68.1789848,221.387831 66.560332,216.782441 C59.9516836,197.979522 55.0789263,169.374389 53.461327,163.982279 C49.6368992,151.233922 45.6296989,148.113228 42.4233381,137.976458 L42.2492458,137.416485 C41.4236606,134.71451 43.1434177,136.830754 40.6640722,127.648014 L40.4566386,126.888984 C37.7278164,117.017182 38.7112217,113.528767 38.6272602,106.898993 L38.6213356,106.520304 C38.4940032,99.6940076 39.9087114,97.0659909 40.4109643,90.9489442 L40.4566386,90.345822 C42.2313197,64.7816316 71.5488423,34.1540572 76.8502794,29.9244184 L79.5672335,27.8369093 C84.9008083,23.7703465 93.7621811,17.2808323 103.220769,12.9011043 C113.056706,8.34664754 123.750926,6.52989961 128.434576,4.87505367 L128.679697,4.78654142 C132.986539,3.19573836 144.01778,1.07410951 154.982393,0.277718205 L156.061663,0.205315241 C171.177108,-0.726009288 186.440695,1.76041514 190.552873,2.67958148 Z" id="Path" stroke="#3D3D3D" stroke-width="3" stroke-linecap="round" stroke-linejoin="bevel"></path>
                    <path d="M417,259.862086 C400.710411,243.242126 269.145638,232.854687 267,135.931043 C264.5,23 198.224187,18.8000588 193,16.159721" id="Path-13" stroke="#3D3D3D" stroke-width="2" stroke-linecap="round" stroke-linejoin="bevel"></path>
                    <path d="M369,297 C345.199306,276.276286 332.730484,267.102775 298.424367,247.332139 C277.068184,235.024559 260.500989,223.683159 243.83689,209.783501 C233.0778,200.809257 220.82619,191.365971 212.087821,177.904785 C200.61235,160.22718 197.619611,143.880383 196.35573,121.720186 C195.44759,105.797373 197.619611,98.6957869 193.539072,74.9927194 C192.711829,70.1874207 187.233627,55.4412487 183.005135,50.0896066 C179.983279,46.2650997 178.783131,44.5911853 173.208092,40.2712747 C167.633052,35.9513641 167.633052,35.2922825 160,32" id="Path-13-Copy" stroke="#FFAF32" stroke-width="3" stroke-linecap="round" stroke-linejoin="bevel"></path>
                    <path d="M203,430 C164.290754,422.341079 140.432863,414.750247 131.426325,407.227505 C124.802942,401.695301 113.589248,386.524561 111.03268,374.556106 C110.037246,369.896033 109.377033,362.272865 109.05204,351.686601 C109.05204,336.866053 111.03268,304.485503 106.9561,278.578857 C103.709469,257.94653 86.5601217,268.071469 77.5054515,257.875404 C71.5391584,251.157024 73.1797043,235.588326 71.4912265,230.889606 C64.7353709,212.089315 56.717341,192.009831 55.4555731,183.441059 C52.5821802,163.927604 64.3224671,144.461347 62.2544322,124.405678 C61.5040439,117.128461 55.5867487,112.085756 55.4555731,105.20762 C55.3212054,98.162106 57.456647,93.9131554 58.8462085,88.4206031 C62.2544322,74.9488376 70.1561897,61.2460659 74.6243094,54.3966349 C77.1902539,50.4631547 83.0683077,43.2008674 85.2329326,41.3389295 C89.0559799,38.0504724 91.8494658,36.5709234 96.2770643,33.079008 C100.62638,29.6488318 109.885103,25.8216149 119.910591,24.1024215 C130.621095,22.2657599 142.15061,22.8621072 147.18438,24.8724384 C153.930537,27.5666432 160.225288,31.3425432 165.793296,36.0904805 C186.60014,53.8328387 188.607648,89.5321911 191.05387,117.431668" id="Path-5" stroke="#3D3D3D" stroke-width="3" fill="#FFFFFF" stroke-linecap="round" stroke-linejoin="round"></path>
                    <path d="M251,341 C240.721912,356.520369 223.692677,364.255434 207.67228,365.629765 C196.756076,366.566226 185.684401,366.303783 178.588866,357.798965 C175.807579,354.465272 171.748218,348.382143 173.371176,342.7429" id="Path-3" stroke="#A7DCFF" stroke-width="4" stroke-linecap="round" stroke-linejoin="bevel"></path>
                    <line x1="122" y1="260" x2="185" y2="358" id="Path-2" stroke="#3D3D3D" stroke-width="3" stroke-linecap="round" stroke-linejoin="round"></line>
                    <path d="M190.365222,116.012939 C186.475719,119.389546 181.4919,123.108549 177.935937,128.017878 C170.239587,138.643385 165.141134,152.041477 163.477727,159.85864 C161.574692,168.801933 164.233864,185.531472 163.477727,203.884683 C163.149587,211.84939 160.218052,219.143067 156.190193,226.359571 C151.377649,234.981951 142.691121,245.323445 129.574303,252.431773 C120.921182,257.121114 118.456043,259.349641 105.106324,260.64358 C97.9883533,261.333498 90.6195788,260.902185 83,259.349641 C89.4485428,261.871767 96.8173174,263.086942 105.106324,262.995167 C113.217733,262.905358 122.882452,260.511629 131.22662,258.435433 C144.210835,255.2047 158.397407,246.599658 165.618764,242.048722 C184.594353,230.090208 179.530593,233.515047 183.524232,230.710989 C184.359526,230.124503 188.192905,228.311172 188.192905,225.440614 C188.192905,216.180609 188.175403,204.126819 188.192905,203.884683 C189.023143,192.398749 189.023143,183.951444 188.192905,178.542769 C190.107139,164.457978 191.594867,151.397774 192.656089,139.362157 C193.509096,129.687975 192.656089,125.619271 191.401701,118.332981 C190.565442,113.475455 190.219949,112.702108 190.365222,116.012939 Z" id="Path-6" stroke="#FFAF32" fill="#FFAF32"></path>
                    <path d="M190,106 C191.788093,121.786174 192.68867,131.997451 192.701732,136.633829 C192.741544,150.765535 189.036341,166.295165 189.004105,178.296838 C188.842733,238.376429 193.479944,269.05147 195.671208,275.748544 C202.954736,298.008897 213.827155,310.657672 222.523939,319.918214 C231.613667,329.597172 253.298414,343.323055 273.469023,348.956189 C280.424365,350.898637 289.93469,352.413241 302,353.5" id="Path" stroke="#3D3D3D" stroke-width="3" stroke-linecap="round" stroke-linejoin="round"></path>
                    <line x1="167" y1="106" x2="190" y2="113.941615" id="Line" stroke="#3D3D3D" stroke-width="3" stroke-linecap="square"></line>
                    <line x1="168.396552" y1="97.4848304" x2="189.5" y2="108.5" id="Line-Copy" stroke="#3D3D3D" stroke-width="3" stroke-linecap="round"></line>
                    <path d="M82,108.916567 C84.1678601,108.451381 85.8641453,108.18348 87.0888557,108.112861 C88.3135661,108.042243 90.2839475,108.098721 93,108.282294" id="Path-10" stroke="#3D3D3D" stroke-width="3" stroke-linecap="round"></path>
                    <path d="M184.697216,252.535727 C190.892385,262.082995 196.726407,266.421155 202.199283,265.550207 C216.803596,263.22609 228.527948,241.423336 236.277124,246.200743 C244.026301,250.97815 245.77288,272.20786 253.803286,304.115602 C255.681513,311.578483 260.646156,318.379502 268.697216,324.518659 L306.028085,344.116788" id="Line-3" stroke="#3D3D3D" stroke-linecap="round" stroke-linejoin="round" transform="translate(245.362650, 294.817724) rotate(9.000000) translate(-245.362650, -294.817724) "></path>
                    <path d="M83,102.916567 C85.3649383,102.451381 87.2154313,102.18348 88.551479,102.112861 C89.8875267,102.042243 92.0370337,102.098721 95,102.282294" id="Path-10-Copy" stroke="#3D3D3D" stroke-width="3" stroke-linecap="round"></path>
                    <path d="M95.9875572,101.679081 C99.0651519,96.1123512 103.344679,92.1296217 108.265038,89.968264 C119.721719,84.9357078 135.176642,87.412614 143.699063,89.3371036 C145.050942,89.6423782 162.093347,91.4759761 168.643748,97.587568 C169.138932,98.0495796 169.234986,100.552101 168.161774,103.398159 C167.886086,104.129259 166.959603,105.603189 165.382326,107.819949 C160.808935,107.819949 159.894739,109.645634 158.097826,115.886827 C156.57237,121.185173 156.843372,125.314555 155.517199,129.946199 C154.597717,133.157477 153.008504,138.462495 150.354543,142.331679 C149.068474,144.206627 147.325536,145.947416 144.939649,147.603529 C141.848656,149.749076 138.203913,152.070538 132.032194,153.302487 C125.935138,154.519533 119.835968,154.204772 113.276614,151.875924 C107.840258,149.945788 105.189996,148.363964 102.704464,145.652788 C101.972874,144.854782 97.8900557,141.595229 95.2159945,135.677057 C92.5419333,129.758886 91.7888237,122.508823 92.0480135,117.096653 C92.510923,107.430586 95.8447993,101.9373 95.9875572,101.679081 Z" id="Path-11" stroke="#3D3D3D" stroke-width="2" fill="#FFAF32" stroke-linecap="round" stroke-linejoin="bevel"></path>
                    <path d="M138.829228,92.0535968 C135.348112,90.8733263 120.378549,87.8470462 109.62891,92.5349117 C103.330271,95.2817175 97.3643378,103.473177 96.5798803,109.632394 C95.4089885,118.825724 95.9543111,127.690519 98.7376879,134.382689 C100.659386,139.003095 103.91601,142.370851 107.317528,144.981324 C116.685977,152.171081 131.429713,152.031152 140.779083,141.981013 C143.53522,139.018292 145.030281,134.909386 146.853332,130.287598 C147.659581,128.243599 148.667289,124.058212 149.670553,117.690112 C150.5028,108.47218 149.758234,102.147029 147.436854,98.7146566 C146.507939,97.3411712 143.646647,93.6869405 138.829228,92.0535968 Z" id="Path-12" stroke="#3D3D3D" stroke-width="2" fill="#D6EFFF" stroke-linecap="round" stroke-linejoin="round"></path>
                    <path d="M81.3643166,99.7111695 C79.6165637,94.4570614 74.5328404,90.1243084 68.5903421,88.3611459 C60.2959214,85.9001588 50.3375943,87.3279263 45.5233691,88.3611459 C43.1432803,88.8719559 34.1267217,93.8121261 29.7898432,94.5630528 C24.6582223,95.4515885 23.1765095,96.4853262 22.3739978,98.9209221 C21.849842,100.511717 21.9014945,102.334187 22.3739978,104.882378 C22.7513881,106.917629 23.8928071,106.861996 24.6565868,108.086998 C25.2471956,109.034256 25.2471956,110.243472 25.6158029,113.476154 C27.0959978,126.457445 22.8072189,134.009831 30.5871176,145.425304 C36.8515052,154.617061 54.4618405,153.055968 62.6627801,147.539937 C71.1725102,141.816209 77.2109454,131.769602 80.0954154,121.518826 C81.6338493,116.051568 81.7972631,109.840207 81.9780515,104.715233 C82.0742679,102.835625 81.8513479,101.175287 81.3643166,99.7111695 Z" id="Path-9" stroke="#3D3D3D" stroke-width="2" fill="#FFAF32"></path>
                    <path d="M54.6194319,92.164948 C52.8660454,92.3119784 49.8236985,92.2832605 45.4995311,94.3334765 C43.9953101,95.0466723 41.3901947,96.751337 37.6841846,99.4474707 C35.3787444,102.118544 33.8965594,104.251715 33.2376295,105.846985 C31.4809154,110.099992 30.3618214,115.234833 30.0871123,119.877342 C29.9379535,122.398084 29.8492763,129.849092 30.9681459,135.993834 C31.6174255,139.559626 33.7707412,142.506505 35.1102512,144.112144 C41.4272131,151.684137 55.4540636,146.033032 57.3124117,145.06682 C59.1176866,144.128201 65.4191289,140.042031 69.462058,132.628097 C72.3560139,127.321153 73.6511191,123.61153 74.7561969,116.461027 C75.0812677,114.357629 75.0812677,106.027078 74.7561969,103.666828 C73.4320196,94.0523372 65.5919273,91.2448484 54.6194319,92.164948 Z" id="Path-8" stroke="#3D3D3D" stroke-width="2" fill="#D6EFFF"></path>
                    <path d="M85,110 C84.9268633,115.741565 84.6420563,119.71962 84.1455791,121.934167 C83.3360772,125.544967 81.5896916,128.089562 80.2747511,130.543778 C78.7026631,133.477937 76.2986524,137.978545 72.6265605,142.957454 C71.6399375,144.295195 69.9300411,146.654151 67.4968713,150.034322 C66.3586711,151.239886 65.5818054,153.147137 65.1662741,155.756074 C64.5429772,159.66948 65.8391042,162.543907 66.3074775,163.524685 C66.7845283,164.523634 68.4912301,167.182906 70.5416466,168.629043 C72.6985584,170.15029 75.9133591,170.495768 77.4754137,172.008944 C78.7409086,173.234841 79.3107417,174.898526 79.1849131,177" id="Path-14" stroke="#3D3D3D" stroke-width="2" stroke-linecap="round" stroke-linejoin="round"></path>
                    <path d="M70.0226356,206.866378 C68.6371148,205.178407 67.7344978,203.722948 67.3147848,202.5 C66.8950717,201.277052 66.8950717,199.856611 67.3147848,198.238674 C69.0352188,192.120034 71.4556987,190.834692 72.1670833,190.834692 C72.878468,190.834692 75.5806546,191.826383 78.896656,191.634018 C82.2126574,191.441654 83.4943762,189.617797 85.3047497,190.072564 C85.9031518,190.222882 88.7167343,190.771825 93.2675339,193.329277 C96.3526646,195.063055 102.930153,197.629162 113,201.0276 C110.195743,203.688051 105.444101,206.301888 98.7450756,208.869112 C88.6965371,212.719947 79.4283362,215 76.5398071,215 C73.6512781,215 72.8757366,213.858586 71.6738118,212.358548 C70.8725286,211.358523 70.3221366,209.5278 70.0226356,206.866378 Z" id="Path-15" stroke="#3D3D3D" stroke-width="2"></path>
                    <path d="M71,207 C71.5786382,204.750845 74.5347284,203.2453 79.8682706,202.483365 C85.2018128,201.721431 96.2457226,201.226976 113,201" id="Path-16" stroke="#3D3D3D" stroke-width="2"></path>
                </g>
            </g>
        </g>
    </g>
</svg>