<?xml version="1.0" encoding="UTF-8"?>
<svg width="98px" height="99px" viewBox="0 0 98 99" version="1.1" xmlns="http://www.w3.org/2000/svg" xmlns:xlink="http://www.w3.org/1999/xlink">
    <!-- Generator: sketchtool 64 (101010) - https://sketch.com -->
    <title>5EFA0553-A5FA-4684-9660-993A73D7BD56</title>
    <desc>Created with sketchtool.</desc>
    <defs>
        <ellipse id="path-1" cx="48.1818182" cy="45" rx="48.1818182" ry="45"></ellipse>
        <path d="M-1.28382153e-14,60 L-1.28382153e-14,-5.32907052e-15 L106,-5.32907052e-15 L106,60 L101.181818,60 C101.181818,84.8528137 79.6100834,105 53,105 C26.3899166,105 4.81818182,84.8528137 4.81818182,60 L4.81818182,60 L-1.28382153e-14,60 Z" id="path-3"></path>
        <path d="M40.1515152,0 C52.5695541,-2.28115674e-15 62.6363636,10.0668096 62.6363636,22.4848485 L62.6368703,23.3167032 C64.9153908,23.699217 66.6515152,25.6809526 66.6515152,28.0681818 L66.6515152,32.6818182 C66.6515152,35.1745564 64.7585355,37.2251655 62.3316816,37.4745402 C61.1106078,44.8336214 56.3143906,50.9859693 49.7874698,54.0864093 L49.787,61.125 L49.9280303,61.125 C66.5359231,61.125 80.0307257,74.4537236 80.2989609,90.9976938 L80.3030303,91.5 L0,91.5 C-2.05442452e-15,74.7243507 13.5993507,61.125 30.375,61.125 L30.515,61.125 L30.5155605,54.0864093 C23.9886397,50.9859693 19.1924225,44.8336214 17.9710187,37.4734753 C15.5444948,37.2251655 13.6515152,35.1745564 13.6515152,32.6818182 L13.6515152,28.0681818 C13.6515152,25.6809526 15.3876395,23.699217 17.66616,23.3167032 L17.6666667,22.4848485 C17.6666667,10.0668096 27.7334762,2.28115674e-15 40.1515152,0 Z" id="path-5"></path>
        <path d="M81.1474484,32.7480146 L81.1515152,33.25 L0.848484848,33.25 C0.848484848,16.8092969 13.918548,3.4212706 30.2350241,2.90957115 C30.1846263,3.2734467 30.1590909,3.64384269 30.1590909,4.01939632 C30.1590909,9.19706585 35.0127312,13.3943963 41,13.3943963 C46.9872688,13.3943963 51.8409091,9.19706585 51.8409091,4.01939632 C51.8409091,3.64384269 51.8153737,3.2734467 51.7657224,2.90943598 C67.9150694,3.41605269 80.8846211,16.5375947 81.1474484,32.7480146 Z" id="path-7"></path>
        <path d="M21.3257576,1.63035942 C21.3257576,7.7358734 30.2240982,12.6853704 41.2007576,12.6853704 C52.177417,12.6853704 61.0757576,7.7358734 61.0757576,1.63035942 C61.0757576,1.30071899 61.049819,0.974448338 60.9990153,0.652144483 C72.5953187,4.78914364 80.9371954,15.7802208 81.1474484,28.7480146 L81.1515152,29.25 L0.848484848,29.25 C0.848484848,15.9054827 9.45926792,4.57212157 21.4276777,0.503072951 C21.3603296,0.873718664 21.3257576,1.24979335 21.3257576,1.63035942 Z" id="path-9"></path>
        <rect id="path-11" x="0" y="0" width="106" height="105"></rect>
        <path d="M59.4242424,74.1030191 C54.4153895,70.2138345 47.9774119,67.875 40.9545455,67.875 L40.9545455,67.875 L39.3484848,67.875 L39.3484848,60.9791065 C46.3873595,57.8561192 51.4132898,51.4180469 52.1132214,43.8251952 C54.4330595,43.5008866 56.2121212,41.6319843 56.2121212,39.375 L56.2121212,39.375 L56.2121212,34.5 C56.2121212,32.752874 55.1460594,31.2382972 53.5883269,30.4927293 C53.2832087,30.3909985 52.9792954,30.2799552 52.6758463,30.1616881 C52.5194488,30.1207887 52.3595904,30.0876997 52.1969697,30.0622188 L52.1969697,30.0622188 L52.1961601,29.968557 C47.0667652,27.8371988 42.1098729,23.6511436 38.5897943,17.9568177 C37.4112769,16.0503653 36.4700503,14.098179 35.7614058,12.1488884 C32.2944236,16.1028432 27.2004622,20.1008963 21.0159119,23.4357504 C17.1758537,25.5063994 13.3089383,27.1091271 9.63636364,28.2247345 L9.63565765,51.4658892 C11.8846951,55.6185284 15.5673248,58.9788182 20.0757576,60.9791065 L20.0757576,60.9791065 L20.0757576,67.875 L18.469697,67.875 C15.3887546,67.875 12.4203794,68.3251299 9.63585193,69.1588162 L9.63636364,86.25 C9.63636364,91.5397079 5.44822999,95.9158222 0,96.6436667 L0,27.75 C0,12.4240982 13.3025698,0 29.7121212,0 C46.1216726,0 59.4242424,12.4240982 59.4242424,27.75 Z" id="path-13"></path>
    </defs>
    <g id="Portfolio-High-f-i" stroke="none" stroke-width="1" fill="none" fill-rule="evenodd">
        <g id="Solve-Employment-Case-study" transform="translate(-186.000000, -7080.000000)">
            <g id="bussiness-owner" transform="translate(182.000000, 7074.000000)">
                <g id="Avataaar/Circle">
                    <g id="Circle" transform="translate(4.818182, 15.000000)">
                        <mask id="mask-2" fill="white">
                            <use xlink:href="#path-1"></use>
                        </mask>
                        <use id="Circle-Background" fill="#E6E6E6" xlink:href="#path-1"></use>
                        <g id="ðŸ–-Circle-Color" mask="url(#mask-2)" fill="#B1E2FF">
                            <rect id="ðŸ–Color" x="0" y="0" width="96.3636364" height="90"></rect>
                        </g>
                    </g>
                    <mask id="mask-4" fill="white">
                        <use xlink:href="#path-3"></use>
                    </mask>
                    <g id="Mask"></g>
                    <g id="Avataaar" mask="url(#mask-4)">
                        <g id="Body" transform="translate(12.848485, 13.500000)">
                            <mask id="mask-6" fill="white">
                                <use xlink:href="#path-5"></use>
                            </mask>
                            <use fill="#D0C6AC" xlink:href="#path-5"></use>
                            <g id="ðŸŽ¨-Skin" mask="url(#mask-6)" fill="#D08B5B">
                                <g transform="translate(-12.848485, 0.000000)" id="Color">
                                    <rect x="0" y="0" width="106" height="91.5"></rect>
                                </g>
                            </g>
                            <path d="M17.6666667,33.7651515 C17.6666667,46.1831904 27.7334762,56.25 40.1515152,56.25 C52.5695541,56.25 62.6363636,46.1831904 62.6363636,33.7651515 L62.6363636,33.7651515 L62.6363636,36.7651515 C62.6363636,49.1831904 52.5695541,59.25 40.1515152,59.25 C27.7334762,59.25 17.6666667,49.1831904 17.6666667,36.7651515 Z" id="Neck-Shadow" fill-opacity="0.100000001" fill="#000000" mask="url(#mask-6)"></path>
                        </g>
                        <g id="ðŸ‘”-Clothes" transform="translate(12.000000, 71.750000)">
                            <mask id="mask-8" fill="white">
                                <use xlink:href="#path-7"></use>
                            </mask>
                            <use id="Clothes" fill="#E6E6E6" xlink:href="#path-7"></use>
                            <g id="â†³-Color-Fabric" mask="url(#mask-8)">
                                <g transform="translate(0.000000, 4.000000)">
                                    <mask id="mask-10" fill="white">
                                        <use xlink:href="#path-9"></use>
                                    </mask>
                                    <use id="Clothes" stroke="none" fill="#E6E6E6" fill-rule="evenodd" xlink:href="#path-9"></use>
                                    <g id="â†³-Color-Fabric" stroke="none" stroke-width="1" fill="none" fill-rule="evenodd" mask="url(#mask-10)">
                                        <g transform="translate(-12.000000, -12.000000)" fill="#FFAFB9" id="ðŸ–Color">
                                            <rect x="0" y="0" width="106" height="41.25"></rect>
                                        </g>
                                    </g>
                                </g>
                            </g>
                            <g id="Blazer" transform="translate(0.848485, 2.500000)">
                                <path d="M25.6969697,15.1875 C25.6969697,20.8911733 26.4843473,26.2207448 27.8500513,30.7509525 L0,30.75 C-1.93895791e-15,14.9172072 12.1213773,1.9155137 27.590401,0.518650496 C26.3851219,4.850084 25.6969697,9.85531328 25.6969697,15.1875 Z M80.2989635,30.2480146 L80.3030303,30.75 L52.8544942,30.7509525 C54.2201981,26.2207448 55.0075758,20.8911733 55.0075758,15.1875 C55.0075758,9.87136664 54.3235609,4.88022498 53.1247999,0.558409313 C68.2333507,2.13025762 80.0482311,14.7835716 80.2989635,30.2480146 Z" id="Saco" fill="#3A4C5A"></path>
                                <path d="M59.8257576,21.75 L62.3068157,20.012089 C63.7052225,19.0325446 65.5712132,19.0485857 66.9525732,20.0520264 L68.2575758,21 L68.2575758,21 L59.8257576,21.75 Z" id="Pocket-hanky" fill="#E6E6E6"></path>
                                <path d="M27.7045455,0 C26.0984848,7.25 26.7676768,17.5 29.7121212,30.75 L23.2878788,30.75 L17.6666667,17.25 L20.0757576,13.875 L17.6666667,11.625 L25.2954545,0.375 C26.1095904,0.138464489 26.9126207,0.0134644889 27.7045455,0 Z" id="Wing" fill="#2F4351"></path>
                                <path d="M60.6287879,0 C59.0227273,7.25 59.6919192,17.5 62.6363636,30.75 L56.2121212,30.75 L50.5909091,17.25 L53,13.875 L50.5909091,11.625 L58.219697,0.375 C59.0338328,0.138464489 59.8368631,0.0134644889 60.6287879,0 Z" id="Wing" fill="#2F4351" transform="translate(56.613636, 15.375000) scale(-1, 1) translate(-56.613636, -15.375000) "></path>
                            </g>
                            <path d="M50.6372743,0.0777047176 C53.3559314,1.80152963 55.0530303,4.24642261 55.0530303,6.95795505 C55.0530303,9.73348544 53.2748757,12.2296413 50.4430777,13.9590522 L48.0579697,12.2031273 L46.219697,12.3279576 L46.6212121,11.1462933 L46.6229697,11.1471273 L46.5896477,11.1234812 C49.0391864,9.94507181 50.6363636,8.0127347 50.6363636,5.82880381 Z M35.4113599,11.1239659 L35.3779697,11.1471273 L35.780303,12.3279576 L33.9419697,12.2031273 L31.5569223,13.9590522 C28.8070745,12.2796892 27.0507692,9.87731725 26.9514197,7.19820693 L26.9469697,6.95795505 C26.9469697,4.24642261 28.6440686,1.80152963 31.3627257,0.0777047176 L31.3636364,5.82880381 C31.3636364,8.01303411 32.9612516,9.94560165 35.4113599,11.1239659 Z" id="Collar" fill="#F2F2F2"></path>
                        </g>
                        <g id="Face" transform="translate(34.515152, 32.750000)" fill="#000000">
                            <g id="ðŸ‘„-Mouth" transform="translate(12.803030, 22.500000)" fill-opacity="0.699999988">
                                <path d="M0.0606060606,0.625 C0.0606060606,3.52449494 2.57730845,5.875 5.68181818,5.875 L5.68181818,5.875 C8.78632791,5.875 11.3030303,3.52449494 11.3030303,0.625" id="Mouth"></path>
                            </g>
                            <g id="ðŸ‘ƒðŸ½-Nose" transform="translate(13.242424, 16.000000)" fill-opacity="0.16">
                                <path d="M0.424242424,0 C0.424242424,1.65685425 2.5814159,3 5.24242424,3 L5.24242424,3 C7.90343258,3 10.0606061,1.65685425 10.0606061,0" id="Nose"></path>
                            </g>
                            <g id="ðŸ‘-Eyes" transform="translate(2.000000, 7.000000)" fill-opacity="0.599999964">
                                <path d="M0.488552069,2.41774184 C1.22995323,0.993190498 2.89935145,0 4.83993754,0 C6.77367317,0 8.43813219,0.986190761 9.18343669,2.40267158 C9.40483567,2.82344914 9.08978407,3.16780563 8.77198614,2.91263356 C7.78783209,2.12241875 6.39024216,1.62892064 4.83993754,1.62892064 C3.33812063,1.62892064 1.97961512,2.09203195 1.00143618,2.83936545 C0.643788037,3.11261038 0.271707292,2.83439417 0.488552069,2.41774184 Z" id="Squint"></path>
                                <path d="M23.7764309,2.41774184 C24.517832,0.993190498 26.1872302,0 28.1278163,0 C30.061552,0 31.726011,0.986190761 32.4713155,2.40267158 C32.6927145,2.82344914 32.3776629,3.16780563 32.0598649,2.91263356 C31.0757109,2.12241875 29.678121,1.62892064 28.1278163,1.62892064 C26.6259994,1.62892064 25.2674939,2.09203195 24.289315,2.83936545 C23.9316668,3.11261038 23.5595861,2.83439417 23.7764309,2.41774184 Z" id="Squint"></path>
                            </g>
                            <g id="âœï¸-Eyebrow" fill-opacity="0.599999964" fill-rule="nonzero">
                                <g id="I-Browse" transform="translate(0.818182, 0.250000)">
                                    <path d="M1.45759852,4.18446628 C3.02949406,2.11870002 7.3388617,0.960313954 11.0509123,1.81169267 C11.4816168,1.91047706 11.9165146,1.66446005 12.0222837,1.26219829 C12.1280529,0.859936539 11.8646407,0.453758385 11.4339362,0.354973995 C7.12302465,-0.633756709 2.13288848,0.70762437 0.14846209,3.31553372 C-0.108453107,3.65316859 -0.0236638542,4.12139291 0.337844188,4.36134201 C0.699352229,4.60129111 1.20068332,4.52210115 1.45759852,4.18446628 Z" id="Eyebrow"></path>
                                    <path d="M24.7454773,4.18446628 C26.3173728,2.11870002 30.6267405,0.960313954 34.3387911,1.81169267 C34.7694956,1.91047706 35.2043934,1.66446005 35.3101625,1.26219829 C35.4159317,0.859936539 35.1525195,0.453758385 34.721815,0.354973995 C30.4109034,-0.633756709 25.4207673,0.70762437 23.4363409,3.31553372 C23.1794257,3.65316859 23.2642149,4.12139291 23.625723,4.36134201 C23.987231,4.60129111 24.4885621,4.52210115 24.7454773,4.18446628 Z" id="Eyebrow" transform="translate(29.310668, 2.264699) scale(-1, 1) translate(-29.310668, -2.264699) "></path>
                                </g>
                            </g>
                        </g>
                        <g id="Top">
                            <mask id="mask-12" fill="white">
                                <use xlink:href="#path-11"></use>
                            </mask>
                            <g id="Mask"></g>
                            <g mask="url(#mask-12)">
                                <g transform="translate(22.598485, 6.000000)">
                                    <g id="Hair" stroke-width="1" fill="none" transform="translate(0.689394, 0.750000)">
                                        <mask id="mask-14" fill="white">
                                            <use xlink:href="#path-13"></use>
                                        </mask>
                                        <use id="Mask-Hair" fill="#944F23" xlink:href="#path-13"></use>
                                        <g id="â†³-ðŸ’ˆHair-Color" mask="url(#mask-14)" fill="#A55728">
                                            <g transform="translate(-23.287879, -6.750000)" id="Color">
                                                <rect x="0" y="0" width="106" height="105"></rect>
                                            </g>
                                        </g>
                                    </g>
                                    <path d="M60.1136364,74.8530191 C55.1047835,70.9638345 48.6668058,68.625 41.6439394,68.625 L41.6439394,68.625 L40.0378788,68.625 L40.0378788,61.7291065 C47.0767535,58.6061192 52.1026837,52.1680469 52.8026153,44.5751952 C55.1224534,44.2508866 56.9015152,42.3819843 56.9015152,40.125 L56.9015152,40.125 L56.9015152,35.25 C56.9015152,33.503992 55.8368173,31.9902357 54.2807108,31.2441616 C56.2398061,31.9137199 58.2073082,32.2769178 60.1136364,32.3055869 L60.1136364,32.3055869 Z M10.323971,52.2138936 C12.5729093,56.3674519 16.2559966,59.7284978 20.7651515,61.7291065 L20.7651515,61.7291065 L20.7651515,68.625 L19.1590909,68.625 C16.0780273,68.625 13.1095397,69.0751653 10.3249171,69.9089146 Z" id="Shadow" fill-opacity="0.24" fill="#000000"></path>
                                </g>
                            </g>
                        </g>
                    </g>
                </g>
            </g>
        </g>
    </g>
</svg>