<?xml version="1.0" encoding="UTF-8"?>
<svg width="98px" height="92px" viewBox="0 0 98 92" version="1.1" xmlns="http://www.w3.org/2000/svg" xmlns:xlink="http://www.w3.org/1999/xlink">
    <!-- Generator: sketchtool 64 (101010) - https://sketch.com -->
    <title>EC0B82F6-0988-4977-A779-72508843631A</title>
    <desc>Created with sketchtool.</desc>
    <defs>
        <ellipse id="path-1" cx="48.1818182" cy="45" rx="48.1818182" ry="45"></ellipse>
        <path d="M-1.28382153e-14,60 L-1.28382153e-14,-5.32907052e-15 L106,-5.32907052e-15 L106,60 L101.181818,60 C101.181818,84.8528137 79.6100834,105 53,105 C26.3899166,105 4.81818182,84.8528137 4.81818182,60 L4.81818182,60 L-1.28382153e-14,60 Z" id="path-3"></path>
        <path d="M40.1515152,0 C52.5695541,-2.28115674e-15 62.6363636,10.0668096 62.6363636,22.4848485 L62.6368703,23.3167032 C64.9153908,23.699217 66.6515152,25.6809526 66.6515152,28.0681818 L66.6515152,32.6818182 C66.6515152,35.1745564 64.7585355,37.2251655 62.3316816,37.4745402 C61.1106078,44.8336214 56.3143906,50.9859693 49.7874698,54.0864093 L49.787,61.125 L49.9280303,61.125 C66.5359231,61.125 80.0307257,74.4537236 80.2989609,90.9976938 L80.3030303,91.5 L0,91.5 C-2.05442452e-15,74.7243507 13.5993507,61.125 30.375,61.125 L30.515,61.125 L30.5155605,54.0864093 C23.9886397,50.9859693 19.1924225,44.8336214 17.9710187,37.4734753 C15.5444948,37.2251655 13.6515152,35.1745564 13.6515152,32.6818182 L13.6515152,28.0681818 C13.6515152,25.6809526 15.3876395,23.699217 17.66616,23.3167032 L17.6666667,22.4848485 C17.6666667,10.0668096 27.7334762,2.28115674e-15 40.1515152,0 Z" id="path-5"></path>
        <path d="M81.1474484,32.7480146 L81.1515152,33.25 L0.848484848,33.25 C0.848484848,16.8092969 13.918548,3.4212706 30.2350241,2.90957115 C30.1846263,3.2734467 30.1590909,3.64384269 30.1590909,4.01939632 C30.1590909,9.19706585 35.0127312,13.3943963 41,13.3943963 C46.9872688,13.3943963 51.8409091,9.19706585 51.8409091,4.01939632 C51.8409091,3.64384269 51.8153737,3.2734467 51.7657224,2.90943598 C67.9150694,3.41605269 80.8846211,16.5375947 81.1474484,32.7480146 Z" id="path-7"></path>
        <path d="M21.3257576,1.63035942 C21.3257576,7.7358734 30.2240982,12.6853704 41.2007576,12.6853704 C52.177417,12.6853704 61.0757576,7.7358734 61.0757576,1.63035942 C61.0757576,1.30071899 61.049819,0.974448338 60.9990153,0.652144483 C72.5953187,4.78914364 80.9371954,15.7802208 81.1474484,28.7480146 L81.1515152,29.25 L0.848484848,29.25 C0.848484848,15.9054827 9.45926792,4.57212157 21.4276777,0.503072951 C21.3603296,0.873718664 21.3257576,1.24979335 21.3257576,1.63035942 Z" id="path-9"></path>
        <rect id="path-11" x="0" y="0" width="106" height="105"></rect>
        <path d="M23.2878788,0.375 C46.1742424,0.102886059 46.4630035,20.1382191 46.1742424,24 C46.0349744,24.558168 45.5026056,24.4585021 45.3712121,24 C45.5570092,23.4171458 44.0478403,13.218027 40.1515152,10.5 C39.4451274,10.0411258 37.2415581,9.60381244 34.2727398,9.27713211 L35.7348485,6 L32.9323669,9.14200857 C30.1087658,8.88181089 26.7642937,8.71930226 23.4133982,8.71708802 C15.6623899,8.71196621 7.87701337,9.55627021 6.42424242,10.5 C2.52791728,13.218027 1.01874835,23.4171458 1.20454545,24 C1.07315198,24.4585021 0.540783206,24.558168 0.401515152,24 C0.112754105,20.1382191 0.401515152,0.647113941 23.2878788,0.375 Z" id="path-13"></path>
        <filter x="-7.7%" y="-26.0%" width="116.9%" height="156.1%" filterUnits="objectBoundingBox" id="filter-15">
            <feOffset dx="0" dy="2" in="SourceAlpha" result="shadowOffsetOuter1"></feOffset>
            <feColorMatrix values="0 0 0 0 0   0 0 0 0 0   0 0 0 0 0  0 0 0 0.2 0" type="matrix" in="shadowOffsetOuter1" result="shadowMatrixOuter1"></feColorMatrix>
            <feMerge>
                <feMergeNode in="shadowMatrixOuter1"></feMergeNode>
                <feMergeNode in="SourceGraphic"></feMergeNode>
            </feMerge>
        </filter>
    </defs>
    <g id="Portfolio-High-f-i" stroke="none" stroke-width="1" fill="none" fill-rule="evenodd">
        <g id="Solve-Employment-Case-study" transform="translate(-186.000000, -3343.000000)">
            <g id="questions_asked" transform="translate(0.000000, 3205.000000)">
                <g id="Group-14" transform="translate(182.000000, 108.000000)">
                    <g id="Avataaar/Circle" transform="translate(0.000000, 17.000000)">
                        <g id="Circle" transform="translate(4.818182, 15.000000)">
                            <mask id="mask-2" fill="white">
                                <use xlink:href="#path-1"></use>
                            </mask>
                            <use id="Circle-Background" fill="#E6E6E6" xlink:href="#path-1"></use>
                            <g id="ðŸ–-Circle-Color" mask="url(#mask-2)" fill="#E6E6E6">
                                <rect id="ðŸ–Color" x="0" y="0" width="96.3636364" height="90"></rect>
                            </g>
                        </g>
                        <mask id="mask-4" fill="white">
                            <use xlink:href="#path-3"></use>
                        </mask>
                        <g id="Mask"></g>
                        <g id="Avataaar" mask="url(#mask-4)">
                            <g id="Body" transform="translate(12.848485, 13.500000)">
                                <mask id="mask-6" fill="white">
                                    <use xlink:href="#path-5"></use>
                                </mask>
                                <use fill="#D0C6AC" xlink:href="#path-5"></use>
                                <g id="ðŸŽ¨-Skin" mask="url(#mask-6)" fill="#EDB98A">
                                    <g transform="translate(-12.848485, 0.000000)" id="Color">
                                        <rect x="0" y="0" width="106" height="91.5"></rect>
                                    </g>
                                </g>
                                <path d="M17.6666667,33.7651515 C17.6666667,46.1831904 27.7334762,56.25 40.1515152,56.25 C52.5695541,56.25 62.6363636,46.1831904 62.6363636,33.7651515 L62.6363636,33.7651515 L62.6363636,36.7651515 C62.6363636,49.1831904 52.5695541,59.25 40.1515152,59.25 C27.7334762,59.25 17.6666667,49.1831904 17.6666667,36.7651515 Z" id="Neck-Shadow" fill-opacity="0.100000001" fill="#000000" mask="url(#mask-6)"></path>
                            </g>
                            <g id="ðŸ‘”-Clothes" transform="translate(12.000000, 71.750000)">
                                <mask id="mask-8" fill="white">
                                    <use xlink:href="#path-7"></use>
                                </mask>
                                <use id="Clothes" fill="#E6E6E6" xlink:href="#path-7"></use>
                                <g id="â†³-Color-Fabric" mask="url(#mask-8)">
                                    <g transform="translate(0.000000, 4.000000)">
                                        <mask id="mask-10" fill="white">
                                            <use xlink:href="#path-9"></use>
                                        </mask>
                                        <use id="Clothes" stroke="none" fill="#E6E6E6" fill-rule="evenodd" xlink:href="#path-9"></use>
                                        <g id="â†³-Color-Fabric" stroke="none" stroke-width="1" fill="none" fill-rule="evenodd" mask="url(#mask-10)">
                                            <g transform="translate(-12.000000, -12.000000)" fill="#E6E6E6" id="ðŸ–Color">
                                                <rect x="0" y="0" width="106" height="41.25"></rect>
                                            </g>
                                        </g>
                                    </g>
                                </g>
                                <g id="Blazer" transform="translate(0.848485, 2.500000)">
                                    <path d="M25.6969697,15.1875 C25.6969697,20.8911733 26.4843473,26.2207448 27.8500513,30.7509525 L0,30.75 C-1.93895791e-15,14.9172072 12.1213773,1.9155137 27.590401,0.518650496 C26.3851219,4.850084 25.6969697,9.85531328 25.6969697,15.1875 Z M80.2989635,30.2480146 L80.3030303,30.75 L52.8544942,30.7509525 C54.2201981,26.2207448 55.0075758,20.8911733 55.0075758,15.1875 C55.0075758,9.87136664 54.3235609,4.88022498 53.1247999,0.558409313 C68.2333507,2.13025762 80.0482311,14.7835716 80.2989635,30.2480146 Z" id="Saco" fill="#3A4C5A"></path>
                                    <path d="M59.8257576,21.75 L62.3068157,20.012089 C63.7052225,19.0325446 65.5712132,19.0485857 66.9525732,20.0520264 L68.2575758,21 L68.2575758,21 L59.8257576,21.75 Z" id="Pocket-hanky" fill="#E6E6E6"></path>
                                    <path d="M27.7045455,0 C26.0984848,7.25 26.7676768,17.5 29.7121212,30.75 L23.2878788,30.75 L17.6666667,17.25 L20.0757576,13.875 L17.6666667,11.625 L25.2954545,0.375 C26.1095904,0.138464489 26.9126207,0.0134644889 27.7045455,0 Z" id="Wing" fill="#2F4351"></path>
                                    <path d="M60.6287879,0 C59.0227273,7.25 59.6919192,17.5 62.6363636,30.75 L56.2121212,30.75 L50.5909091,17.25 L53,13.875 L50.5909091,11.625 L58.219697,0.375 C59.0338328,0.138464489 59.8368631,0.0134644889 60.6287879,0 Z" id="Wing" fill="#2F4351" transform="translate(56.613636, 15.375000) scale(-1, 1) translate(-56.613636, -15.375000) "></path>
                                </g>
                                <path d="M50.6372743,0.0777047176 C53.3559314,1.80152963 55.0530303,4.24642261 55.0530303,6.95795505 C55.0530303,9.73348544 53.2748757,12.2296413 50.4430777,13.9590522 L48.0579697,12.2031273 L46.219697,12.3279576 L46.6212121,11.1462933 L46.6229697,11.1471273 L46.5896477,11.1234812 C49.0391864,9.94507181 50.6363636,8.0127347 50.6363636,5.82880381 Z M35.4113599,11.1239659 L35.3779697,11.1471273 L35.780303,12.3279576 L33.9419697,12.2031273 L31.5569223,13.9590522 C28.8070745,12.2796892 27.0507692,9.87731725 26.9514197,7.19820693 L26.9469697,6.95795505 C26.9469697,4.24642261 28.6440686,1.80152963 31.3627257,0.0777047176 L31.3636364,5.82880381 C31.3636364,8.01303411 32.9612516,9.94560165 35.4113599,11.1239659 Z" id="Collar" fill="#F2F2F2"></path>
                            </g>
                            <g id="Face" transform="translate(34.515152, 30.750000)" fill="#000000">
                                <g id="ðŸ‘„-Mouth" transform="translate(12.803030, 24.500000)" fill-opacity="0.699999988">
                                    <path d="M0.0606060606,0.625 C0.0606060606,3.52449494 2.57730845,5.875 5.68181818,5.875 L5.68181818,5.875 C8.78632791,5.875 11.3030303,3.52449494 11.3030303,0.625" id="Mouth"></path>
                                </g>
                                <g id="ðŸ‘ƒðŸ½-Nose" transform="translate(13.242424, 18.000000)" fill-opacity="0.16">
                                    <path d="M0.424242424,0 C0.424242424,1.65685425 2.5814159,3 5.24242424,3 L5.24242424,3 C7.90343258,3 10.0606061,1.65685425 10.0606061,0" id="Nose"></path>
                                </g>
                                <g id="ðŸ‘-Eyes" transform="translate(5.000000, 9.000000)" fill-opacity="0.599999964">
                                    <ellipse id="Eye" cx="3.04545455" cy="2.25" rx="2.40909091" ry="2.25"></ellipse>
                                    <ellipse id="Eye" cx="23.9242424" cy="2.25" rx="2.40909091" ry="2.25"></ellipse>
                                </g>
                                <g id="âœï¸-Eyebrow" fill-opacity="0.599999964" fill-rule="nonzero">
                                    <g id="I-Browse" transform="translate(0.818182, 0.000000)">
                                        <path d="M1.59634217,6.42296884 C2.19668597,2.85178559 7.25078097,0.415753489 10.9065635,1.98789102 C11.3094117,2.16113238 11.7863547,1.99656541 11.9718454,1.62032041 C12.1573362,1.2440754 11.9811332,0.798628685 11.578285,0.625387321 C6.96581458,-1.3581655 0.777236761,1.62467797 0.0097184357,6.1903095 C-0.0590713929,6.59951016 0.240341254,6.98331541 0.6784753,7.04756252 C1.11660935,7.11180962 1.52755234,6.83216951 1.59634217,6.42296884 Z" id="Eyebrow"></path>
                                        <path d="M24.884221,6.42296884 C25.4845648,2.85178559 30.5386598,0.415753489 34.1944423,1.98789102 C34.5972905,2.16113238 35.0742334,1.99656541 35.2597242,1.62032041 C35.445215,1.2440754 35.2690119,0.798628685 34.8661637,0.625387321 C30.2536934,-1.3581655 24.0651155,1.62467797 23.2975972,6.1903095 C23.2288074,6.59951016 23.52822,6.98331541 23.9663541,7.04756252 C24.4044881,7.11180962 24.8154311,6.83216951 24.884221,6.42296884 Z" id="Eyebrow" transform="translate(29.310645, 3.528914) scale(-1, 1) translate(-29.310645, -3.528914) "></path>
                                    </g>
                                </g>
                            </g>
                            <g id="Top">
                                <mask id="mask-12" fill="white">
                                    <use xlink:href="#path-11"></use>
                                </mask>
                                <g id="Mask"></g>
                                <g mask="url(#mask-12)">
                                    <g transform="translate(25.598485, 12.000000)">
                                        <g id="Hair" transform="translate(4.113636, 0.750000)">
                                            <mask id="mask-14" fill="white">
                                                <use xlink:href="#path-13"></use>
                                            </mask>
                                            <use id="Caesar" fill="#28354B" xlink:href="#path-13"></use>
                                            <g id="â†³-ðŸ’ˆHair-Color" mask="url(#mask-14)" fill="#2C1B18">
                                                <g transform="translate(-29.712121, -12.750000)" id="Color">
                                                    <rect x="0" y="0" width="106" height="105"></rect>
                                                </g>
                                            </g>
                                        </g>
                                        <g id="â†³-ðŸ‘“-Accessory" transform="translate(0.893939, 21.875000)">
                                            <g id="Wayfarers" filter="url(#filter-15)" transform="translate(0.409091, 0.625000)" fill="#252C2F" fill-rule="nonzero">
                                                <path d="M14.2417703,0 C22.9598386,0 23.6893939,3.797625 23.6893939,7.6875 C23.6893939,12.2132411 19.5623301,15.375 13.6515152,15.375 L12.5441965,15.375 C6.95211939,15.375 3.61363636,12.5009732 3.61363636,7.6875 C3.61363636,3.797625 4.34319171,0 13.06126,0 L14.2417703,0 Z M14.2998173,2.25 L13.003213,2.25 C5.21969697,2.25 5.21969697,4.81538096 5.21969697,8.06308119 C5.21969697,10.7144786 6.47092018,13.875 12.4353003,13.875 L13.6515152,13.875 C18.6162133,13.875 22.0833333,11.485139 22.0833333,8.06308119 L22.0831066,7.76528628 C22.0759643,4.65994013 21.8438405,2.25 14.2998173,2.25 Z" id="Left"></path>
                                                <path d="M39.1357097,0 C47.853778,0 48.5833333,3.797625 48.5833333,7.6875 C48.5833333,12.2132411 44.4562694,15.375 38.5454545,15.375 L37.4381359,15.375 C31.8460588,15.375 28.5075758,12.5009732 28.5075758,7.6875 C28.5075758,3.797625 29.2371311,0 37.9551994,0 L39.1357097,0 Z M39.1937567,2.25 L37.8971524,2.25 C30.1136364,2.25 30.1136364,4.81538096 30.1136364,8.06308119 C30.1136364,10.7144786 31.3661562,13.875 37.3292397,13.875 L38.5454545,13.875 C43.5101527,13.875 46.9772727,11.485139 46.9772727,8.06308119 L46.977046,7.76528628 C46.9699037,4.65994013 46.7377799,2.25 39.1937567,2.25 Z" id="Right"></path>
                                                <path d="M1.18629477,2.16433665 C1.46388774,1.91110926 4.50080234,0 13.0492424,0 C20.2168354,0 21.7341064,0.694752064 24.0307731,1.74445534 L24.1988859,1.82194087 C24.3585597,1.87463211 25.1750983,2.13368618 26.1302289,2.1621732 C27.0004062,2.12729463 27.7447048,1.90702572 27.9621969,1.83644913 C30.5835663,0.645782401 33.1495314,0 39.1477273,0 C47.6961674,0 50.733082,1.91110926 51.0106749,2.16433665 C51.6666959,2.16433665 52.1969697,2.64806589 52.1969697,3.24650497 L52.1969697,4.3286733 C52.1969697,4.92711238 51.6666959,5.41084162 51.0106749,5.41084162 C51.0106749,5.41084162 48.2396352,5.41084162 48.2396352,6.49300994 C48.2396352,7.57517827 47.4517906,4.92711238 47.4517906,4.3286733 L47.4517906,3.27465094 C46.0050339,2.75752557 43.4151954,1.79481576 39.1477273,1.79481576 C34.3931716,1.79481576 32.0252895,2.58226055 29.9941027,3.36417138 L30.0168165,3.41532323 L30.0158139,4.16016031 L29.1255744,6.16636272 L28.0259547,5.76031316 C27.9277465,5.72404847 27.7158439,5.65889699 27.4220195,5.59121416 C26.6028971,5.40252823 25.7607739,5.34508839 25.0160336,5.48786565 C24.7428052,5.5402474 24.4893039,5.61885319 24.2566597,5.72502451 L23.195724,6.20920127 L22.1341953,4.27357616 L22.1813395,3.41315889 L22.2137536,3.34006446 C20.4620363,2.5776989 18.8468257,1.79481576 13.0492424,1.79481576 C8.78199797,1.79481576 6.19221928,2.75716489 4.74517906,3.27430016 L4.74517906,4.3286733 C4.74517906,4.92711238 3.5588843,7.57517827 3.5588843,6.49300994 C3.5588843,5.41084162 1.18629477,5.41084162 1.18629477,5.41084162 C0.531460055,5.41084162 0,4.92711238 0,4.3286733 L0,3.24650497 C0,2.64806589 0.531460055,2.16433665 1.18629477,2.16433665 Z" id="Stuff"></path>
                                            </g>
                                        </g>
                                    </g>
                                </g>
                            </g>
                        </g>
                    </g>
                </g>
            </g>
        </g>
    </g>
</svg>