<?xml version="1.0" encoding="UTF-8"?>
<svg width="98px" height="98px" viewBox="0 0 98 98" version="1.1" xmlns="http://www.w3.org/2000/svg" xmlns:xlink="http://www.w3.org/1999/xlink">
    <!-- Generator: sketchtool 64 (101010) - https://sketch.com -->
    <title>30CB55CB-1DB8-4DF4-A282-EE1BE295FC8F</title>
    <desc>Created with sketchtool.</desc>
    <defs>
        <ellipse id="path-1" cx="48.1818182" cy="45" rx="48.1818182" ry="45"></ellipse>
        <path d="M-1.28382153e-14,60 L-1.28382153e-14,-5.32907052e-15 L106,-5.32907052e-15 L106,60 L101.181818,60 C101.181818,84.8528137 79.6100834,105 53,105 C26.3899166,105 4.81818182,84.8528137 4.81818182,60 L4.81818182,60 L-1.28382153e-14,60 Z" id="path-3"></path>
        <path d="M40.1515152,0 C52.5695541,-2.28115674e-15 62.6363636,10.0668096 62.6363636,22.4848485 L62.6368703,23.3167032 C64.9153908,23.699217 66.6515152,25.6809526 66.6515152,28.0681818 L66.6515152,32.6818182 C66.6515152,35.1745564 64.7585355,37.2251655 62.3316816,37.4745402 C61.1106078,44.8336214 56.3143906,50.9859693 49.7874698,54.0864093 L49.787,61.125 L49.9280303,61.125 C66.5359231,61.125 80.0307257,74.4537236 80.2989609,90.9976938 L80.3030303,91.5 L0,91.5 C-2.05442452e-15,74.7243507 13.5993507,61.125 30.375,61.125 L30.515,61.125 L30.5155605,54.0864093 C23.9886397,50.9859693 19.1924225,44.8336214 17.9710187,37.4734753 C15.5444948,37.2251655 13.6515152,35.1745564 13.6515152,32.6818182 L13.6515152,28.0681818 C13.6515152,25.6809526 15.3876395,23.699217 17.66616,23.3167032 L17.6666667,22.4848485 C17.6666667,10.0668096 27.7334762,2.28115674e-15 40.1515152,0 Z" id="path-5"></path>
        <path d="M51.6969425,4.37637159 L51.6969697,30.25 L0.303030303,30.25 L0.302257301,4.37686501 C3.44787823,2.43703507 6.97394872,1.0548129 10.7426468,0.368020505 L10.7420303,16.7491288 L41.2570303,16.7491288 L41.2573532,0.368020505 C45.0257317,1.05475466 48.5515238,2.43680068 51.6969425,4.37637159 Z" id="path-7"></path>
        <path d="M21.3257576,1.63035942 C21.3257576,7.7358734 30.2240982,12.6853704 41.2007576,12.6853704 C52.177417,12.6853704 61.0757576,7.7358734 61.0757576,1.63035942 C61.0757576,1.30071899 61.049819,0.974448338 60.9990153,0.652144483 C72.5953187,4.78914364 80.9371954,15.7802208 81.1474484,28.7480146 L81.1515152,29.25 L0.848484848,29.25 C0.848484848,15.9054827 9.45926792,4.57212157 21.4276777,0.503072951 C21.3603296,0.873718664 21.3257576,1.24979335 21.3257576,1.63035942 Z" id="path-9"></path>
        <rect id="path-11" x="0" y="0" width="106" height="105"></rect>
        <path d="M37.2471816,0.369136368 L37.7424919,0.375 C47.5012662,0.543508711 56.5581982,2.55455996 59.8258252,6.375 C64.7740539,12.1603637 75.0306251,34.1544908 75.0836711,47.25 C75.1208808,56.5500185 71.2539027,65.8724813 65.8485525,66.375 C61.4002184,66.7885478 55.1993828,65.8168881 47.3804108,65.249121 L47.3793773,60.460935 C54.9755571,56.8521122 60.2272727,49.1094338 60.2272727,40.1401515 L60.2272727,40.1401515 L60.2266284,31.1202821 C56.4034736,29.2984872 52.9440714,27.0923671 49.8484217,24.501922 C51.1377369,26.4886285 52.5376838,28.180246 54.0492034,29.5774067 C43.2010873,26.734685 34.5719372,21.9183807 28.161753,15.1284938 C24.9584112,21.3032985 20.6563434,26.1806096 15.2568975,29.7602817 L15.2575758,40.1401515 C15.2575758,49.1094338 20.5092914,56.8521122 28.1054712,60.460935 L28.1063894,65.5295766 C20.2215149,66.5377864 13.9089457,68.3113211 9.38924608,67.8751225 C3.67854033,67.3239794 0.600761531,56.5483744 0.401515152,47.25 C0.153731669,35.6865097 11.772006,11.5481255 16.0606061,6.75 C19.2418514,3.19079329 27.9837176,0.206491289 37.7424919,0.375 Z" id="path-13"></path>
    </defs>
    <g id="Portfolio-High-f-i" stroke="none" stroke-width="1" fill="none" fill-rule="evenodd">
        <g id="Solve-Employment-Case-study" transform="translate(-186.000000, -3504.000000)">
            <g id="questions_asked" transform="translate(0.000000, 3205.000000)">
                <g id="Group-14-Copy" transform="translate(182.000000, 279.000000)">
                    <g id="Avataaar/Circle" transform="translate(0.000000, 13.000000)">
                        <g id="Circle" transform="translate(4.818182, 15.000000)">
                            <mask id="mask-2" fill="white">
                                <use xlink:href="#path-1"></use>
                            </mask>
                            <use id="Circle-Background" fill="#E6E6E6" xlink:href="#path-1"></use>
                            <g id="ðŸ–-Circle-Color" mask="url(#mask-2)" fill="#E6E6E6">
                                <rect id="ðŸ–Color" x="0" y="0" width="96.3636364" height="90"></rect>
                            </g>
                        </g>
                        <mask id="mask-4" fill="white">
                            <use xlink:href="#path-3"></use>
                        </mask>
                        <g id="Mask"></g>
                        <g id="Avataaar" mask="url(#mask-4)">
                            <g id="Body" transform="translate(12.848485, 13.500000)">
                                <mask id="mask-6" fill="white">
                                    <use xlink:href="#path-5"></use>
                                </mask>
                                <use fill="#D0C6AC" xlink:href="#path-5"></use>
                                <g id="ðŸŽ¨-Skin" mask="url(#mask-6)" fill="#D08B5B">
                                    <g transform="translate(-12.848485, 0.000000)" id="Color">
                                        <rect x="0" y="0" width="106" height="91.5"></rect>
                                    </g>
                                </g>
                                <path d="M17.6666667,33.7651515 C17.6666667,46.1831904 27.7334762,56.25 40.1515152,56.25 C52.5695541,56.25 62.6363636,46.1831904 62.6363636,33.7651515 L62.6363636,33.7651515 L62.6363636,36.7651515 C62.6363636,49.1831904 52.5695541,59.25 40.1515152,59.25 C27.7334762,59.25 17.6666667,49.1831904 17.6666667,36.7651515 Z" id="Neck-Shadow" fill-opacity="0.100000001" fill="#000000" mask="url(#mask-6)"></path>
                            </g>
                            <g id="ðŸ‘”-Clothes" transform="translate(27.000000, 74.750000)">
                                <mask id="mask-8" fill="white">
                                    <use xlink:href="#path-7"></use>
                                </mask>
                                <use id="Overall" fill="#B7C1DB" xlink:href="#path-7"></use>
                                <g id="â†³-Color-Fabric" mask="url(#mask-8)">
                                    <g transform="translate(-15.000000, 1.000000)">
                                        <mask id="mask-10" fill="white">
                                            <use xlink:href="#path-9"></use>
                                        </mask>
                                        <use id="Clothes" stroke="none" fill="#E6E6E6" fill-rule="evenodd" xlink:href="#path-9"></use>
                                        <g id="â†³-Color-Fabric" stroke="none" stroke-width="1" fill="none" fill-rule="evenodd" mask="url(#mask-10)">
                                            <g transform="translate(-12.000000, -12.000000)" fill="#E6E6E6" id="ðŸ–Color">
                                                <rect x="0" y="0" width="106" height="41.25"></rect>
                                            </g>
                                        </g>
                                    </g>
                                </g>
                                <ellipse id="Button" fill="#F4F4F4" cx="5.52272727" cy="20.125" rx="2.00757576" ry="1.875"></ellipse>
                                <ellipse id="Button" fill="#F4F4F4" cx="46.4772727" cy="20.125" rx="2.00757576" ry="1.875"></ellipse>
                            </g>
                            <g id="Face" transform="translate(34.515152, 32.750000)" fill="#000000">
                                <g id="ðŸ‘„-Mouth" transform="translate(12.803030, 22.500000)" fill-opacity="0.599999964" fill-rule="nonzero">
                                    <path d="M0.0606060606,1 C0.0606060606,3.01441113 2.53319835,4.375 5.68181818,4.375 C8.83043802,4.375 11.3030303,3.01441113 11.3030303,1 C11.3030303,0.585786438 10.9217118,0.25 10.5,0.25 C9.98095123,0.25 9.74925964,0.589440814 9.6969697,1 C9.19811754,2.10171149 7.96373299,2.76861809 5.68181818,2.875 C3.39990338,2.76861809 2.16551882,2.10171149 1.66666667,1 C1.61437672,0.589440814 1.38268513,0.25 0.863636364,0.25 C0.441924605,0.25 0.0606060606,0.585786438 0.0606060606,1 Z" id="Mouth"></path>
                                </g>
                                <g id="ðŸ‘ƒðŸ½-Nose" transform="translate(13.242424, 16.000000)" fill-opacity="0.16">
                                    <path d="M0.424242424,0 C0.424242424,1.65685425 2.5814159,3 5.24242424,3 L5.24242424,3 C7.90343258,3 10.0606061,1.65685425 10.0606061,0" id="Nose"></path>
                                </g>
                                <g id="ðŸ‘-Eyes" transform="translate(2.000000, 7.000000)" fill-opacity="0.599999964">
                                    <path d="M0.488552069,2.41774184 C1.22995323,0.993190498 2.89935145,0 4.83993754,0 C6.77367317,0 8.43813219,0.986190761 9.18343669,2.40267158 C9.40483567,2.82344914 9.08978407,3.16780563 8.77198614,2.91263356 C7.78783209,2.12241875 6.39024216,1.62892064 4.83993754,1.62892064 C3.33812063,1.62892064 1.97961512,2.09203195 1.00143618,2.83936545 C0.643788037,3.11261038 0.271707292,2.83439417 0.488552069,2.41774184 Z" id="Squint"></path>
                                    <path d="M23.7764309,2.41774184 C24.517832,0.993190498 26.1872302,0 28.1278163,0 C30.061552,0 31.726011,0.986190761 32.4713155,2.40267158 C32.6927145,2.82344914 32.3776629,3.16780563 32.0598649,2.91263356 C31.0757109,2.12241875 29.678121,1.62892064 28.1278163,1.62892064 C26.6259994,1.62892064 25.2674939,2.09203195 24.289315,2.83936545 C23.9316668,3.11261038 23.5595861,2.83439417 23.7764309,2.41774184 Z" id="Squint"></path>
                                </g>
                                <g id="âœï¸-Eyebrow" fill-opacity="0.599999964" fill-rule="nonzero">
                                    <g id="I-Browse" transform="translate(0.818182, 0.250000)">
                                        <path d="M1.45759852,4.18446628 C3.02949406,2.11870002 7.3388617,0.960313954 11.0509123,1.81169267 C11.4816168,1.91047706 11.9165146,1.66446005 12.0222837,1.26219829 C12.1280529,0.859936539 11.8646407,0.453758385 11.4339362,0.354973995 C7.12302465,-0.633756709 2.13288848,0.70762437 0.14846209,3.31553372 C-0.108453107,3.65316859 -0.0236638542,4.12139291 0.337844188,4.36134201 C0.699352229,4.60129111 1.20068332,4.52210115 1.45759852,4.18446628 Z" id="Eyebrow"></path>
                                        <path d="M24.7454773,4.18446628 C26.3173728,2.11870002 30.6267405,0.960313954 34.3387911,1.81169267 C34.7694956,1.91047706 35.2043934,1.66446005 35.3101625,1.26219829 C35.4159317,0.859936539 35.1525195,0.453758385 34.721815,0.354973995 C30.4109034,-0.633756709 25.4207673,0.70762437 23.4363409,3.31553372 C23.1794257,3.65316859 23.2642149,4.12139291 23.625723,4.36134201 C23.987231,4.60129111 24.4885621,4.52210115 24.7454773,4.18446628 Z" id="Eyebrow" transform="translate(29.310668, 2.264699) scale(-1, 1) translate(-29.310668, -2.264699) "></path>
                                    </g>
                                </g>
                            </g>
                            <g id="Top">
                                <mask id="mask-12" fill="white">
                                    <use xlink:href="#path-11"></use>
                                </mask>
                                <g id="Mask"></g>
                                <g mask="url(#mask-12)" id="Hair">
                                    <g transform="translate(14.598485, 7.000000)">
                                        <g transform="translate(0.659091, 0.125000)">
                                            <mask id="mask-14" fill="white">
                                                <use xlink:href="#path-13"></use>
                                            </mask>
                                            <use id="Combined-Shape" fill="#E6E6E6" xlink:href="#path-13"></use>
                                            <g id="â†³-ðŸ’ˆHair-Color" mask="url(#mask-14)" fill="#2C1B18">
                                                <g transform="translate(-15.659091, -7.125000)" id="Color">
                                                    <rect x="0" y="0" width="106.80303" height="105"></rect>
                                                </g>
                                            </g>
                                        </g>
                                    </g>
                                </g>
                            </g>
                        </g>
                    </g>
                </g>
            </g>
        </g>
    </g>
</svg>