<?xml version="1.0" encoding="UTF-8"?>
<svg width="39px" height="33px" viewBox="0 0 39 33" version="1.1" xmlns="http://www.w3.org/2000/svg" xmlns:xlink="http://www.w3.org/1999/xlink">
    <!-- Generator: Sketch 62 (91390) - https://sketch.com -->
    <title>multiple-users-silhouette</title>
    <desc>Created with Sketch.</desc>
    <g id="Portfolio-High-f-i" stroke="none" stroke-width="1" fill="none" fill-rule="evenodd">
        <g id="Case-studies" transform="translate(-237.000000, -647.000000)" fill="#6D7278" fill-rule="nonzero">
            <g id="Group-23" transform="translate(168.000000, 647.000000)">
                <g id="Group-20">
                    <g id="multiple-users-silhouette" transform="translate(69.000000, 0.000000)">
                        <path d="M23.3176612,5.74900542 C25.1042797,6.86919831 26.3570826,8.76479807 26.5851718,10.9651597 C27.3138035,11.3056058 28.1224834,11.5013864 28.9798674,11.5013864 C32.1099458,11.5013864 34.6468957,8.96443641 34.6468957,5.83484027 C34.6468957,2.7047619 32.1099458,0.167811935 28.9798674,0.167811935 C25.8796866,0.168776371 23.3649186,2.66039783 23.3176612,5.74900542 Z M19.6050633,17.3521398 C22.7351417,17.3521398 25.2720916,14.8147077 25.2720916,11.6851115 C25.2720916,8.55551537 22.7346594,6.0185654 19.6050633,6.0185654 C16.4754671,6.0185654 13.9370705,8.55599759 13.9370705,11.6855937 C13.9370705,14.8151899 16.4754671,17.3521398 19.6050633,17.3521398 Z M22.008921,17.7383966 L17.2002411,17.7383966 C13.1992767,17.7383966 9.9443038,20.9938517 9.9443038,24.9948162 L9.9443038,30.8754671 L9.95925256,30.9675708 L10.3643159,31.0943942 C14.1825196,32.287402 17.4996986,32.6852321 20.2300181,32.6852321 C25.5628692,32.6852321 28.6538879,31.1647981 28.8443641,31.0678722 L29.2229054,30.8764316 L29.2634122,30.8764316 L29.2634122,24.9948162 C29.2648583,20.9938517 26.0098855,17.7383966 22.008921,17.7383966 Z M31.3846896,11.8881254 L26.6131404,11.8881254 C26.5615431,13.7972272 25.7465943,15.5163351 24.4576251,16.7527426 C28.0139843,17.8102471 30.6160338,21.1081374 30.6160338,25.0034961 L30.6160338,26.8156721 C35.3273056,26.643038 38.0421941,25.3077758 38.221097,25.2180832 L38.5996383,25.0261603 L38.6401447,25.0261603 L38.6401447,19.1435805 C38.6401447,15.1430983 35.3851718,11.8881254 31.3846896,11.8881254 Z M9.66124171,11.5023508 C10.7698614,11.5023508 11.8013261,11.1787824 12.6751055,10.627607 C12.9528632,8.8159132 13.9240506,7.23279084 15.3113924,6.15455093 C15.317179,6.04846293 15.3273056,5.94333936 15.3273056,5.83628692 C15.3273056,2.70620856 12.7898734,0.16925859 9.66124171,0.16925859 C6.53068113,0.16925859 3.99421338,2.70620856 3.99421338,5.83628692 C3.99421338,8.96491863 6.53068113,11.5023508 9.66124171,11.5023508 Z M14.7505726,16.7527426 C13.4678722,15.522604 12.6558168,13.8126582 12.5965039,11.9151296 C12.4195298,11.9021097 12.2444846,11.8881254 12.064135,11.8881254 L7.25593731,11.8881254 C3.25497288,11.8881254 0,15.1430983 0,19.1435805 L0,25.0251959 L0.0149487643,25.1158529 L0.420012055,25.2436407 C3.48306209,26.1998794 6.21675708,26.6406269 8.59119952,26.7795057 L8.59119952,25.0034961 C8.59216395,21.1081374 11.1932489,17.8112116 14.7505726,16.7527426 Z" id="Shape"></path>
                    </g>
                </g>
            </g>
        </g>
    </g>
</svg>