<?xml version="1.0" encoding="UTF-8"?>
<svg width="33px" height="33px" viewBox="0 0 33 33" version="1.1" xmlns="http://www.w3.org/2000/svg" xmlns:xlink="http://www.w3.org/1999/xlink">
    <!-- Generator: Sketch 62 (91390) - https://sketch.com -->
    <title>time</title>
    <desc>Created with Sketch.</desc>
    <g id="Portfolio-High-f-i" stroke="none" stroke-width="1" fill="none" fill-rule="evenodd">
        <g id="Case-studies" transform="translate(-483.000000, -647.000000)" fill="#6D7278" fill-rule="nonzero">
            <g id="Group-23" transform="translate(168.000000, 647.000000)">
                <g id="Group-15" transform="translate(297.000000, 0.000000)">
                    <g id="time" transform="translate(18.000000, 0.000000)">
                        <path d="M16.4050633,0 C7.35894856,0 0,7.35894856 0,16.4050633 C0,25.451178 7.35894856,32.8101266 16.4050633,32.8101266 C25.451178,32.8101266 32.8101266,25.451178 32.8101266,16.4050633 C32.8101266,7.35894856 25.451178,0 16.4050633,0 Z M24.2070807,24.8904581 C23.9404884,25.1570504 23.5905391,25.2912227 23.2405898,25.2912227 C22.8906404,25.2912227 22.5404408,25.1570504 22.2740989,24.8904581 L15.4385724,18.055182 C15.1814923,17.7996038 15.0380581,17.4521577 15.0380581,17.0886911 L15.0380581,8.20253165 C15.0380581,7.44656102 15.6503443,6.83552649 16.4050633,6.83552649 C17.1597823,6.83552649 17.7720684,7.44656102 17.7720684,8.20253165 L17.7720684,16.5227144 L24.2070807,22.9574763 C24.7415169,23.4921628 24.7415169,24.3560219 24.2070807,24.8904581 L24.2070807,24.8904581 Z" id="Shape"></path>
                    </g>
                </g>
            </g>
        </g>
    </g>
</svg>