<?xml version="1.0" encoding="UTF-8"?>
<svg width="39px" height="35px" viewBox="0 0 39 35" version="1.1" xmlns="http://www.w3.org/2000/svg" xmlns:xlink="http://www.w3.org/1999/xlink">
    <!-- Generator: Sketch 62 (91390) - https://sketch.com -->
    <title>tools</title>
    <desc>Created with Sketch.</desc>
    <g id="Portfolio-High-f-i" stroke="none" stroke-width="1" fill="none" fill-rule="evenodd">
        <g id="Case-studies" transform="translate(-732.000000, -646.000000)" fill="#6D7278" fill-rule="nonzero">
            <g id="Group-23" transform="translate(168.000000, 647.000000)">
                <g id="Group-21" transform="translate(485.000000, 0.000000)">
                    <g id="tools" transform="translate(79.000000, 0.000000)">
                        <path d="M2.76915537,12.3520403 C2.99087522,12.9907079 3.29856809,13.606566 3.68770906,14.1844081 L2.57910977,15.3591004 C2.21711817,15.7430613 2.25784222,16.2904907 2.66508278,16.6364357 L4.5745885,18.2407079 C4.98635395,18.5866529 5.63793884,18.6170276 6.09495324,18.3129002 L7.48409603,17.3891131 C8.19902945,17.735096 8.95921182,18.0049711 9.75106846,18.1950508 L9.95921363,19.69668 C10.0270871,20.183284 10.5157757,20.5482369 11.0949623,20.5482369 L13.7963246,20.5482369 C14.3755112,20.5482369 14.8641999,20.1832459 14.9320733,19.69668 L15.1311687,18.2482731 C15.981849,18.061995 16.7963301,17.7844787 17.5610373,17.4233274 L18.9049312,18.3167018 C19.3619456,18.6208292 20.0135305,18.5866149 20.4252959,18.2444715 L22.3348016,16.6401992 C22.7465671,16.2942543 22.7827663,15.7468249 22.4207746,15.362864 L21.3755239,14.2489972 C21.8099138,13.6178947 22.1492809,12.9450508 22.3755257,12.2417561 L23.9863883,12.0858908 C24.5656202,12.0288669 24.9999648,11.6182948 24.9999648,11.1316909 L24.9999648,8.86213985 C24.9999648,8.37553594 24.5655749,7.96496389 23.9863883,7.90794 L22.3981502,7.75207468 C22.18091,7.05638315 21.8551628,6.39110437 21.4389177,5.76764311 L22.416295,4.72980821 C22.7782866,4.34584731 22.7375625,3.79841791 22.330322,3.45247294 L20.4253412,1.85200227 C20.0135757,1.5060573 19.3619908,1.47564456 18.9049764,1.779772 L17.7058792,2.57810654 C16.9275973,2.19414565 16.0949713,1.90142298 15.2217118,1.70374014 L15.040716,0.399793727 C14.9728426,-0.0868101835 14.4841539,-0.451763116 13.9049674,-0.451763116 L11.203605,-0.451763116 C10.6244185,-0.451763116 10.1357298,-0.0868101835 10.0678564,0.399793727 L9.88686056,1.70374014 C8.99093133,1.90522457 8.13572617,2.20935202 7.33934463,2.60851929 L6.09499849,1.779772 C5.63798409,1.47564456 4.9863992,1.5098589 4.57463375,1.85200227 L2.66512803,3.45627454 C2.25336258,3.80221951 2.21716342,4.3496489 2.57915502,4.7336098 L3.61988089,5.83987338 C3.20359054,6.47093783 2.88684789,7.14381979 2.67870271,7.84331292 L1.01354133,8.00297982 C0.43435476,8.06000372 -3.51662666e-05,8.47057577 -3.51662666e-05,8.95717968 L-3.51662666e-05,11.2267307 C-3.51662666e-05,11.7133346 0.43435476,12.1239067 1.01354133,12.1809306 L2.76915537,12.3520403 Z M12.4999648,6.54823688 C14.980208,6.54823688 16.9999648,8.3435763 16.9999648,10.5482369 C16.9999648,12.7528975 14.980208,14.5482369 12.4999648,14.5482369 C10.0197673,14.5482369 7.99996483,12.7528975 7.99996483,10.5482369 C7.99996483,8.3435763 10.0197217,6.54823688 12.4999648,6.54823688 Z" id="Shape"></path>
                        <path d="M36.5137342,13.3868954 L35.4059968,12.4514727 C35.0649192,12.1631093 34.5620064,12.1771758 34.2385119,12.4831223 L33.6266189,13.0563325 C33.10971,12.806652 32.5611162,12.6308206 31.9949041,12.5288385 L31.8226598,11.6848481 C31.7347441,11.2487864 31.330332,10.9463565 30.8871668,10.9815227 L29.4418332,11.1046047 C28.9987382,11.1432876 28.6505922,11.5055001 28.6365257,11.9521117 L28.6084279,12.8101686 C28.0527657,13.0106163 27.5287883,13.2849132 27.0505271,13.6295426 L26.3191039,13.1442481 C25.9462712,12.8980843 25.450462,12.9684168 25.1621337,13.3095296 L24.2267111,14.4243002 C23.9383125,14.765413 23.952379,15.2682906 24.2582904,15.5918203 L24.8983516,16.2740107 C24.6767689,16.7733716 24.5185207,17.2973842 24.4271236,17.8353929 L23.5128007,18.0217741 C23.076739,18.1096898 22.7743091,18.5141018 22.8094754,18.957232 L22.9325573,20.4025655 C22.9712402,20.8456605 23.3334527,21.1938065 23.7800643,21.207873 L24.7682364,21.2394875 C24.9476547,21.7107155 25.1832335,22.1573622 25.4680451,22.5758056 L24.9159699,23.4092461 C24.669806,23.7820085 24.7401385,24.2778529 25.0812162,24.5662163 L26.1889536,25.501639 C26.5301015,25.7900024 27.032944,25.7759359 27.3565088,25.4699893 L28.0809339,24.7912804 C28.5556785,25.0128279 29.0550043,25.1781093 29.5684318,25.2765749 L29.7689146,26.2682636 C29.8568303,26.7043253 30.2612424,27.0067552 30.7043373,26.9715889 L32.1496709,26.848507 C32.5927658,26.8098241 32.9409119,26.4476467 32.9549784,26.001 L32.986628,25.0303758 C33.514122,24.8439946 34.0134478,24.5907975 34.4741259,24.2778529 L35.2724353,24.8053469 C35.6451978,25.0515108 36.141007,24.9811782 36.4294055,24.6400654 L37.3648282,23.5323281 C37.6531564,23.1912153 37.6390899,22.6883377 37.3331786,22.364808 L36.6896007,21.6826176 C36.9252499,21.1832566 37.0975997,20.6557626 37.195995,20.114167 L38.0751516,19.934819 C38.5112133,19.8469033 38.8136432,19.4424913 38.7784769,18.9993611 L38.655395,17.5540276 C38.6167121,17.1109326 38.2544996,16.7627866 37.807888,16.7487201 L36.9252147,16.7205871 C36.7423149,16.2071596 36.4961511,15.7219003 36.1902397,15.2717369 L36.6719824,14.5473118 C36.9252147,14.1746197 36.8548822,13.6752587 36.5137342,13.3868954 Z M31.0665499,21.7423651 C29.5051677,21.8760321 28.1265797,20.7119935 27.9964997,19.1506464 C27.8628327,17.5892642 29.0269064,16.2107114 30.5882183,16.0805962 C32.1496006,15.9469644 33.5281885,17.111003 33.6582685,18.67235 C33.7919355,20.2337674 32.6278618,21.6122851 31.0665499,21.7423651 Z" id="Shape"></path>
                        <path d="M13.2090846,25.6317893 C12.7659897,25.6775055 12.4248769,26.0502327 12.4213603,26.4968795 L12.4107002,27.386586 C12.4037771,27.8331976 12.73434,28.2129933 13.177435,28.2692945 L13.8315275,28.3536583 C13.940543,28.7510723 14.0952745,29.130868 14.2957223,29.4895639 L13.8737271,30.0100247 C13.5923969,30.3581355 13.6134967,30.8575317 13.9264765,31.1775447 L14.5489194,31.8140541 C14.8618991,32.1340672 15.3612601,32.1692334 15.7164394,31.8949365 L16.2403816,31.4905245 C16.6096274,31.7085553 17.0000081,31.8809052 17.4079017,32.0004353 L17.4782342,32.6756277 C17.5239503,33.1187226 17.8967128,33.4598354 18.3433244,33.463352 L19.2330661,33.4740121 C19.6796425,33.4809352 20.0594733,33.1503723 20.1157393,32.7072773 L20.1966218,32.0672513 C20.6397519,31.9582007 21.0617471,31.7929544 21.4626074,31.5749235 L21.9549351,31.9723023 C22.3030811,32.2536325 22.8024773,32.2325327 23.1224903,31.9195529 L23.7589997,31.29711 C24.0790127,30.9841654 24.114179,30.4847693 23.8399173,30.12959 L23.4635679,29.6407437 C23.6956653,29.2539148 23.8750484,28.8424695 23.9981303,28.4099244 L24.5818903,28.3501417 C25.0249853,28.3044256 25.3660629,27.9316632 25.3696147,27.4850516 L25.3802407,26.5953099 C25.3871979,26.1487334 25.0566349,25.7689026 24.61354,25.7126366 L24.0438113,25.6387874 C23.9347959,25.209759 23.7730662,24.794797 23.5620686,24.4079681 L23.9172479,23.9719064 C24.198578,23.6237603 24.1774783,23.1243994 23.8644985,22.8043863 L23.2420908,22.1678769 C22.929111,21.8478287 22.4296797,21.8126625 22.0745356,22.0869945 L21.6489886,22.4140408 C21.2481283,22.1713935 20.8190647,21.9850123 20.3689716,21.8584138 L20.3126704,21.3063034 C20.2669543,20.8631733 19.894227,20.5220956 19.4475803,20.518579 L18.5578737,20.507919 C18.1112622,20.5009959 17.7314665,20.8315588 17.6751653,21.2746538 L17.6048328,21.8232827 C17.1406732,21.9428128 16.6940616,22.1257126 16.2790997,22.364808 L15.8395213,22.0061121 C15.4913753,21.724782 14.9919792,21.7459169 14.6719661,22.0588615 L14.0319401,22.6848562 C13.7119271,22.9978008 13.6767608,23.497197 13.9510577,23.8523411 L14.3273367,24.3376707 C14.1093059,24.7244997 13.9369912,25.1359098 13.8244591,25.56849 L13.2090846,25.6317893 Z M18.9517359,24.6259989 C20.2282714,24.6400654 21.2515746,25.691572 21.2375432,26.9681075 C21.2234767,28.2446429 20.1719702,29.2679461 18.8954347,29.2539148 C17.6188993,29.2398483 16.5955961,28.1883769 16.6096274,26.9118063 C16.6237291,25.635306 17.6752005,24.6119676 18.9517359,24.6259989 Z" id="Shape"></path>
                    </g>
                </g>
            </g>
        </g>
    </g>
</svg>