<?xml version="1.0" encoding="UTF-8"?>
<svg width="107px" height="105px" viewBox="0 0 107 105" version="1.1" xmlns="http://www.w3.org/2000/svg" xmlns:xlink="http://www.w3.org/1999/xlink">
    <!-- Generator: sketchtool 62 (101010) - https://sketch.com -->
    <title>4E336F36-C237-45D3-A24D-1D2D4840A4F7</title>
    <desc>Created with sketchtool.</desc>
    <defs>
        <ellipse id="path-1" cx="48.1818182" cy="45" rx="48.1818182" ry="45"></ellipse>
        <path d="M106,-5.32907052e-15 L106,60 L101.181,59.999 C101.181818,84.6042856 80.0393609,104.596586 53.7967745,104.993971 L53,105 C26.3899166,105 4.81818182,84.8528137 4.81818182,60 C4.81818182,59.9996664 4.81818182,59.9993328 4.81818183,59.9989992 L-1.28382153e-14,60 L-1.28382153e-14,-5.32907052e-15 L106,-5.32907052e-15 Z" id="path-3"></path>
        <path d="M40.1515152,0 C52.5695541,-2.28115674e-15 62.6363636,10.0668096 62.6363636,22.4848485 L62.6368703,23.3167032 C64.9153908,23.699217 66.6515152,25.6809526 66.6515152,28.0681818 L66.6515152,32.6818182 C66.6515152,35.1745564 64.7585355,37.2251655 62.3316816,37.4745402 C61.1106078,44.8336214 56.3143906,50.9859693 49.7874698,54.0864093 L49.787,61.125 L49.9280303,61.125 C66.5359231,61.125 80.0307257,74.4537236 80.2989609,90.9976938 L80.3030303,91.5 L0,91.5 C-2.05442452e-15,74.7243507 13.5993507,61.125 30.375,61.125 L30.515,61.125 L30.5155605,54.0864093 C23.9886397,50.9859693 19.1924225,44.8336214 17.9710187,37.4734753 C15.5444948,37.2251655 13.6515152,35.1745564 13.6515152,32.6818182 L13.6515152,28.0681818 C13.6515152,25.6809526 15.3876395,23.699217 17.66616,23.3167032 L17.6666667,22.4848485 C17.6666667,10.0668096 27.7334762,2.28115674e-15 40.1515152,0 Z" id="path-5"></path>
        <path d="M33.3257576,13.6303596 C33.3257576,19.7358738 42.2240982,24.6853709 53.2007576,24.6853709 C64.177417,24.6853709 73.0757576,19.7358738 73.0757576,13.6303596 C73.0757576,13.3007192 73.049819,12.9744486 72.9990153,12.6521447 C84.5953191,16.7891434 92.9371954,27.78022 93.1474484,40.7480132 L93.1515152,41.2499986 L12.8484848,41.2499986 C12.8484848,27.9054819 21.4592675,16.5721213 33.4276767,12.5030729 C33.3603296,12.8737189 33.3257576,13.2497936 33.3257576,13.6303596 Z" id="path-7"></path>
        <rect id="path-9" x="0" y="0" width="106" height="105"></rect>
        <path d="M52.1969705,0 C59.7771659,0 66.2423351,4.45873124 68.7498407,10.7212778 C77.1264274,12.0139311 83.5151528,18.8101518 83.5151528,27 C83.5151528,30.6251958 82.2633801,33.9773317 80.1415037,36.6999435 C84.1777895,39.998791 86.727274,44.8463251 86.727274,50.25 C86.727274,60.1911255 78.09858,68.25 67.4545465,68.25 C65.5591089,68.25 63.7275792,67.994447 61.9973024,67.5182199 C60.2563571,68.8909057 58.3389093,70.0747423 56.2815528,71.0361065 C55.2489384,70.9293725 54.2008953,70.875 53.1401528,70.875 L53.1401528,70.875 L53,70.875 L53.0005902,63.835935 C59.639343,60.6819703 64.4873823,54.3705459 65.6040171,46.8423529 C68.001886,46.5661659 69.8636374,44.5289097 69.8636374,42.0568181 L69.8636374,42.0568181 L69.8636374,37.8181819 C69.8636374,36.0369286 68.8970438,34.4814354 67.4597633,33.6476091 C67.1187096,33.5242309 66.7762432,33.3756445 66.4335899,33.2050136 C66.2435121,33.145871 66.0483279,33.1001672 65.8489925,33.0667032 L65.8488601,32.8925991 C62.363327,30.9040598 58.9283259,26.6907329 56.7942995,21.2997324 C52.723877,22.0631642 48.0000355,22.5 42.9621219,22.5 C38.1594722,22.5 33.642246,22.1030109 29.7044317,21.4045377 C27.6058997,26.6494325 24.2766454,30.7667877 20.8780538,32.7840664 L20.8782816,33.0667032 C18.599761,33.449217 16.8636366,35.4309527 16.8636366,37.8181819 L16.8636366,37.8181819 L16.8636366,42.0568181 C16.8636366,44.5289097 18.7253881,46.5661659 21.123278,46.8429738 C22.2399348,54.3708364 27.0883052,60.6824574 33.7274523,63.8363001 L33.727,70.875 L33.5871213,70.875 C32.526147,70.875 31.4778777,70.9293963 30.4449501,71.0355521 C28.388106,70.0746139 26.4705051,68.8906476 24.7290008,67.5179447 C22.9994247,67.9944847 21.1680254,68.25 19.2727276,68.25 C8.62869404,68.25 0,60.1911255 0,50.25 C0,44.8463287 2.54948114,39.9987976 6.58630308,36.6994056 C4.4638939,33.9773317 3.21212126,30.6251958 3.21212126,27 C3.21212126,18.8098265 9.60135416,12.0133912 17.9786153,10.721253 C20.4849389,4.45873124 26.9501081,0 34.5303036,0 C37.7481395,0 40.7650421,0.803485948 43.363555,2.2073619 C45.9616967,0.803628506 48.9788491,0 52.1969705,0 Z" id="path-11"></path>
    </defs>
    <g id="Asset-Artboard-Page" stroke="none" stroke-width="1" fill="none" fill-rule="evenodd">
        <g id="Avataaar/Circle" transform="translate(0.944549, 0.000000)">
            <g id="Circle" transform="translate(4.818182, 15.000000)">
                <mask id="mask-2" fill="white">
                    <use xlink:href="#path-1"></use>
                </mask>
                <use id="Circle-Background" fill="#E6E6E6" xlink:href="#path-1"></use>
                <g id="ðŸ–-Circle-Color-Color/Palette/Blue-01" mask="url(#mask-2)" fill="#65C9FF">
                    <rect id="ðŸ–Color" x="0" y="0" width="96.3636398" height="90"></rect>
                </g>
            </g>
            <mask id="mask-4" fill="white">
                <use xlink:href="#path-3"></use>
            </mask>
            <g id="Mask"></g>
            <g id="Avataaar" mask="url(#mask-4)">
                <g id="Body" transform="translate(12.848485, 13.500000)">
                    <mask id="mask-6" fill="white">
                        <use xlink:href="#path-5"></use>
                    </mask>
                    <use fill="#D0C6AC" xlink:href="#path-5"></use>
                    <g id="ðŸŽ¨-Skin-Skin/ðŸ‘¶ðŸ»-05-Pale" mask="url(#mask-6)" fill="#FFDBB4">
                        <g transform="translate(-12.848485, 0.000000)" id="Color">
                            <rect x="0" y="0" width="106" height="91.5"></rect>
                        </g>
                    </g>
                    <path d="M17.6666667,33.7651515 C17.6666667,46.1831904 27.7334762,56.25 40.1515152,56.25 C52.5695541,56.25 62.6363636,46.1831904 62.6363636,33.7651515 L62.6363636,33.7651515 L62.6363636,36.7651515 C62.6363636,49.1831904 52.5695541,59.25 40.1515152,59.25 C27.7334762,59.25 17.6666667,49.1831904 17.6666667,36.7651515 Z" id="Neck-Shadow" fill-opacity="0.100000001" fill="#000000" mask="url(#mask-6)"></path>
                </g>
                <g id="ðŸ‘”-Clothes-Clothing/Shirt-Scoop-Neck" transform="translate(0.000000, 63.750000)">
                    <mask id="mask-8" fill="white">
                        <use xlink:href="#path-7"></use>
                    </mask>
                    <use id="Clothes" fill="#E6E6E6" xlink:href="#path-7"></use>
                    <g id="â†³-Color-Fabric-Color/Palette/Gray-01" mask="url(#mask-8)" fill="#E6E6E6">
                        <rect id="ðŸ–Color" x="0" y="0" width="106" height="41.25"></rect>
                    </g>
                </g>
                <g id="Face" transform="translate(30.515152, 30.750000)" fill="#000000">
                    <g id="ðŸ‘„-Mouth-Mouth/Default" transform="translate(0.803030, 19.500000)" fill-opacity="0.699999988">
                        <path d="M16.0606059,5.625 C16.0606059,8.52449494 18.5773083,10.875 21.681818,10.875 L21.681818,10.875 C24.7863277,10.875 27.3030301,8.52449494 27.3030301,5.625" id="Mouth"></path>
                    </g>
                    <g id="ðŸ‘ƒðŸ½-Nose-Nose/Default" transform="translate(11.242424, 15.000000)" fill-opacity="0.16">
                        <path d="M6.42424229,3 C6.42424229,4.65685425 8.58141573,6 11.242424,6 L11.242424,6 C13.9034323,6 16.0606057,4.65685425 16.0606057,3" id="Nose"></path>
                    </g>
                    <g id="ðŸ‘-Eyes-Eyes/Default-ðŸ˜€" transform="translate(0.000000, 3.000000)" fill-opacity="0.599999964">
                        <ellipse id="Eye" cx="12.0454543" cy="8.25" rx="2.40909086" ry="2.25"></ellipse>
                        <ellipse id="Eye" cx="32.9242417" cy="8.25" rx="2.40909086" ry="2.25"></ellipse>
                    </g>
                    <g id="âœï¸-Eyebrow-Eyebrow/Outline/Default" fill-opacity="0.599999964" fill-rule="nonzero">
                        <g id="I-Browse" transform="translate(4.818182, 2.250000)">
                            <path d="M1.45759846,4.18446631 C3.02949394,2.11870004 7.33886144,0.960313961 11.0509119,1.81169269 C11.4816164,1.91047708 11.9165142,1.66446006 12.0222833,1.2621983 C12.1280524,0.859936545 11.8646403,0.453758388 11.4339358,0.354973997 C7.12302439,-0.633756714 2.13288841,0.707624376 0.148462085,3.31553375 C-0.108453103,3.65316862 -0.0236638534,4.12139294 0.337844175,4.36134204 C0.699352204,4.60129115 1.20068327,4.52210118 1.45759846,4.18446631 Z" id="Eyebrow"></path>
                            <path d="M24.7454764,4.18446631 C26.3173719,2.11870004 30.6267394,0.960313961 34.3387898,1.81169269 C34.7694943,1.91047708 35.2043921,1.66446006 35.3101613,1.2621983 C35.4159304,0.859936545 35.1525183,0.453758388 34.7218138,0.354973997 C30.4109024,-0.633756714 25.4207664,0.707624376 23.4363401,3.31553375 C23.1794249,3.65316862 23.2642141,4.12139294 23.6257222,4.36134204 C23.9872302,4.60129115 24.4885613,4.52210118 24.7454764,4.18446631 Z" id="Eyebrow" transform="translate(29.310667, 2.264699) scale(-1, 1) translate(-29.310667, -2.264699) "></path>
                        </g>
                    </g>
                </g>
                <g id="Top">
                    <mask id="mask-10" fill="white">
                        <use xlink:href="#path-9"></use>
                    </mask>
                    <g id="Mask"></g>
                    <g id="Top-Top/Long-Hair/Curly" mask="url(#mask-10)">
                        <g transform="translate(-0.401515, 0.000000)">
                            <path d="M53.0000008,9.75 C56.9513058,9.75 60.70941,10.0187184 64.1105906,10.5029687 C73.4115437,14.6168836 79.9015156,23.9255347 79.9015156,34.75 L79.9020875,40.4730007 C75.531441,40.1249176 70.2896664,34.4244834 67.3681077,26.3975667 L67.3856338,26.4431242 C63.1924855,27.2723619 58.2679472,27.75 53.0000008,27.75 C47.9711048,27.75 43.2551575,27.3147272 39.1896835,26.5538286 L39.248094,26.3975667 C36.368114,34.3102467 31.2334896,39.9621926 26.9012396,40.4548958 L26.9015156,34.75 C26.9015156,23.7872424 33.5583772,14.3792782 43.0503956,10.3478123 C46.1384345,9.96166878 49.4931258,9.75 53.0000008,9.75 Z" id="Shadow" fill-opacity="0.16" fill="#000000"></path>
                            <g id="Hair" stroke-width="1" fill="none" transform="translate(10.037879, 3.750000)">
                                <mask id="mask-12" fill="white">
                                    <use xlink:href="#path-11"></use>
                                </mask>
                                <use id="Curly!" fill="#314756" xlink:href="#path-11"></use>
                                <g id="â†³-ðŸ’ˆHair-Color-Color/Hair/Brown-Dark" mask="url(#mask-12)" fill="#4A312C">
                                    <g transform="translate(-9.636364, -3.750000)" id="Color">
                                        <rect x="0" y="0" width="106" height="105"></rect>
                                    </g>
                                </g>
                            </g>
                            <g id="Facial-Hair-Facial-Hair/-Blank" stroke-width="1" fill="none" transform="translate(19.674243, 27.000000)"></g>
                            <g id="â†³-ðŸ‘“-Accessory-Top/_Resources/Blank" stroke-width="1" fill="none" transform="translate(24.893940, 31.875000)"></g>
                        </g>
                    </g>
                </g>
            </g>
        </g>
    </g>
</svg>