<?xml version="1.0" encoding="UTF-8"?>
<svg width="24px" height="20px" viewBox="0 0 24 20" version="1.1" xmlns="http://www.w3.org/2000/svg" xmlns:xlink="http://www.w3.org/1999/xlink">
    <!-- Generator: sketchtool 60.1 (101010) - https://sketch.com -->
    <title>BEA053B7-5641-47FB-9CF2-25453AAB4BD2</title>
    <desc>Created with sketchtool.</desc>
    <g id="Portfolio-High-f-i" stroke="none" stroke-width="1" fill="none" fill-rule="evenodd">
        <g id="projects" transform="translate(-519.000000, -2814.000000)" fill="#2C3E51" fill-rule="nonzero">
            <g id="Footer" transform="translate(0.000000, 2773.000000)">
                <g id="Group-21">
                    <path d="M542.25,44.0130816 C541.406,44.3872959 540.513,44.6338367 539.5992,44.7449082 C540.5595,44.1711122 541.2817,43.2595306 541.6303,42.1811327 C540.7224,42.7228673 539.7307,43.1029796 538.6978,43.3051735 C538.2629,42.8400306 537.7397,42.4699898 537.1603,42.217551 C536.5808,41.9651122 535.9571,41.835551 535.327,41.8367367 C532.7761,41.8367367 530.7117,43.9126327 530.7117,46.4716327 C530.7099,46.8275714 530.7499,47.1824592 530.8308,47.5287041 C529.0016,47.4412041 527.2104,46.965051 525.57187,46.1307143 C523.93333,45.2963673 522.48351,44.1222143 521.31516,42.6833673 C520.90527,43.3884592 520.6885,44.192949 520.6875,45.0127653 C520.6875,46.6199082 521.50922,48.0405102 522.75,48.8727755 C522.01487,48.8549694 521.29481,48.6564388 520.65094,48.2940102 L520.65094,48.3514082 C520.65094,50.5994898 522.24469,52.4696939 524.35406,52.8954082 C523.9574,53.0033673 523.54864,53.0579592 523.13812,53.0580612 C522.84683,53.0585714 522.5562,53.0296939 522.27047,52.9719388 C522.85687,54.8134694 524.56359,56.1527551 526.58531,56.1910204 C524.94252,57.4829592 522.9256,58.1811224 520.85156,58.1760204 C520.48341,58.1755102 520.11561,58.1531633 519.75,58.1090816 C521.85993,59.4838776 524.31255,60.2110204 526.81594,60.2041308 C535.3172,60.2041308 539.9616,53.1393878 539.9616,47.0121224 C539.9616,46.8112347 539.9564,46.6103367 539.947,46.4142347 C540.8485,45.7599184 541.6283,44.9468061 542.25,44.0130816 Z" id="Path"></path>
                </g>
            </g>
        </g>
    </g>
</svg>